<svg width="177" height="176" viewBox="0 0 177 176" fill="none" xmlns="http://www.w3.org/2000/svg">
<path d="M156.809 93.3246C156.862 92.4112 157.107 91.6345 157.546 90.9946C157.985 90.3546 158.572 89.8739 159.306 89.5523C160.052 89.244 160.9 89.1174 161.851 89.1725C162.577 89.2146 163.222 89.3524 163.786 89.5859C164.35 89.8195 164.821 90.1418 165.199 90.5529C165.589 90.9647 165.875 91.4458 166.057 91.9961C166.237 92.559 166.308 93.1845 166.268 93.8727C166.242 94.3231 166.146 94.7884 165.98 95.2684C165.814 95.7484 165.551 96.1788 165.19 96.5596C165.095 96.6797 164.984 96.7548 164.856 96.7851C164.729 96.8154 164.604 96.8082 164.481 96.7634C164.371 96.7193 164.274 96.6509 164.192 96.5583C164.122 96.4663 164.084 96.3512 164.08 96.2128C164.074 96.087 164.126 95.9581 164.234 95.8263C164.503 95.5155 164.697 95.1941 164.817 94.862C164.937 94.53 165.006 94.2076 165.024 93.8948C165.052 93.4068 164.995 92.9767 164.854 92.6044C164.725 92.2328 164.523 91.9136 164.25 91.6467C163.977 91.3797 163.631 91.1651 163.214 91.0028C162.796 90.8531 162.305 90.7619 161.742 90.7292C160.654 90.6662 159.775 90.8727 159.108 91.3487C158.452 91.8254 158.097 92.5393 158.042 93.4902C158.024 93.803 158.055 94.125 158.137 94.4561C158.217 94.7998 158.373 95.1477 158.603 95.5001C158.695 95.6435 158.732 95.7774 158.712 95.9018C158.692 96.0262 158.636 96.1297 158.543 96.2122C158.463 96.2954 158.36 96.3459 158.233 96.3637C158.106 96.394 157.981 96.3867 157.858 96.342C157.747 96.2979 157.652 96.2108 157.572 96.0806C157.27 95.6613 157.057 95.2096 156.935 94.7254C156.824 94.242 156.783 93.7751 156.809 93.3246Z" fill="#818888"/>
<path d="M156.464 98.1336C156.507 97.925 156.602 97.772 156.75 97.6746C156.908 97.592 157.098 97.5736 157.318 97.6192L165.014 99.2093C165.186 99.2448 165.322 99.2985 165.423 99.3705C165.535 99.4449 165.612 99.5376 165.653 99.6484C165.694 99.7593 165.699 99.8884 165.669 100.036C165.639 100.183 165.589 100.301 165.519 100.389C165.462 100.479 165.383 100.553 165.282 100.608C165.193 100.667 165.088 100.709 164.968 100.735L158.742 102.713L163.674 106.995C163.775 107.067 163.854 107.148 163.912 107.236C163.983 107.328 164.027 107.426 164.043 107.532C164.072 107.641 164.073 107.762 164.045 107.897C163.999 108.118 163.897 108.27 163.739 108.352C163.594 108.438 163.386 108.452 163.116 108.396L155.42 106.806C155.199 106.761 155.033 106.669 154.921 106.53C154.821 106.395 154.794 106.216 154.839 105.995C154.882 105.787 154.978 105.634 155.126 105.536C155.284 105.454 155.473 105.435 155.694 105.481L162.341 106.854L162.253 107.277L157.38 102.988C157.292 102.919 157.22 102.833 157.164 102.732C157.121 102.634 157.113 102.517 157.141 102.382C157.171 102.234 157.232 102.125 157.323 102.055C157.412 101.996 157.506 101.945 157.605 101.902L163.778 99.8946L163.691 100.318L157.045 98.9448C156.824 98.8992 156.658 98.801 156.549 98.6504C156.449 98.5145 156.42 98.3423 156.464 98.1336Z" fill="#818888"/>
<path d="M152.501 112.782C152.82 111.951 153.278 111.301 153.874 110.832C154.47 110.363 155.161 110.084 155.947 109.996C156.739 109.925 157.586 110.062 158.487 110.408C159.166 110.668 159.739 110.995 160.205 111.389C160.683 111.787 161.046 112.242 161.292 112.753C161.539 113.264 161.668 113.803 161.678 114.371C161.696 114.955 161.586 115.557 161.347 116.177C161.029 117.008 160.571 117.658 159.975 118.127C159.379 118.596 158.684 118.867 157.891 118.939C157.106 119.026 156.263 118.897 155.362 118.552C154.683 118.291 154.11 117.964 153.644 117.57C153.178 117.176 152.815 116.722 152.557 116.206C152.31 115.695 152.177 115.148 152.16 114.564C152.15 113.996 152.263 113.402 152.501 112.782ZM153.642 113.22C153.44 113.746 153.392 114.258 153.496 114.755C153.601 115.251 153.859 115.699 154.269 116.098C154.675 116.509 155.224 116.847 155.914 117.112C156.979 117.521 157.884 117.593 158.63 117.329C159.371 117.077 159.897 116.547 160.207 115.739C160.413 115.201 160.464 114.684 160.359 114.187C160.262 113.707 160.01 113.261 159.604 112.85C159.205 112.455 158.649 112.121 157.935 111.847C156.882 111.443 155.977 111.37 155.219 111.63C154.473 111.894 153.948 112.424 153.642 113.22Z" fill="#818888"/>
<path d="M148.711 121.09C148.826 120.882 148.977 120.751 149.165 120.696C149.352 120.642 149.555 120.676 149.775 120.797L156.129 124.302L157.455 121.899C157.685 121.482 157.981 121.373 158.343 121.573C158.508 121.664 158.604 121.788 158.631 121.946C158.669 122.11 158.634 122.291 158.525 122.489L155.129 128.645C154.905 129.051 154.617 129.158 154.266 128.964C154.09 128.867 153.983 128.737 153.945 128.572C153.912 128.425 153.95 128.253 154.059 128.055L155.394 125.635L149.039 122.13C148.82 122.009 148.68 121.86 148.62 121.684C148.554 121.519 148.584 121.321 148.711 121.09Z" fill="#818888"/>
<path d="M142.868 124.422C143.018 124.221 143.186 124.112 143.372 124.095C143.547 124.07 143.735 124.132 143.936 124.283L152.929 131.028C153.13 131.179 153.243 131.342 153.268 131.517C153.303 131.7 153.249 131.887 153.106 132.077C152.956 132.278 152.788 132.387 152.602 132.404C152.419 132.439 152.228 132.382 152.027 132.231L150.598 131.16L150.933 131.152C151.384 131.741 151.598 132.396 151.576 133.115C151.556 133.852 151.298 134.551 150.801 135.213C150.313 135.865 149.732 136.315 149.06 136.563C148.391 136.829 147.673 136.878 146.906 136.71C146.141 136.559 145.368 136.191 144.586 135.604C143.814 135.025 143.244 134.386 142.875 133.687C142.509 133.005 142.351 132.307 142.401 131.592C142.452 130.878 142.725 130.19 143.221 129.528C143.717 128.866 144.308 128.424 144.992 128.201C145.686 127.985 146.378 128.003 147.068 128.253L146.932 128.434L143.022 125.501C142.821 125.351 142.712 125.183 142.695 124.997C142.667 124.804 142.725 124.612 142.868 124.422ZM144.391 130.006C144.045 130.467 143.858 130.946 143.83 131.442C143.795 131.948 143.921 132.45 144.206 132.946C144.485 133.452 144.919 133.927 145.511 134.371C146.423 135.055 147.274 135.372 148.064 135.322C148.846 135.282 149.497 134.916 150.016 134.224C150.354 133.773 150.541 133.294 150.576 132.788C150.621 132.289 150.504 131.786 150.226 131.28C149.95 130.791 149.507 130.318 148.895 129.859C147.993 129.182 147.142 128.865 146.342 128.908C145.552 128.958 144.902 129.324 144.391 130.006Z" fill="#818888"/>
<path d="M138.733 135.047C138.831 134.951 138.943 134.885 139.067 134.851C139.174 134.817 139.293 134.823 139.426 134.869C139.549 134.923 139.677 135.018 139.808 135.152L145.278 140.742C145.453 140.921 145.54 141.099 145.538 141.277C145.536 141.454 145.459 141.617 145.306 141.766C145.145 141.924 144.98 141.997 144.812 141.987C144.635 141.985 144.459 141.894 144.283 141.715L139.34 136.662L139.676 136.334L140.893 145.4C140.918 145.569 140.912 145.733 140.874 145.892C140.846 146.06 140.756 146.219 140.603 146.368C140.496 146.473 140.389 146.543 140.282 146.577C140.175 146.611 140.06 146.601 139.937 146.547C139.813 146.51 139.681 146.42 139.541 146.276L134.058 140.673C133.892 140.503 133.805 140.325 133.798 140.138C133.791 139.97 133.868 139.807 134.029 139.649C134.191 139.491 134.36 139.413 134.537 139.415C134.714 139.435 134.886 139.53 135.052 139.7L140.009 144.766L139.673 145.095L138.456 136.001C138.431 135.85 138.433 135.691 138.461 135.523C138.481 135.363 138.571 135.205 138.733 135.047Z" fill="#818888"/>
<path d="M129.635 143.128C129.826 142.986 130.018 142.929 130.211 142.957C130.404 142.986 130.575 143.1 130.725 143.301L135.058 149.123L137.26 147.484C137.642 147.199 137.956 147.223 138.203 147.555C138.316 147.706 138.351 147.859 138.311 148.014C138.277 148.179 138.17 148.329 137.989 148.464L132.349 152.662C131.977 152.939 131.671 152.917 131.432 152.595C131.312 152.434 131.269 152.271 131.302 152.106C131.333 151.958 131.438 151.817 131.619 151.682L133.836 150.032L129.504 144.211C129.354 144.01 129.288 143.816 129.306 143.631C129.315 143.453 129.424 143.285 129.635 143.128Z" fill="#818888"/>
<path d="M121.522 148.321C122.366 147.852 123.185 147.611 123.981 147.598C124.773 147.602 125.509 147.817 126.189 148.241C126.859 148.672 127.432 149.314 127.907 150.168C128.37 151.001 128.608 151.815 128.621 152.611C128.64 153.418 128.462 154.155 128.088 154.823C127.702 155.496 127.132 156.043 126.376 156.464C125.839 156.762 125.306 156.937 124.775 156.989C124.25 157.051 123.746 156.995 123.261 156.82C122.765 156.651 122.307 156.368 121.885 155.972C121.453 155.581 121.069 155.085 120.734 154.483C120.636 154.307 120.613 154.148 120.662 154.006C120.718 153.874 120.839 153.757 121.026 153.653L126.742 150.472L127.227 151.343L121.822 154.35L121.966 153.991C122.295 154.582 122.66 155.031 123.061 155.339C123.468 155.658 123.902 155.832 124.363 155.862C124.814 155.899 125.291 155.776 125.795 155.496C126.353 155.185 126.756 154.789 127.004 154.307C127.248 153.841 127.34 153.324 127.281 152.754C127.228 152.196 127.034 151.615 126.699 151.013L126.644 150.914C126.083 149.907 125.416 149.274 124.642 149.016C123.856 148.765 123.014 148.889 122.116 149.389C121.744 149.596 121.405 149.849 121.098 150.149C120.78 150.455 120.51 150.82 120.288 151.245C120.19 151.429 120.077 151.549 119.95 151.605C119.819 151.678 119.694 151.698 119.574 151.664C119.461 151.641 119.363 151.581 119.28 151.483C119.193 151.403 119.143 151.288 119.13 151.137C119.107 150.992 119.142 150.836 119.236 150.669C119.451 150.205 119.765 149.765 120.179 149.348C120.593 148.932 121.04 148.589 121.522 148.321Z" fill="#818888"/>
<path d="M110.33 149.792C110.57 149.722 110.77 149.735 110.929 149.832C111.084 149.918 111.197 150.081 111.267 150.321L114.413 161.115C114.483 161.355 114.476 161.553 114.39 161.709C114.309 161.876 114.153 161.993 113.925 162.06C113.684 162.13 113.484 162.116 113.325 162.019C113.158 161.937 113.039 161.776 112.969 161.535L112.469 159.821L112.741 160.016C112.749 160.758 112.528 161.41 112.078 161.971C111.619 162.549 110.993 162.953 110.199 163.185C109.417 163.413 108.683 163.424 107.996 163.22C107.302 163.031 106.698 162.639 106.185 162.044C105.664 161.465 105.266 160.706 104.993 159.767C104.723 158.841 104.65 157.987 104.775 157.207C104.892 156.442 105.185 155.789 105.653 155.247C106.122 154.706 106.754 154.319 107.548 154.088C108.342 153.857 109.08 153.857 109.761 154.089C110.446 154.334 110.989 154.763 111.39 155.377L111.173 155.44L109.805 150.747C109.735 150.507 109.749 150.307 109.846 150.148C109.94 149.977 110.101 149.858 110.33 149.792ZM108.197 155.172C107.643 155.333 107.206 155.604 106.886 155.984C106.555 156.368 106.354 156.845 106.285 157.413C106.203 157.985 106.266 158.626 106.473 159.336C106.792 160.431 107.282 161.195 107.944 161.629C108.594 162.066 109.334 162.164 110.164 161.922C110.705 161.764 111.142 161.493 111.474 161.11C111.81 160.738 112.018 160.266 112.099 159.694C112.172 159.137 112.102 158.492 111.888 157.758C111.572 156.675 111.082 155.911 110.416 155.465C109.755 155.031 109.015 154.933 108.197 155.172Z" fill="#818888"/>
<path d="M97.2407 156.199C98.198 156.076 99.0485 156.157 99.7924 156.441C100.525 156.739 101.129 157.212 101.604 157.859C102.066 158.507 102.359 159.316 102.483 160.286C102.603 161.231 102.522 162.075 102.238 162.819C101.955 163.575 101.516 164.194 100.921 164.674C100.313 165.156 99.5798 165.452 98.722 165.562C98.1128 165.64 97.5523 165.604 97.0404 165.455C96.5302 165.318 96.0825 165.078 95.6976 164.735C95.3002 164.395 94.9796 163.962 94.7356 163.437C94.4792 162.914 94.3072 162.31 94.2198 161.627C94.1944 161.428 94.2313 161.271 94.3304 161.158C94.4312 161.056 94.5873 160.992 94.7986 160.965L101.288 160.135L101.415 161.124L95.2793 161.908L95.5467 161.628C95.6325 162.299 95.8043 162.852 96.062 163.286C96.3213 163.733 96.6595 164.057 97.0767 164.256C97.4815 164.457 97.9698 164.521 98.5417 164.448C99.1757 164.367 99.6974 164.148 100.107 163.793C100.505 163.451 100.783 163.005 100.94 162.454C101.099 161.916 101.134 161.305 101.047 160.621L101.033 160.509C100.886 159.365 100.502 158.53 99.8784 158.003C99.2427 157.478 98.4151 157.281 97.3957 157.411C96.973 157.465 96.5636 157.574 96.1677 157.739C95.7593 157.904 95.3729 158.143 95.0084 158.455C94.8487 158.59 94.6996 158.659 94.5613 158.664C94.4121 158.683 94.2884 158.655 94.1903 158.579C94.0937 158.515 94.0251 158.423 93.9843 158.302C93.9327 158.195 93.9292 158.069 93.9739 157.924C94.0062 157.781 94.0967 157.65 94.2456 157.529C94.6178 157.179 95.0732 156.887 95.612 156.653C96.1508 156.42 96.6937 156.269 97.2407 156.199Z" fill="#818888"/>
<path d="M90.2127 156.803C90.4634 156.807 90.6566 156.879 90.7923 157.019C90.9155 157.159 90.9751 157.354 90.9713 157.605L90.8511 165.387C90.847 165.65 90.7814 165.843 90.6541 165.967C90.5141 166.103 90.3188 166.168 90.0682 166.165C89.8301 166.161 89.6494 166.089 89.5263 165.949C89.3903 165.822 89.3244 165.627 89.3285 165.363L89.3767 162.243L87.6661 162.217L84.8288 165.745C84.7012 165.894 84.5619 165.986 84.4109 166.021C84.2598 166.069 84.1219 166.067 83.9974 166.014C83.8601 165.975 83.7548 165.898 83.6813 165.784C83.5951 165.682 83.5532 165.556 83.5555 165.406C83.5579 165.256 83.6167 165.1 83.732 164.939L86.435 161.577L86.8598 162.073C86.5095 162.03 86.2038 161.937 85.9428 161.795C85.6817 161.653 85.4343 161.443 85.2004 161.163C84.9666 160.884 84.7156 160.498 84.4474 160.005L83.1285 157.747C83.0435 157.57 83.0146 157.413 83.0418 157.275C83.0565 157.138 83.1211 157.013 83.2356 156.902C83.3499 156.804 83.4825 156.743 83.6332 156.721C83.7715 156.698 83.909 156.719 84.0459 156.783C84.1828 156.848 84.3064 156.963 84.4167 157.127L85.8634 159.632C86.071 159.986 86.2673 160.258 86.4524 160.449C86.6373 160.653 86.8482 160.794 87.0851 160.873C87.3221 160.952 87.616 160.994 87.9669 160.999L89.3955 161.021L89.4486 157.581C89.4525 157.331 89.5244 157.137 89.6644 157.002C89.7919 156.866 89.9746 156.8 90.2127 156.803Z" fill="#818888"/>
<path d="M78.0672 155.92C78.9465 156.057 79.6784 156.367 80.2628 156.851C80.8472 157.335 81.2651 157.951 81.5166 158.701C81.7538 159.461 81.7984 160.317 81.6503 161.271C81.5388 161.989 81.3397 162.618 81.0531 163.157C80.7646 163.708 80.3966 164.158 79.9493 164.507C79.5019 164.857 79.0018 165.096 78.4489 165.226C77.8817 165.366 77.27 165.385 76.6135 165.283C75.7342 165.147 75.0023 164.837 74.4179 164.353C73.8335 163.869 73.4227 163.247 73.1855 162.487C72.934 161.738 72.8823 160.886 73.0304 159.933C73.1419 159.214 73.341 158.586 73.6276 158.047C73.9142 157.508 74.2821 157.058 74.7314 156.696C75.1788 156.347 75.6861 156.102 76.2533 155.962C76.8061 155.832 77.4108 155.818 78.0672 155.92ZM77.8797 157.128C77.3224 157.041 76.812 157.102 76.3486 157.309C75.8852 157.516 75.5017 157.862 75.198 158.348C74.8819 158.831 74.6672 159.438 74.5537 160.169C74.3788 161.296 74.499 162.196 74.9145 162.87C75.3176 163.541 75.9465 163.943 76.801 164.076C77.3707 164.164 77.8873 164.105 78.3507 163.898C78.7997 163.701 79.1823 163.361 79.4984 162.877C79.8002 162.404 80.0097 161.79 80.127 161.034C80.3 159.92 80.1798 159.02 79.7662 158.334C79.3507 157.661 78.7219 157.258 77.8797 157.128Z" fill="#818888"/>
<path d="M71.3123 154.693C71.5147 154.759 71.6558 154.872 71.7358 155.03C71.7999 155.196 71.7967 155.387 71.7263 155.601L69.2723 163.066C69.2175 163.233 69.1487 163.362 69.0658 163.454C68.979 163.557 68.8782 163.623 68.7634 163.651C68.6486 163.679 68.5197 163.67 68.3769 163.623C68.234 163.576 68.1228 163.513 68.0432 163.434C67.9596 163.367 67.8959 163.28 67.8518 163.173C67.8039 163.078 67.7737 162.969 67.7613 162.847L66.504 156.437L61.6889 160.851C61.6061 160.942 61.5172 161.012 61.4223 161.06C61.3234 161.12 61.2205 161.152 61.1135 161.156C61.0026 161.172 60.8817 161.159 60.7507 161.116C60.5364 161.046 60.3972 160.927 60.3331 160.761C60.2651 160.607 60.2741 160.399 60.3602 160.137L62.8142 152.671C62.8846 152.457 62.995 152.302 63.1452 152.206C63.2915 152.122 63.4718 152.116 63.6861 152.186C63.8885 152.253 64.0297 152.365 64.1096 152.523C64.1737 152.689 64.1706 152.88 64.1001 153.094L61.9808 159.541L61.57 159.406L66.3852 155.052C66.4642 154.973 66.5571 154.911 66.6639 154.867C66.7668 154.835 66.8838 154.84 67.0147 154.883C67.1576 154.93 67.259 155.003 67.3188 155.102C67.3668 155.197 67.4068 155.296 67.439 155.399L68.7318 161.761L68.321 161.626L70.4403 155.178C70.5108 154.964 70.6271 154.811 70.7892 154.719C70.9355 154.635 71.1099 154.626 71.3123 154.693Z" fill="#818888"/>
<path d="M56.9814 148.972C57.8382 149.416 58.4916 149.966 58.9417 150.623C59.3749 151.285 59.6025 152.017 59.6244 152.819C59.6352 153.615 59.4157 154.447 58.9658 155.315C58.5275 156.161 57.9799 156.809 57.3231 157.259C56.6605 157.72 55.9476 157.979 55.1844 158.035C54.4101 158.085 53.639 157.912 52.8712 157.514C52.326 157.231 51.8854 156.883 51.5495 156.469C51.2078 156.066 50.9762 155.614 50.8545 155.113C50.7218 154.607 50.7044 154.068 50.8024 153.498C50.8893 152.922 51.0913 152.328 51.4086 151.716C51.5009 151.538 51.6201 151.43 51.7664 151.393C51.9069 151.367 52.0718 151.403 52.261 151.501L58.0694 154.512L57.6109 155.397L52.1195 152.55L52.4991 152.472C52.1876 153.072 52.0142 153.625 51.9788 154.129C51.9377 154.644 52.0319 155.102 52.2615 155.504C52.4799 155.899 52.8451 156.23 53.357 156.495C53.9245 156.789 54.4777 156.906 55.0167 156.847C55.5388 156.793 56.0212 156.584 56.4637 156.221C56.9005 155.868 57.2775 155.386 57.5947 154.774L57.6466 154.674C58.1773 153.65 58.3362 152.744 58.1235 151.957C57.8996 151.163 57.3314 150.53 56.419 150.057C56.0407 149.861 55.6419 149.717 55.2228 149.627C54.7926 149.531 54.3389 149.508 53.8617 149.557C53.654 149.576 53.4918 149.549 53.3752 149.474C53.2417 149.405 53.1561 149.311 53.1186 149.193C53.0753 149.086 53.0714 148.971 53.1068 148.848C53.1254 148.731 53.1942 148.625 53.3132 148.531C53.4212 148.432 53.5706 148.375 53.7614 148.361C54.267 148.285 54.8077 148.304 55.3834 148.419C55.9591 148.534 56.4918 148.718 56.9814 148.972Z" fill="#818888"/>
<path d="M51.1595 145.7C51.3617 145.848 51.4776 146.018 51.5073 146.211C51.5268 146.396 51.4625 146.59 51.3143 146.792L46.6796 153.115C46.524 153.327 46.3586 153.447 46.1834 153.474C45.9981 153.493 45.8044 153.429 45.6022 153.281C45.4102 153.14 45.3006 152.982 45.2736 152.807C45.2366 152.624 45.2958 152.427 45.4514 152.215L47.3186 149.667L43.3005 146.722L41.4333 149.269C41.2777 149.482 41.1123 149.601 40.9371 149.628C40.7518 149.648 40.5632 149.587 40.3711 149.446C40.179 149.306 40.0645 149.144 40.0274 148.961C39.9903 148.779 40.0495 148.581 40.2051 148.369L44.8399 142.046C44.9881 141.844 45.1585 141.728 45.3512 141.698C45.5439 141.669 45.7363 141.724 45.9284 141.865C46.1204 142.006 46.2313 142.173 46.261 142.365C46.2806 142.551 46.2163 142.744 46.0681 142.947L44.0341 145.721L48.0522 148.667L50.0862 145.892C50.2344 145.69 50.3998 145.57 50.5823 145.533C50.7649 145.496 50.9573 145.551 51.1595 145.7Z" fill="#818888"/>
<path d="M44.9919 138.025C45.1414 138.177 45.2112 138.337 45.2011 138.505C45.191 138.673 45.1056 138.837 44.9449 138.995L43.2846 140.631C42.9275 140.983 42.5731 140.981 42.2211 140.624L41.5877 139.981L42.4488 140.399C41.8899 140.475 41.3526 140.626 40.8369 140.853C40.3035 141.079 39.7651 141.39 39.2216 141.785C38.6781 142.18 38.1028 142.676 37.4958 143.275L36.197 144.555C35.9917 144.757 35.7872 144.853 35.5834 144.843C35.3707 144.841 35.1676 144.742 34.974 144.546L31.6485 141.172C31.4461 140.966 31.3501 140.762 31.3605 140.558C31.3531 140.354 31.452 140.151 31.6573 139.949L37.174 134.512L37.1668 135.495L36.1903 134.504C36.0231 134.335 35.9402 134.161 35.9415 133.984C35.934 133.798 36.0195 133.617 36.198 133.441L37.8583 131.805C38.1975 131.47 38.5211 131.459 38.829 131.772C38.9786 131.924 39.0483 132.084 39.0382 132.252C39.0282 132.42 38.9428 132.584 38.7821 132.742L37.4565 134.048L42.7088 139.378L44.0344 138.071C44.3736 137.737 44.6928 137.721 44.9919 138.025ZM41.0466 139.432L37.6947 136.031L32.9145 140.742L35.4879 143.353L36.7331 142.126C37.4026 141.466 38.1158 140.895 38.8726 140.413C39.6205 139.94 40.3452 139.613 41.0466 139.432Z" fill="#818888"/>
<path d="M33.7644 129.128C34.1312 129.637 34.3647 130.164 34.4651 130.709C34.5479 131.253 34.501 131.766 34.3242 132.249C34.1474 132.732 33.8455 133.128 33.4187 133.436C32.87 133.832 32.339 134.006 31.8259 133.959C31.3055 133.902 30.7482 133.601 30.1539 133.056C29.5523 132.501 28.8481 131.665 28.0411 130.547L27.546 129.861L28.3539 129.278L28.838 129.949C29.4322 130.772 29.9424 131.393 30.3684 131.812C30.777 132.228 31.1424 132.466 31.4647 132.527C31.7797 132.578 32.1049 132.483 32.4402 132.241C32.8569 131.94 33.0946 131.552 33.1534 131.077C33.2049 130.591 33.0509 130.099 32.6915 129.602C32.3981 129.195 32.0448 128.909 31.6316 128.744C31.2111 128.568 30.7709 128.515 30.3108 128.584C29.8434 128.643 29.3912 128.831 28.9542 129.146L27.2165 130.4C26.5864 130.855 26.2259 131.309 26.1349 131.761C26.0337 132.22 26.1922 132.74 26.6104 133.319C26.8671 133.674 27.1696 133.997 27.5178 134.287C27.866 134.576 28.2848 134.846 28.7741 135.096C28.948 135.187 29.0614 135.29 29.1144 135.407C29.1573 135.53 29.1601 135.652 29.1228 135.771C29.0855 135.891 29.0197 135.993 28.9254 136.076C28.821 136.167 28.6996 136.224 28.5613 136.246C28.4157 136.259 28.2684 136.226 28.1194 136.148C27.573 135.862 27.0913 135.538 26.6743 135.174C26.2572 134.81 25.9056 134.43 25.6195 134.034C25.1574 133.394 24.8826 132.788 24.7953 132.218C24.6978 131.654 24.7891 131.117 25.0692 130.606C25.3391 130.102 25.8044 129.611 26.4649 129.134L30.5959 126.152C30.7991 126.006 30.9933 125.943 31.1785 125.964C31.3563 125.974 31.5112 126.071 31.6433 126.254C31.7826 126.447 31.8331 126.635 31.7947 126.817C31.7562 127 31.6354 127.164 31.4322 127.311L30.2432 128.169L30.1441 128.032C30.589 127.835 31.033 127.754 31.4761 127.789C31.9118 127.815 32.327 127.94 32.7215 128.166C33.116 128.391 33.4636 128.712 33.7644 129.128Z" fill="#818888"/>
<path d="M27.9646 114.549C28.0612 114.739 28.0793 114.913 28.0188 115.07C27.9694 115.222 27.8442 115.349 27.6431 115.451L25.9677 116.304L29.1912 122.637C29.3049 122.861 29.3316 123.065 29.2713 123.25C29.211 123.436 29.0691 123.585 28.8457 123.699L21.9763 127.195C21.7418 127.315 21.5402 127.347 21.3717 127.292C21.1974 127.226 21.0535 127.082 20.9398 126.858C20.8317 126.646 20.8051 126.456 20.86 126.287C20.9092 126.107 21.051 125.958 21.2856 125.838L27.7696 122.538L25.6291 118.333L19.1451 121.633C18.9105 121.752 18.709 121.785 18.5404 121.73C18.3662 121.664 18.2222 121.519 18.1085 121.296C18.0005 121.083 17.9739 120.893 18.0287 120.724C18.0779 120.545 18.2198 120.395 18.4543 120.276L25.575 116.651L25.2539 117.595L24.6313 116.372C24.5176 116.149 24.4882 115.953 24.543 115.784C24.5922 115.605 24.7285 115.458 24.9519 115.344L27.0462 114.278C27.4595 114.068 27.7656 114.158 27.9646 114.549Z" fill="#818888"/>
<path d="M24.611 112.635C24.6536 112.766 24.6625 112.895 24.6377 113.022C24.621 113.132 24.5627 113.237 24.4628 113.335C24.3591 113.422 24.2178 113.494 24.039 113.552L16.6001 115.966C16.3617 116.043 16.1635 116.042 16.0056 115.961C15.8477 115.881 15.7359 115.739 15.6701 115.537C15.6005 115.322 15.6078 115.142 15.6922 114.996C15.7728 114.838 15.9322 114.72 16.1707 114.643L22.8942 112.461L23.0393 112.908L14.3766 109.967C14.2145 109.915 14.0705 109.836 13.9445 109.732C13.8065 109.632 13.7047 109.481 13.6389 109.278C13.5925 109.135 13.5777 109.008 13.5944 108.897C13.6111 108.786 13.6714 108.688 13.7751 108.601C13.863 108.507 14.0024 108.429 14.1931 108.367L21.6499 105.947C21.8764 105.873 22.0745 105.875 22.2443 105.951C22.3984 106.02 22.5102 106.162 22.5799 106.376C22.6495 106.591 22.6441 106.777 22.5635 106.935C22.4672 107.085 22.3058 107.196 22.0793 107.27L15.3378 109.458L15.1928 109.011L23.8792 111.963C24.0254 112.008 24.1676 112.08 24.3055 112.181C24.4395 112.269 24.5414 112.42 24.611 112.635Z" fill="#818888"/>
<path d="M21.7558 102.991C21.7785 103.127 21.7682 103.256 21.725 103.377C21.6921 103.484 21.619 103.579 21.5057 103.662C21.3903 103.732 21.2399 103.782 21.0545 103.813L13.3406 105.102C13.0933 105.143 12.8976 105.112 12.7533 105.009C12.609 104.906 12.5193 104.75 12.4842 104.54C12.4471 104.317 12.481 104.14 12.586 104.008C12.689 103.864 12.8641 103.771 13.1114 103.73L20.0836 102.565L20.161 103.028L12.0278 98.8405C11.8753 98.7643 11.7444 98.6655 11.6352 98.5439C11.5136 98.4245 11.4352 98.2597 11.4001 98.0495C11.3753 97.9012 11.3794 97.7734 11.4123 97.6662C11.4453 97.5591 11.5194 97.4705 11.6348 97.4004C11.7357 97.32 11.8851 97.2633 12.0829 97.2302L19.8153 95.9386C20.0502 95.8993 20.246 95.9302 20.4026 96.0311C20.5448 96.1217 20.6345 96.2782 20.6717 96.5007C20.7088 96.7233 20.6759 96.9067 20.573 97.0509C20.4556 97.1849 20.2794 97.2715 20.0445 97.3107L13.0538 98.4785L12.9764 98.0149L21.1312 102.218C21.2692 102.284 21.3991 102.377 21.5207 102.496C21.6402 102.603 21.7186 102.768 21.7558 102.991Z" fill="#818888"/>
<path d="M20.3933 85.1045C20.3487 85.9933 20.116 86.7534 19.6953 87.3848C19.2746 88.0162 18.7046 88.4959 17.9854 88.8237C17.2543 89.1383 16.4068 89.2715 15.443 89.2231C14.7169 89.1866 14.0711 89.0538 13.5053 88.8246C12.927 88.5948 12.4411 88.2755 12.0475 87.8667C11.6539 87.4579 11.3639 86.9853 11.1775 86.4489C10.9792 85.8993 10.8967 85.2928 10.93 84.6294C10.9747 83.7407 11.2073 82.9806 11.6281 82.3491C12.0488 81.7177 12.6247 81.2447 13.3558 80.93C14.075 80.6022 14.9165 80.4625 15.8804 80.5109C16.6064 80.5473 17.2523 80.6801 17.818 80.9093C18.3838 81.1385 18.8697 81.4578 19.2758 81.8672C19.6694 82.276 19.9654 82.7552 20.1637 83.3048C20.3501 83.8412 20.4266 84.4411 20.3933 85.1045ZM19.1729 85.0433C19.2011 84.48 19.0883 83.9786 18.8342 83.5392C18.5802 83.0998 18.196 82.7542 17.6816 82.5025C17.1678 82.2383 16.5416 82.0876 15.8031 82.0505C14.664 81.9933 13.7811 82.2063 13.1545 82.6893C12.5285 83.1599 12.1939 83.827 12.1505 84.6907C12.1216 85.2665 12.2341 85.7741 12.4882 86.2135C12.7303 86.6398 13.1083 86.9851 13.6221 87.2493C14.124 87.5004 14.7567 87.6451 15.5203 87.6834C16.6469 87.74 17.5297 87.5271 18.1688 87.0446C18.7954 86.5616 19.1301 85.8945 19.1729 85.0433Z" fill="#818888"/>
<path d="M21.3769 76.116C21.3331 76.3501 21.2309 76.5222 21.07 76.6325C20.9092 76.7427 20.7056 76.7748 20.4592 76.7287L13.3257 75.3964L12.8218 78.0945C12.7343 78.5627 12.4873 78.7588 12.0807 78.6829C11.8959 78.6483 11.7658 78.5603 11.6902 78.4187C11.6023 78.2748 11.5791 78.0919 11.6205 77.8701L12.9115 70.9585C12.9966 70.5026 13.2363 70.3115 13.6306 70.3852C13.8277 70.422 13.9702 70.5123 14.0581 70.6563C14.1359 70.7855 14.1541 70.9611 14.1127 71.1828L13.6053 73.8995L20.7387 75.2318C20.9852 75.2778 21.1646 75.3751 21.2771 75.5236C21.3919 75.6598 21.4252 75.8573 21.3769 76.116Z" fill="#818888"/>
<path d="M23.9859 65.8003C23.89 66.0319 23.752 66.185 23.5718 66.2596C23.3965 66.3226 23.193 66.3062 22.9614 66.2103L15.7185 63.2104C15.4754 63.1096 15.3199 62.9774 15.252 62.8137C15.189 62.6383 15.2054 62.4349 15.3013 62.2033C15.3925 61.9833 15.5199 61.8393 15.6837 61.7715C15.8522 61.6921 16.0581 61.7028 16.3012 61.8035L19.2192 63.0121L21.1257 58.4092L18.2076 57.2006C17.9645 57.0999 17.809 56.9677 17.7411 56.8039C17.6781 56.6286 17.6921 56.4309 17.7833 56.2109C17.8744 55.9909 18.0042 55.8412 18.1728 55.7618C18.3413 55.6824 18.5472 55.693 18.7904 55.7937L26.0333 58.7936C26.2649 58.8896 26.418 59.0276 26.4926 59.2077C26.5672 59.3878 26.559 59.5879 26.4678 59.8079C26.3767 60.0279 26.2411 60.1752 26.0609 60.2499C25.8856 60.3129 25.6822 60.2965 25.4506 60.2005L22.272 58.884L20.3656 63.4869L23.5442 64.8034C23.7757 64.8993 23.9312 65.0315 24.0107 65.2001C24.0901 65.3686 24.0818 65.5687 23.9859 65.8003Z" fill="#818888"/>
<path d="M29.6518 53.8789C29.3251 54.4137 28.9295 54.833 28.465 55.1367C27.9963 55.4232 27.505 55.5784 26.9911 55.6023C26.4772 55.6262 25.9956 55.5009 25.5463 55.2266C24.9687 54.8738 24.6024 54.4518 24.4472 53.9604C24.2985 53.4584 24.3604 52.828 24.6329 52.0693C24.912 51.2998 25.4108 50.3268 26.1294 49.1502L26.5704 48.4282L27.4207 48.9476L26.9896 49.6535C26.4604 50.5199 26.0851 51.2306 25.8636 51.7855C25.638 52.3233 25.5594 52.7526 25.6278 53.0734C25.7027 53.3835 25.9167 53.6464 26.2696 53.862C26.7082 54.1298 27.158 54.1989 27.619 54.0693C28.0865 53.9289 28.4804 53.5967 28.8005 53.0726C29.0618 52.6448 29.1888 52.2083 29.1816 51.7633C29.1809 51.3076 29.0596 50.8811 28.8176 50.4836C28.5823 50.0755 28.2346 49.731 27.7747 49.4501L25.9456 48.333C25.2825 47.928 24.7248 47.771 24.2727 47.862C23.8099 47.9465 23.3923 48.2935 23.02 48.9032C22.7913 49.2776 22.6108 49.6813 22.4784 50.1145C22.346 50.5477 22.2594 51.0381 22.2185 51.5859C22.202 51.7814 22.1503 51.9261 22.0636 52.02C21.9662 52.1074 21.8551 52.157 21.7303 52.1689C21.6055 52.1808 21.4864 52.1595 21.3729 52.1048C21.2487 52.0437 21.1495 51.9537 21.0752 51.8349C21.0074 51.7054 20.9807 51.5568 20.9949 51.3893C21.047 50.7749 21.16 50.2051 21.334 49.6799C21.5079 49.1546 21.7223 48.6834 21.9771 48.2663C22.3887 47.5924 22.8407 47.1048 23.3331 46.8035C23.8149 46.4956 24.3457 46.3719 24.9256 46.4323C25.4948 46.4862 26.127 46.7255 26.8223 47.1501L31.1703 49.8057C31.3842 49.9364 31.5173 50.0911 31.5696 50.2699C31.6285 50.4381 31.5991 50.6184 31.4815 50.8109C31.3574 51.0142 31.2039 51.1333 31.0209 51.1684C30.8379 51.2035 30.6394 51.1557 30.4255 51.0251L29.1741 50.2607L29.2623 50.1164C29.6165 50.4502 29.8628 50.8283 30.0014 51.2507C30.1464 51.6624 30.1914 52.0937 30.1363 52.5447C30.0811 52.9956 29.9196 53.4404 29.6518 53.8789Z" fill="#818888"/>
<path d="M33.7841 46.9792C33.6167 47.1659 33.4357 47.2645 33.241 47.2751C33.0464 47.2857 32.8557 47.2074 32.6691 47.0401L26.9298 41.8947C26.7338 41.719 26.631 41.5427 26.6214 41.3657C26.6117 41.1887 26.6864 41.0116 26.8453 40.8343C27.0043 40.657 27.1723 40.5635 27.3493 40.5538C27.5262 40.5442 27.7127 40.6272 27.9087 40.8029L33.326 45.6596L35.8735 42.8179L30.4563 37.9613C30.2603 37.7856 30.1575 37.6092 30.1478 37.4322C30.1382 37.2553 30.2128 37.0781 30.3718 36.9008C30.5224 36.7328 30.6861 36.644 30.8631 36.6343C31.0401 36.6247 31.2266 36.7077 31.4226 36.8834L36.8399 41.7401L39.3874 38.8985L33.9701 34.0418C33.7742 33.8661 33.6713 33.6897 33.6617 33.5128C33.6604 33.3264 33.7351 33.1493 33.8856 32.9813C34.0446 32.804 34.2126 32.7105 34.3896 32.7009C34.5666 32.6912 34.753 32.7742 34.949 32.9499L40.6882 38.0953C40.8749 38.2626 40.9735 38.4436 40.9841 38.6383C40.9948 38.833 40.9164 39.0236 40.7491 39.2103L33.7841 46.9792Z" fill="#818888"/>
<path d="M43.9323 36.5651C43.8235 36.6498 43.7054 36.7021 43.5779 36.722C43.468 36.7441 43.3498 36.7249 43.2234 36.6645C43.1068 36.5965 42.9907 36.4883 42.8752 36.3399L38.0695 30.1699C37.9154 29.9721 37.8494 29.7853 37.8712 29.6094C37.8931 29.4335 37.9881 29.2801 38.1562 29.1492C38.3341 29.0105 38.5061 28.956 38.6721 28.9856C38.848 29.0074 39.013 29.1173 39.167 29.315L43.5107 34.8918L43.1399 35.1806L42.9506 26.0345C42.945 25.8641 42.9696 25.7019 43.0244 25.548C43.0716 25.3842 43.1792 25.2368 43.3473 25.1059C43.466 25.0135 43.5802 24.9562 43.6902 24.9342C43.8001 24.9121 43.9133 24.9351 44.0299 25.0032C44.1486 25.0537 44.2696 25.158 44.3928 25.3162L49.2101 31.5011C49.3565 31.689 49.4226 31.8758 49.4084 32.0616C49.3964 32.2298 49.3014 32.3832 49.1235 32.5218C48.9455 32.6604 48.7685 32.7188 48.5926 32.697C48.4189 32.6575 48.2589 32.5438 48.1126 32.356L43.7574 26.7644L44.1282 26.4755L44.3142 35.6481C44.322 35.8009 44.3023 35.9592 44.2552 36.123C44.2179 36.2791 44.1103 36.4265 43.9323 36.5651Z" fill="#818888"/>
<path d="M51.7836 30.655C51.6415 30.7347 51.4913 30.7616 51.3329 30.7355C51.1746 30.7094 51.05 30.6284 50.9594 30.4924C50.8735 30.3394 50.8556 30.1411 50.9056 29.8974L51.7502 24.6804L52.1366 25.3689L47.5616 23.5172C47.3214 23.4221 47.1614 23.3035 47.0816 23.1614C47.0128 23.0132 47.0085 22.8647 47.0687 22.7159C47.129 22.5672 47.2301 22.4529 47.3722 22.3732C47.5361 22.2811 47.6911 22.2372 47.8372 22.2415C47.9881 22.2286 48.1496 22.2602 48.3216 22.3361L52.3315 23.9876L51.8724 24.2452L52.5676 19.9528C52.5924 19.7665 52.644 19.6153 52.7227 19.4993C52.7952 19.3724 52.9134 19.2629 53.0773 19.1709C53.2303 19.085 53.3805 19.0582 53.528 19.0904C53.6864 19.1165 53.8085 19.206 53.8944 19.359C53.985 19.495 54.0084 19.6903 53.9645 19.9449L53.1511 24.7564L52.8106 24.1498L57.6764 26.097C57.8995 26.1873 58.0486 26.312 58.1236 26.4712C58.2033 26.6133 58.2131 26.7587 58.1529 26.9075C58.0926 27.0563 57.986 27.1736 57.833 27.2595C57.68 27.3454 57.525 27.3893 57.368 27.3912C57.228 27.3979 57.0665 27.3663 56.8836 27.2965L52.5738 25.5332L53.0492 25.2663L52.3097 29.8638C52.2788 30.0393 52.2217 30.1935 52.1383 30.3266C52.0658 30.4535 51.9476 30.563 51.7836 30.655Z" fill="#818888"/>
<path d="M68.5518 23.067C67.6805 23.3462 66.8674 23.3961 66.1124 23.2168C65.3574 23.0376 64.6979 22.6632 64.1338 22.0938C63.5778 21.5086 63.1545 20.7624 62.8639 19.8553C62.6421 19.163 62.5387 18.5118 62.5538 17.9015C62.5689 17.2913 62.7002 16.7359 62.9479 16.2355C63.1917 15.723 63.5377 15.2832 63.986 14.9158C64.4461 14.5447 65.0045 14.2539 65.6609 14.0436C66.0906 13.9059 66.5592 13.8282 67.0668 13.8104C67.5743 13.7925 68.0707 13.8835 68.5559 14.0834C68.702 14.1288 68.8121 14.2054 68.8862 14.3132C68.9602 14.4211 68.9984 14.5405 69.0009 14.6713C68.9995 14.7902 68.9704 14.9048 68.9136 15.0151C68.853 15.1135 68.759 15.1897 68.6315 15.2437C68.516 15.2939 68.3773 15.2923 68.2154 15.2388C67.8286 15.0995 67.4587 15.0338 67.1059 15.0415C66.753 15.0493 66.4274 15.101 66.129 15.1966C65.6635 15.3457 65.2825 15.5533 64.9861 15.8194C64.6859 16.0735 64.4604 16.376 64.3096 16.727C64.1588 17.078 64.0828 17.4775 64.0815 17.9254C64.0922 18.3694 64.1836 18.86 64.3556 19.3971C64.6883 20.4355 65.1968 21.1807 65.8812 21.6326C66.5618 22.0726 67.3556 22.1473 68.2627 21.8567C68.5611 21.7611 68.8502 21.6159 69.1299 21.421C69.4216 21.2222 69.6903 20.9519 69.9361 20.6099C70.0368 20.4724 70.1488 20.3904 70.272 20.3641C70.3951 20.3378 70.5119 20.3531 70.6222 20.4099C70.7287 20.4547 70.813 20.533 70.8751 20.6447C70.9492 20.7526 70.9874 20.8719 70.9898 21.0028C70.9884 21.1217 70.9415 21.242 70.8489 21.3638C70.5663 21.7965 70.2212 22.1571 69.8136 22.4456C69.4021 22.7222 68.9815 22.9294 68.5518 23.067Z" fill="#818888"/>
<path d="M73.1138 21.7144C72.867 21.7585 72.6636 21.7249 72.5037 21.6134C72.356 21.4998 72.2601 21.3196 72.216 21.0728L70.8753 13.5778C70.8246 13.294 70.8611 13.0711 70.9848 12.9089C71.1064 12.7343 71.3029 12.6228 71.5743 12.5742L77.7184 11.4752C77.9898 11.4267 78.2128 11.4632 78.3874 11.5848C78.5597 11.694 78.6712 11.8905 78.722 12.1742L80.0626 19.6693C80.1068 19.916 80.0731 20.1194 79.9617 20.2794C79.8502 20.4394 79.6773 20.5403 79.4429 20.5823C79.2085 20.6242 79.0113 20.5895 78.8513 20.478C78.7037 20.3644 78.6078 20.1842 78.5636 19.9374L77.2859 12.794L72.4372 13.6613L73.715 20.8047C73.7591 21.0515 73.7316 21.2537 73.6325 21.4115C73.5334 21.5693 73.3605 21.6702 73.1138 21.7144Z" fill="#818888"/>
<path d="M86.8858 20.0938C85.9211 20.1199 85.0828 19.9545 84.3711 19.5976C83.6715 19.2278 83.118 18.6974 82.7107 18.0063C82.3158 17.3148 82.1052 16.4805 82.0788 15.5032C82.0531 14.551 82.2187 13.719 82.5756 13.0073C82.9321 12.283 83.4307 11.7116 84.0714 11.293C84.7246 10.8742 85.4834 10.6531 86.3479 10.6297C86.9618 10.6131 87.516 10.7047 88.0103 10.9045C88.5044 11.0917 88.9258 11.375 89.2746 11.7542C89.6359 12.1332 89.9117 12.5959 90.102 13.1424C90.3048 13.6886 90.4155 14.3062 90.4341 14.9953C90.4396 15.1958 90.3872 15.3476 90.2772 15.4509C90.1668 15.5417 90.0051 15.5899 89.7921 15.5957L83.2521 15.7724L83.2252 14.7764L89.4081 14.6093L89.114 14.8617C89.0958 14.1852 88.9801 13.6178 88.7671 13.1597C88.5538 12.689 88.2496 12.3336 87.8544 12.0935C87.4718 11.8531 86.9923 11.7407 86.416 11.7563C85.777 11.7735 85.2361 11.9386 84.7932 12.2515C84.3624 12.5515 84.0414 12.9677 83.8301 13.5C83.6185 14.0197 83.522 14.6242 83.5406 15.3132L83.5437 15.426C83.5748 16.5787 83.8741 17.4482 84.4417 18.0347C85.0217 18.6208 85.8254 18.9 86.8528 18.8723C87.2787 18.8608 87.6969 18.793 88.1073 18.6691C88.5303 18.5448 88.9386 18.3457 89.3324 18.0718C89.5048 17.9543 89.6601 17.8999 89.7982 17.9087C89.9486 17.9047 90.0688 17.9453 90.1588 18.0307C90.2486 18.1035 90.3077 18.2022 90.3361 18.3268C90.3767 18.4385 90.3676 18.5641 90.3087 18.7036C90.2623 18.8428 90.159 18.9647 89.9988 19.0694C89.5935 19.3812 89.1112 19.6262 88.5518 19.8043C87.9924 19.9824 87.437 20.0789 86.8858 20.0938Z" fill="#818888"/>
<path d="M100.937 23.505C100.726 23.478 100.572 23.3952 100.476 23.2566C100.378 23.1304 100.344 22.9554 100.372 22.7316L100.611 20.8668L93.5619 19.9656C93.3132 19.9338 93.1293 19.8408 93.01 19.6865C92.8907 19.5323 92.847 19.3309 92.8788 19.0822L93.8563 11.4365C93.8897 11.1754 93.9765 10.9906 94.1167 10.8822C94.2693 10.7754 94.47 10.7378 94.7186 10.7696C94.9548 10.7998 95.1271 10.885 95.2356 11.0253C95.3564 11.1671 95.4002 11.3685 95.3668 11.6296L94.4441 18.8464L99.1248 19.4449L100.047 12.228C100.081 11.9669 100.168 11.7822 100.308 11.6737C100.461 11.5669 100.661 11.5294 100.91 11.5612C101.146 11.5914 101.318 11.6766 101.427 11.8168C101.548 11.9586 101.591 12.16 101.558 12.4211L100.545 20.3466L99.9453 19.5498L101.307 19.7238C101.555 19.7556 101.734 19.8416 101.842 19.9818C101.963 20.1236 102.008 20.3188 101.976 20.5675L101.678 22.8985C101.619 23.3585 101.372 23.5607 100.937 23.505Z" fill="#818888"/>
<path d="M104.557 21.8071C104.424 21.7685 104.313 21.7034 104.222 21.6117C104.14 21.5355 104.086 21.4285 104.061 21.2906C104.048 21.1562 104.068 20.9988 104.12 20.8183L106.308 13.3099C106.379 13.0693 106.491 12.9063 106.647 12.821C106.802 12.7358 106.982 12.723 107.187 12.7826C107.403 12.8457 107.548 12.9532 107.621 13.1051C107.707 13.2605 107.714 13.4585 107.644 13.6992L105.666 20.4856L105.215 20.3541L112.519 14.8457C112.654 14.7414 112.8 14.6664 112.956 14.6208C113.117 14.5631 113.299 14.564 113.504 14.6236C113.648 14.6657 113.762 14.7249 113.844 14.801C113.926 14.8772 113.974 14.9825 113.987 15.1169C114.015 15.2427 114.002 15.4019 113.946 15.5944L111.752 23.1209C111.685 23.3495 111.573 23.5124 111.414 23.6097C111.27 23.6985 111.09 23.7113 110.874 23.6482C110.657 23.5851 110.506 23.4758 110.421 23.3204C110.351 23.1565 110.35 22.9602 110.416 22.7316L112.399 15.9271L112.851 16.0586L105.524 21.5798C105.404 21.6756 105.264 21.7523 105.104 21.81C104.956 21.8712 104.773 21.8702 104.557 21.8071Z" fill="#818888"/>
<path d="M115.874 25.6957C115.304 25.4344 114.841 25.0911 114.485 24.6657C114.145 24.2341 113.933 23.7645 113.849 23.257C113.764 22.7495 113.832 22.2565 114.051 21.778C114.333 21.1628 114.709 20.7492 115.179 20.5371C115.66 20.3302 116.293 20.3173 117.078 20.4983C117.876 20.6846 118.901 21.065 120.154 21.6397L120.923 21.9924L120.507 22.8981L119.756 22.5533C118.833 22.1301 118.083 21.8413 117.505 21.6869C116.945 21.5263 116.509 21.4989 116.199 21.6047C115.9 21.7157 115.664 21.9592 115.492 22.3352C115.277 22.8023 115.262 23.2571 115.445 23.6996C115.64 24.1473 116.016 24.4991 116.574 24.7551C117.03 24.9641 117.478 25.0387 117.919 24.979C118.372 24.9245 118.781 24.7537 119.147 24.4665C119.524 24.1846 119.826 23.7987 120.05 23.3089L120.944 21.3607C121.268 20.6544 121.358 20.0821 121.214 19.6439C121.075 19.1943 120.681 18.8206 120.032 18.5228C119.633 18.34 119.211 18.2084 118.765 18.1281C118.319 18.0477 117.822 18.0196 117.273 18.0437C117.077 18.0503 116.928 18.0161 116.824 17.9411C116.726 17.8547 116.663 17.7502 116.637 17.6277C116.61 17.5052 116.617 17.3844 116.658 17.2653C116.704 17.1347 116.782 17.0256 116.891 16.9377C117.012 16.8552 117.156 16.8111 117.324 16.8054C117.94 16.7846 118.52 16.8296 119.062 16.9403C119.604 17.0511 120.097 17.2083 120.541 17.4121C121.259 17.7412 121.797 18.1325 122.154 18.5859C122.517 19.028 122.702 19.5405 122.711 20.1235C122.724 20.6951 122.561 21.3511 122.222 22.0916L120.098 26.7227C119.993 26.9505 119.855 27.101 119.684 27.1741C119.524 27.2524 119.342 27.2445 119.137 27.1505C118.92 27.0512 118.784 26.9128 118.727 26.7352C118.671 26.5577 118.695 26.3549 118.799 26.1271L119.41 24.7942L119.564 24.8647C119.275 25.2558 118.928 25.5451 118.525 25.7325C118.133 25.9252 117.71 26.0208 117.256 26.0192C116.802 26.0177 116.341 25.9099 115.874 25.6957Z" fill="#818888"/>
<path d="M128.649 32.8706C128.45 32.7399 128.331 32.579 128.291 32.3881C128.262 32.2041 128.317 32.0073 128.454 31.7978L132.439 25.7331L129.36 23.7096L128.72 24.6837C128.183 25.5007 127.666 26.196 127.169 26.7694C126.69 27.3392 126.218 27.7942 125.755 28.1345C125.291 28.4748 124.818 28.7039 124.336 28.8218C123.864 28.9467 123.355 28.9796 122.809 28.9207C122.631 28.894 122.49 28.8237 122.385 28.7097C122.273 28.6062 122.199 28.4902 122.164 28.3618C122.146 28.2299 122.159 28.0959 122.203 27.9601C122.258 27.8311 122.349 27.7262 122.477 27.6454C122.605 27.5646 122.761 27.5323 122.946 27.5484C123.36 27.5804 123.743 27.5327 124.097 27.4051C124.461 27.2845 124.825 27.0735 125.188 26.7722C125.551 26.4708 125.919 26.0825 126.291 25.6072C126.68 25.1284 127.102 24.5433 127.557 23.852L128.362 22.6265C128.52 22.3856 128.7 22.2488 128.901 22.2162C129.11 22.173 129.329 22.2272 129.559 22.3786L133.66 25.0731C133.891 25.2245 134.027 25.4044 134.071 25.6127C134.121 25.8105 134.066 26.0298 133.908 26.2708L129.727 32.634C129.589 32.8435 129.425 32.968 129.234 33.0075C129.054 33.0539 128.859 33.0083 128.649 32.8706Z" fill="#818888"/>
<path d="M131.56 35.0701C131.457 34.9785 131.384 34.8717 131.341 34.7499C131.3 34.6458 131.297 34.5261 131.334 34.3908C131.38 34.2639 131.465 34.1302 131.59 33.9898L136.79 28.1476C136.956 27.9603 137.128 27.8616 137.305 27.8513C137.482 27.841 137.65 27.9066 137.809 28.0483C137.978 28.1983 138.062 28.3576 138.063 28.5262C138.074 28.7031 137.995 28.8852 137.829 29.0725L133.129 34.3529L132.778 34.0404L141.739 32.2005C141.906 32.1642 142.07 32.1591 142.231 32.1852C142.401 32.2019 142.565 32.2811 142.724 32.4228C142.837 32.5228 142.914 32.6248 142.955 32.7289C142.997 32.8331 142.995 32.9486 142.949 33.0755C142.921 33.2015 142.84 33.3393 142.707 33.4891L137.495 39.3453C137.336 39.5232 137.165 39.622 136.979 39.6417C136.812 39.6603 136.644 39.5946 136.475 39.4446C136.307 39.2947 136.217 39.1312 136.207 38.9542C136.214 38.7763 136.297 38.5983 136.455 38.4204L141.167 33.126L141.518 33.4384L132.531 35.2799C132.382 35.3152 132.223 35.3245 132.053 35.3077C131.893 35.2993 131.728 35.2201 131.56 35.0701Z" fill="#818888"/>
<path d="M141.106 44.6069C140.51 43.9125 140.148 43.1827 140.02 42.4174C139.892 41.6521 139.981 40.8989 140.286 40.1579C140.61 39.4182 141.133 38.7383 141.856 38.1181C142.407 37.6447 142.967 37.2965 143.535 37.0733C144.104 36.8501 144.666 36.7553 145.224 36.7891C145.791 36.8147 146.33 36.9626 146.843 37.2329C147.364 37.5127 147.849 37.9142 148.297 38.4374C148.591 38.7798 148.845 39.1814 149.059 39.6422C149.272 40.1029 149.381 40.5957 149.385 41.1204C149.4 41.2727 149.373 41.4039 149.302 41.514C149.231 41.6242 149.136 41.7058 149.017 41.7588C148.907 41.8038 148.79 41.8215 148.666 41.812C148.552 41.7944 148.445 41.7373 148.346 41.6409C148.255 41.5539 148.202 41.4255 148.189 41.2555C148.167 40.845 148.083 40.4787 147.939 40.1565C147.795 39.8344 147.621 39.5545 147.417 39.3167C147.099 38.9457 146.759 38.6753 146.399 38.5055C146.048 38.3276 145.682 38.2373 145.3 38.2348C144.918 38.2322 144.52 38.3174 144.107 38.4902C143.702 38.6726 143.285 38.9474 142.857 39.3146C142.03 40.0246 141.541 40.7827 141.39 41.5889C141.249 42.3869 141.489 43.1474 142.109 43.8704C142.313 44.1082 142.559 44.3181 142.847 44.5001C143.144 44.6917 143.497 44.8343 143.908 44.9279C144.074 44.9672 144.193 45.0386 144.265 45.1418C144.337 45.2451 144.368 45.3586 144.359 45.4823C144.359 45.5979 144.319 45.706 144.241 45.8066C144.17 45.9168 144.075 45.9984 143.955 46.0514C143.845 46.0964 143.716 46.0998 143.568 46.0618C143.059 45.9696 142.593 45.7917 142.169 45.5282C141.754 45.2565 141.4 44.9494 141.106 44.6069Z" fill="#818888"/>
<path d="M145.367 50.2169C145.235 50.0189 145.188 49.8242 145.226 49.633C145.264 49.4418 145.387 49.2766 145.596 49.1374L151.631 45.1081L150.107 42.8253C149.842 42.4292 149.882 42.1163 150.226 41.8867C150.383 41.7823 150.537 41.7544 150.69 41.803C150.854 41.8446 150.998 41.9592 151.123 42.1468L155.027 47.9946C155.285 48.3802 155.247 48.6844 154.913 48.9071C154.746 49.0185 154.581 49.0533 154.418 49.0117C154.272 48.9736 154.136 48.8607 154.011 48.6731L152.476 46.3746L146.441 50.4039C146.233 50.5431 146.036 50.5989 145.852 50.5712C145.675 50.5539 145.513 50.4358 145.367 50.2169Z" fill="#818888"/>
<path d="M149.929 58.1397C149.537 57.3408 149.372 56.5632 149.434 55.807C149.496 55.0507 149.762 54.3549 150.232 53.7195C150.719 53.0899 151.396 52.5625 152.262 52.1376C152.915 51.8175 153.544 51.6205 154.15 51.5467C154.767 51.4673 155.347 51.511 155.889 51.6777C156.432 51.8444 156.914 52.1172 157.338 52.496C157.777 52.8805 158.144 53.371 158.436 53.9674C158.828 54.7663 158.993 55.5439 158.931 56.3002C158.869 57.0564 158.595 57.7493 158.108 58.379C157.638 59.0144 156.97 59.5446 156.103 59.9695C155.451 60.2896 154.821 60.4866 154.215 60.5604C153.609 60.6343 153.03 60.5906 152.476 60.4294C151.933 60.2627 151.442 59.987 151.002 59.6025C150.579 59.2237 150.222 58.7361 149.929 58.1397ZM151.026 57.6016C151.275 58.108 151.616 58.4918 152.052 58.753C152.487 59.0141 152.99 59.1301 153.562 59.1009C154.14 59.0829 154.76 58.9111 155.424 58.5854C156.448 58.0832 157.117 57.469 157.431 56.7427C157.751 56.0277 157.72 55.2819 157.339 54.5055C157.085 53.9879 156.741 53.5985 156.305 53.3373C155.887 53.0818 155.389 52.9631 154.811 52.9811C154.251 53.0048 153.627 53.185 152.941 53.5217C151.928 54.0184 151.259 54.6326 150.934 55.3644C150.62 56.0907 150.651 56.8364 151.026 57.6016Z" fill="#818888"/>
<path d="M153 64.6508C152.924 64.4118 152.931 64.2058 153.021 64.0327C153.111 63.8597 153.275 63.7354 153.514 63.6598L160.72 61.3812C160.959 61.3056 161.165 61.3128 161.338 61.4027C161.511 61.4926 161.636 61.657 161.711 61.896L162.816 65.3914C163.036 66.0845 163.125 66.6805 163.086 67.1793C163.059 67.6744 162.906 68.0842 162.627 68.4089C162.36 68.7298 161.976 68.9697 161.474 69.1284C160.925 69.3022 160.396 69.2524 159.889 68.979C159.386 68.7175 159 68.2874 158.732 67.6886L158.965 67.615C159.175 68.3634 159.149 69.0091 158.887 69.5521C158.629 70.107 158.183 70.4846 157.55 70.6849C156.809 70.9191 156.136 70.8295 155.532 70.4158C154.928 70.0021 154.468 69.2934 154.15 68.2896L153 64.6508ZM154.184 64.9664L155.119 67.924C155.304 68.5096 155.571 68.918 155.921 69.1494C156.286 69.3889 156.707 69.4331 157.185 69.2819C157.663 69.1308 157.976 68.8542 158.125 68.4522C158.278 68.0621 158.262 67.5743 158.077 66.9888L157.141 64.0311L154.184 64.9664ZM158.127 63.7194L159.012 66.5157C159.182 67.0535 159.439 67.432 159.785 67.6514C160.134 67.8828 160.53 67.9285 160.972 67.7887C161.414 67.6489 161.705 67.3859 161.846 66.9996C161.991 66.6253 161.978 66.1692 161.808 65.6315L160.924 62.8351L158.127 63.7194Z" fill="#818888"/>
<path d="M160.443 78.4988C160.402 78.1881 160.462 77.9273 160.624 77.7164C160.799 77.5038 161.035 77.3779 161.333 77.3386C161.631 77.2993 161.886 77.3606 162.097 77.5224C162.32 77.6826 162.452 77.918 162.493 78.2287C162.534 78.5393 162.467 78.7947 162.291 78.9949C162.129 79.2058 161.899 79.3309 161.601 79.3702C161.302 79.4095 161.042 79.3491 160.818 79.1889C160.609 79.0395 160.484 78.8094 160.443 78.4988Z" fill="#818888"/>
</svg>
