<svg width="52" height="57" viewBox="0 0 52 57" fill="none" xmlns="http://www.w3.org/2000/svg">
<path fill-rule="evenodd" clip-rule="evenodd" d="M18.7397 20.0142C21.2094 20.0142 21.4848 18.3737 22.2653 13.7239L22.2654 13.7235L22.2655 13.7226C22.343 13.2612 22.4254 12.7701 22.5154 12.2481C22.9162 9.88983 24.1589 5.91822 25.0666 3.01732C25.6461 1.16507 26.0891 -0.250664 26.0891 -0.531156C26.0891 -2.33692 8.14507 3.96432 8.14507 3.96432L-1.66669 18.8903C-1.66669 18.8903 4.20521 18.7767 9.66039 19.0166C12.5883 19.0166 14.4028 19.3656 15.8854 19.6507C16.9094 19.8477 17.7751 20.0142 18.7397 20.0142ZM18.4103 39.7523C27.3254 39.7523 31.3537 34.9159 31.3537 33.5142C31.3537 32.5405 30.823 31.5975 30.107 30.3252C28.6222 27.6869 26.3405 23.6325 26.3405 14.9514C26.3405 6.83181 27.951 0.667855 28.4056 0.667855C29.1885 0.667855 30.0909 1.40188 30.0909 3.0056C30.0909 3.728 30.0091 4.75033 29.9364 5.65938L29.9364 5.65955C29.8782 6.38716 29.8257 7.04217 29.8257 7.41269C29.8257 16.6562 34.6622 17.3128 36.1775 17.3128C40.0312 17.3128 43.7689 13.9756 46.5211 11.5183C48.1248 10.0864 49.394 8.95327 50.1564 8.95327C50.9267 8.95327 51.356 9.31948 51.356 10.1782C51.356 11.2609 49.5508 13.4298 47.3849 16.0322C46.1909 17.4667 44.8874 19.0328 43.7163 20.6213C42.9907 21.6116 42.4815 22.6365 42.0009 23.6038C40.7165 26.1888 39.6367 28.3621 35.1799 28.3621C32.2124 28.3621 30.8107 27.9328 30.8107 27.9328C30.8107 27.9328 31.2148 29.5491 34.1823 29.5491C37.3847 29.5491 39.2247 28.9258 39.8145 28.726C39.927 28.6879 39.9941 28.6652 40.0163 28.6652C40.7543 28.6652 41.1647 30.8788 41.6322 33.4001L41.6322 33.4001C41.9326 35.0203 42.2565 36.7676 42.706 38.136C43.73 41.2616 44.8495 44.3366 45.7467 46.8014L45.7468 46.8016L45.7468 46.8017L45.7469 46.8018C46.7527 49.5648 47.4793 51.5608 47.4793 52.0013C47.4793 52.5695 47.0247 53.6807 45.7114 53.6807C44.1551 53.6807 42.4326 49.7902 40.6725 45.8147C38.8338 41.6618 36.9541 37.4162 35.1799 37.4162C33.1696 37.4162 32.6436 42.5183 32.1462 47.3434C31.7 51.6716 31.2767 55.7769 29.8257 55.7769H28.6135C28.6135 55.2811 28.6875 54.2367 28.7827 52.8934C28.9542 50.4734 29.1944 47.0836 29.1944 44.1847C29.1944 41.9369 28.9039 38.9189 27.9821 38.9189C27.3381 38.9189 24.4084 39.1336 24.4084 42.7956C24.4084 44.955 26.2268 56.623 26.2268 56.623C26.2268 56.623 17.4 55.7643 17.4 55.0951C17.4 54.8799 17.8139 53.7496 18.3754 52.2158C19.5603 48.9793 21.403 43.9463 21.403 41.9243C21.403 40.6363 20.2287 40.5731 19.471 40.5731C16.9581 40.5731 16.7539 41.6382 15.9524 45.819C15.606 47.6257 15.1481 50.0144 14.3441 53.1504C7.62616 54.893 -9.53495 31.8347 -2.72859 25.9628C-1.5091 24.9112 -1.98253 23.958 -2.36545 23.1871C-2.96191 21.9862 -3.33877 21.2274 3.24433 21.2274C14.2684 21.2274 15.1776 25.2052 15.1776 28.9304C15.1776 31.4194 14.8701 33.6313 14.6437 35.2602L14.6437 35.2603C14.5117 36.2098 14.4073 36.9612 14.4073 37.4541C14.4073 38.8053 14.4704 39.7523 18.4103 39.7523ZM40.9131 10.6959C40.9131 7.38745 38.8674 6.12468 36.9985 6.12468C34.0563 6.12468 32.1369 9.05432 32.1369 11.3273C32.1369 13.6003 33.6774 15.9364 36.102 15.9364C38.5265 15.9364 40.9131 14.0044 40.9131 10.6959ZM16.2765 18.0314C12.867 18.0314 12.0714 13.8011 12.0714 13.8011C12.0714 16.4656 13.3216 18.044 13.3342 18.0314C10.6697 18.0314 10.4551 17.2864 10.4551 17.2864C10.4551 17.2864 10.7076 15.4175 10.7076 13.8011C10.7076 9.57082 12.2861 7.47461 15.14 7.47461C16.6443 7.47461 17.5462 7.80402 18.451 8.13446C19.3614 8.46697 20.2747 8.80052 21.8074 8.80052C21.8074 12.5131 20.9614 13.5864 20.9487 13.5359C20.9487 12.5131 19.1935 9.40666 17.5014 9.40666C17.5014 9.40666 20.0648 11.1619 20.0648 14.041C20.0648 15.9099 19.0798 18.0314 16.2765 18.0314Z" fill="#0EB80E"/>
</svg>
