<svg width="929" height="386" viewBox="0 0 929 386" fill="none" xmlns="http://www.w3.org/2000/svg">
<g opacity="0.1">
<path d="M182.987 280.557C193.084 279.772 231.503 277.611 246.891 276.404" stroke="black" stroke-linecap="round" stroke-linejoin="round"/>
<path d="M184.626 279.219L241.975 275.269" stroke="black" stroke-linecap="round" stroke-linejoin="round"/>
<path d="M193.171 263.922C193.171 263.922 193.662 263.267 197.923 262.12C202.183 260.809 209.065 262.775 209.065 262.775L249.701 274.736C249.701 274.736 234.134 271.132 227.089 271.951C220.043 272.934 212.669 277.194 212.669 277.194M193.171 263.922L212.669 277.194M193.171 263.922C193.171 263.922 188.112 262.17 179.874 262.178M212.669 277.194C212.669 277.194 192.982 273.983 187.903 274.802C182.987 275.622 179.874 282.012 179.874 282.012L167.421 272.722" stroke="black" stroke-linecap="round" stroke-linejoin="round"/>
<path d="M83.4731 214.762C82.9531 213.028 82.7798 211.122 82.7798 209.216V201.936C82.7798 201.218 82.8157 200.508 82.8856 199.809M83.4731 214.762C84.8197 219.667 87.9279 223.879 92.0866 226.656M83.4731 214.762H299.428M94.5653 128.624H84.8596C81.9133 128.624 79.6602 131.05 79.6602 133.823V195.004C79.6602 197.217 81.0291 199.039 82.8856 199.809M94.5653 128.624H104.618C107.391 128.624 109.817 130.877 109.817 133.823V180.965M94.5653 128.624V77.3227C94.5653 67.7904 102.191 60.1646 111.723 60.1646H271.177C280.71 60.1646 288.336 67.7904 288.336 77.3227V128.624M92.0866 226.656L95.4318 250.984C95.7785 253.584 98.0316 255.491 100.631 255.491H101.671C104.444 255.491 106.697 253.238 106.871 250.465L107.775 230.187M92.0866 226.656C95.4214 228.882 99.4317 230.187 103.751 230.187H107.775M107.775 230.187H275.126M109.817 180.965V195.004C109.644 197.95 107.391 200.203 104.444 200.203H95.2015H84.8596C84.1695 200.203 83.5008 200.064 82.8856 199.809M109.817 180.965H273.084M299.428 214.762C299.948 213.028 300.121 211.122 300.121 209.216V201.936C300.121 201.218 300.085 200.508 300.015 199.809M299.428 214.762C298.081 219.667 294.973 223.879 290.814 226.656M288.336 128.624H298.041C300.988 128.624 303.241 131.05 303.241 133.823V195.004C303.241 197.217 301.872 199.039 300.015 199.809M288.336 128.624H278.283C275.51 128.624 273.084 130.877 273.084 133.823V180.965M290.814 226.656L287.469 250.984C287.122 253.584 284.869 255.491 282.27 255.491H281.23C278.457 255.491 276.204 253.238 276.03 250.465L275.126 230.187M290.814 226.656C287.48 228.882 283.469 230.187 279.15 230.187H275.126M273.084 180.965V195.004C273.257 197.95 275.51 200.203 278.457 200.203H287.699H298.041C298.731 200.203 299.4 200.064 300.015 199.809" stroke="black" stroke-linecap="round" stroke-linejoin="round"/>
<path d="M78.1211 277.796C95.803 278.027 143.848 277.519 153.494 277.633" stroke="black" stroke-linecap="round" stroke-linejoin="round"/>
<path d="M81.3965 276.046H151.854" stroke="black" stroke-linecap="round" stroke-linejoin="round"/>
<path d="M139.427 259.17C139.427 259.17 138.935 258.514 133.856 257.367C128.776 256.22 121.239 259.006 121.239 259.006L75.5234 276.047C75.5234 276.047 93.0559 270.639 101.249 271.131C109.441 271.623 118.289 276.047 118.289 276.047M139.427 259.17L118.289 276.047M139.427 259.17C139.427 259.17 148.439 255.893 160.728 255.893C171.214 255.893 179.571 259.497 179.571 259.497L157.123 278.832C157.123 278.832 153.19 271.786 147.292 271.131C141.557 270.639 118.289 276.047 118.289 276.047" stroke="black" stroke-linecap="round" stroke-linejoin="round"/>
<path d="M873.373 94.992C860.06 121.619 838.553 137.663 824.557 130.836C810.902 124.008 810.561 97.0402 823.874 70.4134C836.846 43.7866 858.694 27.7422 872.349 34.5696C886.004 41.0556 886.345 68.3652 873.373 94.992Z" stroke="black"/>
<path d="M756.5 150.788C760.508 149.242 763.615 146.805 765.499 143.466C773.009 130.153 752.53 105.22 732.386 92.9436C715.48 82.641 692.258 82.3728 682.5 83.9156" stroke="black"/>
<path d="M885.649 167.946C909.287 150.13 920.999 125.8 911.807 113.605C902.615 101.409 876.001 105.966 852.363 123.782C828.725 141.598 817.013 165.927 826.205 178.123C835.397 190.318 862.011 185.762 885.649 167.946Z" stroke="black"/>
<path d="M787.686 203.547C785.148 200.522 782.675 197.823 780.211 195.416" stroke="black" stroke-linecap="round" stroke-linejoin="round"/>
<path d="M792.807 203.547C782.438 168.515 768.534 149.756 727.947 118.205" stroke="black" stroke-linecap="round" stroke-linejoin="round"/>
<path d="M797.927 203.547C806.608 151.039 821.193 122.016 850.839 70.4131" stroke="black" stroke-linecap="round" stroke-linejoin="round"/>
<path d="M881.563 133.566C841.094 152.879 821.573 166.296 803.048 203.547" stroke="black" stroke-linecap="round" stroke-linejoin="round"/>
<path d="M805.779 204.912H845.719C849.474 204.912 852.546 207.984 852.205 211.398L842.988 300.495C842.305 303.568 839.574 305.957 836.16 305.957H805.608" stroke="black"/>
<path d="M754.915 300.495C755.256 303.568 757.987 305.957 761.401 305.957H822.506C825.919 305.957 828.65 303.568 829.333 300.495L838.55 211.398C838.891 207.984 835.819 204.912 832.064 204.912H783" stroke="black"/>
<path d="M390.613 210.916H413.307M481.387 210.916H458.693M413.307 210.916H436H458.693M413.307 210.916L371 273.916M458.693 210.916L501 273.916" stroke="black" stroke-linecap="round" stroke-linejoin="round"/>
<path d="M61.7426 197.432H2.55273V257.617H61.7426V197.432Z" stroke="black" stroke-miterlimit="10"/>
<path d="M54.1002 203.104H10.1709V229.342H54.1002V203.104Z" stroke="black" stroke-miterlimit="10"/>
<path d="M46.6186 224.409H17.6025V229.342H46.6186V224.409Z" stroke="black" stroke-miterlimit="10"/>
<path d="M42.9604 217.253H13.9443V224.432H42.9604V217.253Z" stroke="black" stroke-miterlimit="10"/>
<path d="M49.3305 210.075H20.3145V217.254H49.3305V210.075Z" stroke="black" stroke-miterlimit="10"/>
<path d="M22.9658 210.576H23.9573V216.754H22.9658V210.576Z" stroke="black"/>
<path d="M16.1357 217.753H17.1273V223.932H16.1357V217.753Z" stroke="black"/>
<path d="M21.3945 224.909H22.3861V228.841H21.3945V224.909Z" stroke="black"/>
<path d="M42.4844 224.91H43.4759V228.843H42.4844V224.91Z" stroke="black"/>
<path d="M38.9258 217.754H39.9173V223.933H38.9258V217.754Z" stroke="black"/>
<path d="M46.1494 210.575H47.1409V216.754H46.1494V210.575Z" stroke="black"/>
<path d="M63.5245 193.471H1V197.408H63.5245V193.471Z" stroke="black" stroke-miterlimit="10"/>
<path d="M56.7694 166.172C57.2292 158.778 59.4337 134.386 66.7664 146.601C66.7664 146.601 65.8401 133.702 60.8381 136.203C59.295 136.975 57.8379 139.073 56.5449 141.62" stroke="black"/>
<path d="M53.2802 166.047C53.2802 166.047 54.6697 129.852 60.9453 116.49C60.9453 116.49 51.0099 125.381 47.2852 140.754" stroke="black"/>
<path d="M52.126 165.884C52.1592 165.393 52.1851 164.885 52.1994 164.363C52.2457 162.927 52.1067 161.491 51.852 159.847C51.5973 158.296 51.412 156.652 51.111 155.193C45.5995 129.164 28.9727 119.229 28.9727 119.229C32.5358 125.206 35.0239 134.122 36.7416 142.92" stroke="black"/>
<path d="M33.4956 166.438C32.6992 160.054 31.259 150.443 29.737 149.751C27.4445 148.732 22.2109 164.41 22.2109 164.41C22.2109 164.41 23.1372 141.762 27.7687 138.103C29.8528 136.459 32.5391 138.752 34.8316 141.785C38.0042 145.977 39.9957 150.956 40.6441 156.189L41.8169 165.745" stroke="black"/>
<mask id="path-34-inside-1_4032_1866" fill="white">
<path d="M41.2683 131.618C44.7419 136.528 47.4513 141.923 49.327 147.643C51.2152 153.42 52.228 159.529 52.3655 165.884H52.0852C51.7266 150.224 46.0053 138.823 41.0367 131.804C35.1407 123.48 28.9908 119.381 28.9027 119.322L28.9023 119.322L29.0644 119.09C29.1107 119.113 35.34 123.259 41.2683 131.618Z"/>
</mask>
<path d="M49.327 147.643L50.2775 147.333L50.2772 147.332L49.327 147.643ZM41.2683 131.618L42.0846 131.041L42.084 131.04L41.2683 131.618ZM29.0644 119.09L29.5116 118.196L28.7399 117.81L28.2452 118.517L29.0644 119.09ZM28.9023 119.322L28.0831 118.748L27.4964 119.587L28.3477 120.154L28.9023 119.322ZM28.9027 119.322L28.3481 120.154L28.3481 120.154L28.9027 119.322ZM41.0367 131.804L41.8529 131.226L41.8527 131.226L41.0367 131.804ZM52.0852 165.884L51.0855 165.907L51.1079 166.884H52.0852V165.884ZM52.3655 165.884V166.884H53.3874L53.3653 165.862L52.3655 165.884ZM50.2772 147.332C48.3706 141.518 45.6163 136.032 42.0846 131.041L40.452 132.196C43.8675 137.023 46.532 142.329 48.3768 147.955L50.2772 147.332ZM42.084 131.04C39.0701 126.79 35.979 123.61 33.6314 121.487C32.4573 120.424 31.4677 119.625 30.7647 119.088C30.4132 118.819 30.1329 118.615 29.9367 118.476C29.8386 118.407 29.761 118.353 29.7055 118.316C29.678 118.297 29.6549 118.281 29.6368 118.269C29.628 118.264 29.6185 118.258 29.6094 118.252C29.6051 118.249 29.5982 118.245 29.5901 118.24C29.5862 118.237 29.5793 118.233 29.5707 118.228C29.5671 118.226 29.5431 118.212 29.5116 118.196L28.6172 119.985C28.5862 119.969 28.5627 119.955 28.5599 119.954C28.552 119.949 28.546 119.945 28.5432 119.944C28.5373 119.94 28.5333 119.938 28.5328 119.937C28.5311 119.936 28.5321 119.937 28.5366 119.94C28.5452 119.945 28.5604 119.955 28.5824 119.97C28.6262 120 28.693 120.046 28.7813 120.109C28.9577 120.234 29.218 120.423 29.5497 120.676C30.2129 121.184 31.1599 121.948 32.2898 122.97C34.5505 125.015 37.5382 128.087 40.4526 132.197L42.084 131.04ZM28.2452 118.517L28.0831 118.748L29.7216 119.895L29.8837 119.664L28.2452 118.517ZM28.3477 120.154L28.3481 120.154L29.4573 118.49L29.457 118.49L28.3477 120.154ZM28.3481 120.154C28.3769 120.173 34.4201 124.193 40.2207 132.382L41.8527 131.226C35.8613 122.767 29.6047 118.588 29.4573 118.49L28.3481 120.154ZM40.2205 132.381C45.1027 139.279 50.7325 150.491 51.0855 165.907L53.085 165.861C52.7208 149.958 46.9078 138.367 41.8529 131.226L40.2205 132.381ZM53.3653 165.862C53.2258 159.414 52.1978 153.208 50.2775 147.333L48.3765 147.954C50.2325 153.632 51.2303 159.643 51.3657 165.906L53.3653 165.862ZM52.0852 166.884H52.3655V164.884H52.0852V166.884Z" fill="black" mask="url(#path-34-inside-1_4032_1866)"/>
<mask id="path-36-inside-2_4032_1866" fill="white">
<path d="M61.2774 119.923C58.0354 126.801 56.1365 139.885 55.0944 149.657C54.3816 156.32 53.9795 162.379 53.779 165.987H53.5059C53.7107 162.382 54.1168 156.311 54.8165 149.634C55.8354 139.839 57.7575 126.708 61.0227 119.808L61.2774 119.923Z"/>
</mask>
<path d="M55.0944 149.657L56.0888 149.764L56.0888 149.763L55.0944 149.657ZM61.2774 119.923L62.1819 120.35L62.6143 119.433L61.6912 119.013L61.2774 119.923ZM61.0227 119.808L61.4365 118.897L60.5399 118.49L60.1187 119.38L61.0227 119.808ZM54.8165 149.634L55.8111 149.738L55.8112 149.738L54.8165 149.634ZM53.5059 165.987L52.5075 165.931L52.4474 166.987H53.5059V165.987ZM53.779 165.987V166.987H54.725L54.7775 166.043L53.779 165.987ZM56.0888 149.763C56.6084 144.891 57.3402 139.206 58.3436 133.89C59.3507 128.555 60.6176 123.668 62.1819 120.35L60.3729 119.497C58.6951 123.056 57.3916 128.151 56.3783 133.519C55.3612 138.908 54.6226 144.651 54.1001 149.551L56.0888 149.763ZM61.6912 119.013L61.4365 118.897L60.6089 120.718L60.8636 120.834L61.6912 119.013ZM60.1187 119.38C58.4292 122.951 57.114 128.063 56.0947 133.449C55.0716 138.856 54.333 144.617 53.8219 149.531L55.8112 149.738C56.319 144.855 57.0508 139.154 58.0598 133.821C59.0726 128.469 60.351 123.565 61.9266 120.235L60.1187 119.38ZM53.822 149.53C53.12 156.228 52.7129 162.316 52.5075 165.931L54.5042 166.044C54.7085 162.449 55.1135 156.394 55.8111 149.738L53.822 149.53ZM54.7775 166.043C54.9774 162.445 55.3783 156.404 56.0888 149.764L54.1001 149.551C53.3849 156.236 52.9816 162.313 52.7806 165.932L54.7775 166.043ZM53.5059 166.987H53.779V164.987H53.5059V166.987Z" fill="black" mask="url(#path-36-inside-2_4032_1866)"/>
<path d="M59.6111 167.281C59.6111 167.281 59.1248 194.074 51.9461 193.448H46.2957H45.3926H39.7422C32.5634 194.074 32.0771 167.281 32.0771 167.281C38.8622 166.262 52.8029 166.262 59.6111 167.281Z" stroke="black" stroke-miterlimit="10"/>
<path d="M21.2387 189.535C25.1291 189.535 28.3249 186.362 28.3249 182.472C28.3249 178.581 25.1523 175.409 21.2387 175.409M21.2387 189.535V175.409M21.2387 189.535C21.2387 190.252 21.2387 190.97 21.2387 191.688H8.84992L8.84961 173.186H21.2387V175.409" stroke="black"/>
<path d="M3.42985 193.455H29.8291V191.695H3.42985V193.455Z" stroke="black" stroke-miterlimit="10"/>
<path d="M371.289 100.527V66.5254" stroke="black" stroke-linecap="round" stroke-linejoin="round"/>
<path d="M351.473 250.444V66.2651" stroke="black" stroke-linecap="round" stroke-linejoin="round"/>
<path d="M373.549 15.1631H351.797H330.016L316.425 66.3873H351.797H387.141L373.549 15.1631Z" stroke="black" stroke-miterlimit="10" stroke-linecap="round" stroke-linejoin="round"/>
<path d="M351.767 250.765H334.037C331.63 250.765 329.663 252.731 329.663 255.139H351.767H373.871C373.871 252.731 371.905 250.765 369.498 250.765H351.767Z" stroke="black" stroke-miterlimit="10" stroke-linecap="round" stroke-linejoin="round"/>
<path d="M371.434 110.037H371.288C370.642 110.037 370.084 109.509 370.084 108.834V100.703C370.084 100.057 370.612 99.499 371.288 99.499H371.434C372.08 99.499 372.638 100.027 372.638 100.703V108.834C372.638 109.509 372.109 110.037 371.434 110.037Z" fill="black" stroke="black" stroke-linecap="round" stroke-linejoin="round"/>
<path d="M336.212 15.1045L326.172 66.3287" stroke="black" stroke-linecap="round" stroke-linejoin="round"/>
<path d="M345.984 15.1631L345.279 66.3873" stroke="black" stroke-linecap="round" stroke-linejoin="round"/>
<path d="M360.751 66.358L358.755 15.1631" stroke="black" stroke-linecap="round" stroke-linejoin="round"/>
<path d="M377.219 66.0934L366.71 15.104" stroke="black" stroke-linecap="round" stroke-linejoin="round"/>
<path d="M536.65 15.9976H462.768V113.898H536.65V15.9976Z" stroke="black" stroke-miterlimit="10"/>
<path d="M529.9 23.3076H469.519V106.588H529.9V23.3076Z" stroke="black" stroke-miterlimit="10"/>
<path d="M486.038 69.6662C481.301 64.333 478.318 58.03 477.646 51.839C476.975 45.5734 478.728 40.2029 482.644 36.7344C486.56 33.2659 492.08 32.1098 498.233 33.527C504.275 34.9069 510.243 38.5992 514.979 43.8951C524.825 54.9345 526.354 69.7408 518.373 76.8269C515.501 79.4003 511.772 80.5937 507.744 80.5937C500.546 80.5937 492.341 76.7523 486.038 69.6662Z" stroke="black" stroke-miterlimit="10"/>
<path d="M509.274 34.0102C504.09 38.7467 498.868 45.9447 494.542 54.2243C485.89 70.858 483.503 87.4917 489.321 90.5127C489.955 90.8483 490.663 90.9975 491.447 90.9975C497.787 90.9975 508.341 80.2564 516.062 65.4129C520.388 57.096 523.26 48.7046 524.192 41.7303C525.05 35.129 524.005 30.5417 521.283 29.1245C520.686 28.7888 519.978 28.6396 519.232 28.6396C516.584 28.6769 513.078 30.5417 509.274 34.0102Z" stroke="black" stroke-miterlimit="10"/>
<path d="M446.454 80.9976H397V155.141H446.454V80.9976Z" stroke="black" stroke-miterlimit="10"/>
<path d="M401.56 149.611H441.988V86.5444H401.56V149.611Z" stroke="black" stroke-miterlimit="10"/>
<path d="M418.07 118.405V92.5223L434.965 90.0981V120.83L418.07 118.405Z" stroke="black" stroke-miterlimit="10"/>
<path d="M415.76 139.962C412.366 137.202 409.494 132.95 407.629 127.99C405.765 123.03 405.131 117.92 405.839 113.631C406.585 109.193 408.674 106.098 411.732 104.942C414.79 103.785 418.408 104.718 421.914 107.552C425.307 110.312 428.179 114.564 430.044 119.524C431.909 124.484 432.543 129.594 431.834 133.883C431.088 138.321 429 141.416 425.941 142.573C425.084 142.908 424.189 143.057 423.256 143.057C420.869 143.057 418.296 142.013 415.76 139.962Z" stroke="black" stroke-miterlimit="10"/>
</g>
<path d="M673.56 347.566C734.076 329.924 778.269 282.664 779.866 223.926C781.484 167.368 756.874 149.698 737.352 145.008M517.121 306.609C514.021 296.816 513.48 286.185 514.587 275.457" stroke="black" stroke-miterlimit="10" stroke-linecap="round" stroke-linejoin="round"/>
<path d="M706.658 305.96C735.993 288.437 747.675 262.087 747.675 261.828" stroke="black" stroke-miterlimit="10" stroke-linecap="round" stroke-linejoin="round"/>
<path d="M714.827 248.515C725.337 249.13 732.024 250.733 732.229 253.132C732.619 257.805 709.644 263.516 680.828 266.112C663.95 267.556 648.854 267.576 639.164 266.431" stroke="black" stroke-linecap="round" stroke-linejoin="round"/>
<path d="M566.475 303.234H523.381C523.381 303.234 504.601 224.253 513.39 191.087" stroke="black" stroke-miterlimit="10" stroke-linecap="round" stroke-linejoin="round"/>
<path d="M722.338 216.398C723.284 229.452 721.183 244.287 708.215 249.108C683.553 258.323 632.282 258.583 632.282 258.583L655.387 299.34L581.011 321.406C581.011 321.406 531.147 231.421 548.303 191.578" stroke="black" stroke-miterlimit="10" stroke-linecap="round" stroke-linejoin="round"/>
<path d="M574.428 344.899L574.984 318.939M552.197 364.958C522.611 365.203 471.044 364.847 460.893 364.772C459.874 364.764 459.057 363.991 459.023 362.972C458.891 359.011 459.157 349.444 464.322 344.38C470.941 337.89 505.338 326.338 508.583 324.78C511.958 323.223 526.106 306.479 526.106 306.479L568.422 309.725" stroke="black" stroke-miterlimit="10" stroke-linecap="round" stroke-linejoin="round"/>
<path d="M598.307 318.651C597.966 318.749 597.702 319.021 597.612 319.364C596.697 322.834 591.608 341.484 587.372 343.602C582.699 345.938 562.71 358.529 551.807 369.951C546.957 375.078 547.285 379.022 548.644 381.585C550.088 384.306 553.434 385.008 556.516 385.008H606.244C611.776 385.008 617.165 383.243 621.626 379.97L663.592 349.174C666.669 346.916 667.723 342.798 666.107 339.339L649.908 304.657C649.7 304.211 649.198 303.983 648.725 304.12L598.307 318.651Z" stroke="black" stroke-miterlimit="10" stroke-linecap="round" stroke-linejoin="round"/>
<path d="M514.684 317.901C514.684 317.901 530.39 335.944 526.885 337.501C523.251 338.929 492.878 334.256 493.656 331.011C494.305 327.766 511.05 317.642 514.684 317.901Z" fill="#0EB80E"/>
<path d="M591.916 332.31C591.916 332.31 612.164 345.16 609.049 347.626C606.064 350.092 575.431 354.116 575.301 350.741C575.171 347.496 588.281 333.088 591.916 332.31Z" fill="#0EB80E"/>
<path d="M646.822 69.854L648.379 79.9784C648.379 79.9784 645.783 85.1704 635.269 87.8962C627.481 89.8432 624.366 88.8048 624.366 88.8048L624.236 80.4976V77.642" stroke="black" stroke-miterlimit="10" stroke-linecap="round" stroke-linejoin="round"/>
<path d="M611.386 42.0767C610.347 50.2541 609.958 61.4169 613.333 68.4261C619.304 80.4974 630.466 76.3439 636.956 72.5797C639.942 70.8923 642.019 68.9452 643.446 67.2578" stroke="black" stroke-miterlimit="10" stroke-linecap="round" stroke-linejoin="round"/>
<path d="M604.896 105.03C601.219 120.543 600.207 132.958 604.768 145.657" stroke="black" stroke-miterlimit="10" stroke-linecap="round" stroke-linejoin="round"/>
<path d="M630.726 41.1682C628.13 39.2214 625.534 39.2212 622.289 40.5192" stroke="black" stroke-linecap="round" stroke-linejoin="round"/>
<path d="M619.693 49.8604C618.281 53.6588 617.526 55.9044 619.693 59.9889" stroke="black" stroke-linecap="round" stroke-linejoin="round"/>
<path d="M632.024 59.3398C630.726 65.1808 626.832 67.1278 623.587 63.8828L632.024 59.3398Z" stroke="black" stroke-linecap="round" stroke-linejoin="round"/>
<path d="M616.448 40.5192C614.181 39.8319 613.373 40.1299 612.555 41.4237" stroke="black" stroke-linecap="round" stroke-linejoin="round"/>
<path d="M624.885 43.1147L628.13 45.0617V50.2537" stroke="black" stroke-linecap="round" stroke-linejoin="round"/>
<path d="M651.494 48.3066L647.9 53.4986M645.653 56.7436L647.9 53.4986M647.9 53.4986H652.792" stroke="black" stroke-linecap="round" stroke-linejoin="round"/>
<path d="M611.256 44.4131L614.501 46.3601V51.5521" stroke="black" stroke-linecap="round" stroke-linejoin="round"/>
<path d="M641.11 153.445C628.454 148.954 610.806 148.716 599.054 153.445C588.41 157.599 589.838 162.401 589.838 162.401M589.838 162.401C589.838 162.401 582.959 166.036 585.555 169.021C588.021 172.007 599.054 168.372 599.054 168.372M589.838 162.401C597.621 158.049 602.17 156.69 611.256 156.69M599.054 168.372C599.054 168.372 585.035 174.083 590.357 177.588C595.679 181.093 613.332 175.381 613.332 175.381C613.332 175.381 624.885 178.756 634.62 177.588M599.054 168.372C604.759 167.047 607.389 166.631 613.203 166.425" stroke="black" stroke-linecap="round" stroke-linejoin="round"/>
<mask id="mask0_4032_1866" style="mask-type:alpha" maskUnits="userSpaceOnUse" x="573" y="84" width="160" height="136">
<path d="M723.791 203.028C694.716 245.862 625.273 191.216 625.273 191.216L637.864 145.656C647.248 125.74 648.973 112.134 646.95 84.3486C663.117 85.9057 676.025 89.8423 676.025 89.8423C698.74 95.8131 752.866 160.194 723.791 203.028Z" fill="#0EB80E"/>
<path d="M604.505 89.4529C587.738 97.5172 578.485 129.501 573.846 152.925L609.957 143.06C609.301 120.324 611.051 107.743 616.447 85.4729C612.254 86.3727 608.222 87.6654 604.505 89.4529Z" fill="#0EB80E"/>
</mask>
<g mask="url(#mask0_4032_1866)">
<path d="M723.791 203.028C694.716 245.862 625.273 191.216 625.273 191.216L637.864 145.656C647.248 125.74 648.973 112.134 646.95 84.3486C663.117 85.9057 676.025 89.8423 676.025 89.8423C698.74 95.8131 752.866 160.194 723.791 203.028Z" fill="#0EB80E"/>
<path d="M604.505 89.4529C587.738 97.5172 578.485 129.501 573.846 152.925L609.957 143.06C609.301 120.324 611.051 107.743 616.447 85.4729C612.254 86.3727 608.222 87.6654 604.505 89.4529Z" fill="#0EB80E"/>
</g>
<path d="M630.466 188.62C630.466 188.62 699.909 243.266 728.985 200.432C758.06 157.598 703.933 93.2169 681.218 87.2461C681.218 87.2461 668.311 83.3095 652.144 81.7524C654.166 109.538 652.441 123.144 643.058 143.06M579.04 150.329C583.678 126.905 592.931 94.921 609.698 86.8567C613.415 85.0693 617.447 83.7765 621.641 82.8767C616.244 105.147 614.495 117.728 615.151 140.464" stroke="black" stroke-miterlimit="10" stroke-linecap="round" stroke-linejoin="round"/>
<path d="M621.38 241.579C620.731 241.579 620.082 241.709 619.433 242.098C618.395 242.618 617.875 243.396 617.875 244.305C617.875 248.329 626.961 255.078 632.283 258.453C630.985 254.04 627.481 243.916 622.938 241.839C622.418 241.709 621.899 241.579 621.38 241.579Z" stroke="black" stroke-miterlimit="10" stroke-linecap="round" stroke-linejoin="round"/>
<path d="M585.699 182.703H497.046L474.461 131.691C473.163 128.836 475.239 125.591 478.484 125.591H560.388L585.699 182.703Z" fill="#0EB80E"/>
<mask id="mask1_4032_1866" style="mask-type:alpha" maskUnits="userSpaceOnUse" x="507" y="141" width="34" height="28">
<path d="M507.623 147.358L511.27 167.578C511.27 167.578 522.294 168.136 526.978 168.136C534.424 168.136 540.464 162.102 540.464 154.65C540.464 147.198 534.424 141.17 526.978 141.17C519.532 141.17 507.623 147.358 507.623 147.358Z" fill="#24D124"/>
</mask>
<g mask="url(#mask1_4032_1866)">
<path d="M531.516 160.236C527.182 160.236 525.224 157.885 525.224 157.204C525.224 155.749 527.661 154.435 527.661 148.18C527.661 144.233 526.878 141.237 526.657 141.237C526.276 141.237 525.837 141.593 525.837 142.373C525.837 143.005 525.966 144.11 525.966 144.515C525.966 149.009 523.615 149.328 522.879 149.328C519.914 149.328 517.09 145.264 516.083 145.264C515.709 145.264 515.5 145.442 515.5 145.86C515.5 146.676 517.612 148.763 519.214 150.936C520.509 152.704 520.386 154.699 523.364 154.699C524.806 154.699 525.488 154.49 525.488 154.49C525.488 154.49 525.291 155.276 523.849 155.276C521.995 155.276 521.08 154.846 521.013 154.846C520.423 154.846 520.264 157.75 519.705 159.45C518.649 162.673 517.385 165.785 517.385 166.19C517.385 166.467 517.606 167.007 518.244 167.007C519.791 167.007 521.676 159.1 523.364 159.1C525.217 159.1 524.475 168.026 525.966 168.026C526.224 168.026 526.464 168.026 526.556 168.026C526.556 167.35 526.273 164.582 526.273 162.391C526.273 161.298 526.414 159.831 526.863 159.831C527.176 159.831 528.6 159.935 528.6 161.715C528.6 162.765 527.716 168.437 527.716 168.437C527.716 168.437 532.007 168.02 532.007 167.694C532.007 167.369 530.061 162.74 530.061 161.292C530.061 160.666 530.632 160.635 531 160.635C532.749 160.635 532.197 161.697 533.492 166.749C536.758 167.596 545.1 156.387 541.791 153.533C540.275 152.225 544.142 151.231 538.888 151.231C533.529 151.231 533.087 153.164 533.087 154.975C533.087 156.89 533.461 158.468 533.461 159.119C533.461 159.776 533.431 160.236 531.516 160.236Z" fill="white"/>
<path d="M531.355 150.641C530.036 150.641 530.005 149.677 529.52 146.866C529.201 144.987 527.783 141.004 527.783 140.654C527.783 139.776 536.506 142.839 536.506 142.839L541.275 150.095C541.275 150.095 538.421 150.039 535.769 150.156C533.363 150.156 532.503 150.641 531.355 150.641Z" fill="white"/>
<path d="M522.48 143.889C521.571 143.889 520.577 144.503 520.577 146.111C520.577 147.72 521.737 148.659 522.915 148.659C524.094 148.659 524.843 147.523 524.843 146.418C524.843 145.313 523.91 143.889 522.48 143.889Z" fill="white"/>
<path d="M534.597 147.621C534.597 147.621 534.21 149.677 532.553 149.677C531.19 149.677 530.711 148.646 530.711 147.737C530.711 146.338 531.958 145.485 531.958 145.485C531.135 145.485 530.282 146.995 530.282 147.492C530.276 147.516 529.864 146.995 529.864 145.19C531.35 145.19 531.638 144.545 533.105 144.545C534.493 144.545 535.26 145.564 535.26 147.621C535.26 148.407 535.383 149.315 535.383 149.315C535.383 149.315 535.278 149.677 533.983 149.677C533.989 149.683 534.597 148.916 534.597 147.621Z" fill="#0EB80E"/>
</g>
<path d="M582.699 180.703H494.046L471.461 129.691C470.163 126.836 472.239 123.591 475.484 123.591H557.388L582.699 180.703Z" stroke="black" stroke-linecap="round" stroke-linejoin="round"/>
<path d="M620.212 187.842H494.955C493.008 187.842 491.321 186.284 491.321 184.208C491.321 182.261 492.878 180.573 494.955 180.573H620.082C622.029 180.573 623.717 182.131 623.717 184.208C623.717 186.284 622.159 187.842 620.212 187.842Z" stroke="black" stroke-linecap="round" stroke-linejoin="round"/>
<path fill-rule="evenodd" clip-rule="evenodd" d="M666.939 35.3269C664.359 27.5701 661.95 23.3376 654.478 16.1165C651.363 14.4291 646.95 13.2609 641.239 12.7417C622.312 11.1738 610.474 23.7656 613.981 41.2977V41.1679C615.947 35.2685 618.35 30.55 623.975 27.2793C623.139 38.5702 636.3 46.3219 645.652 47.6579C647.503 45.8067 650.98 44.5444 653.57 45.1917C657.464 46.1003 661.487 52.5903 658.242 59.3399C654.997 66.2193 648.118 65.1809 648.118 65.1809L649.546 74.6563C674.597 70.7623 672.261 50.2539 666.939 35.3269Z" fill="#BDCCD4"/>
<path d="M676.285 5.08353C667.199 -3.22366 659.021 7.67953 654.478 16.1165C661.95 23.3376 664.359 27.5701 666.939 35.3269C673.689 29.0965 686.409 14.8185 676.285 5.08353Z" fill="#ACBDC6"/>
<path d="M664.862 34.0291C670.184 48.9561 672.52 69.4645 647.469 73.3585L646.041 63.8831C646.041 63.8831 652.92 64.9215 656.165 58.0421C659.41 51.2925 655.386 44.8025 651.492 43.8939C648.903 43.2465 645.426 44.5089 643.575 46.3601C634.5 45.0637 620.652 37.1957 621.898 25.9815C616.273 29.2521 613.87 33.9707 611.903 39.8701C611.903 39.8701 611.903 39.8701 611.903 39.9999C608.397 22.4677 620.235 9.87598 639.161 11.4439C644.873 11.9631 649.286 13.1313 652.401 14.8187C656.944 6.38168 665.121 -4.52152 674.207 3.78568C684.332 13.5207 671.611 27.7987 664.862 34.0291Z" stroke="black" stroke-miterlimit="10" stroke-linecap="round" stroke-linejoin="round"/>
<path d="M647.21 147.085C664.552 151.681 677.883 159.447 690.434 172.266" stroke="black" stroke-miterlimit="10" stroke-linecap="round" stroke-linejoin="round"/>
<path d="M689.092 149.163C694.284 153.187 668.584 155.134 668.584 155.134C668.584 155.134 684.03 145.269 689.092 149.163Z" stroke="black" stroke-miterlimit="10" stroke-linecap="round" stroke-linejoin="round"/>
</svg>
