<svg width="41" height="47" viewBox="0 0 41 47" fill="none" xmlns="http://www.w3.org/2000/svg">
<path d="M23.792 43.4185C23.2564 43.4751 22.6083 43.4971 21.8476 43.4842C21.1024 43.5009 20.3322 43.3988 19.537 43.1779C18.7418 42.9571 18.01 42.5709 17.3416 42.0192C16.5954 41.3201 15.9454 40.5891 15.3915 39.8261C14.8672 39.0475 14.3317 38.1051 13.7852 36.999C12.9756 35.4664 12.3782 34.0856 11.9929 32.8566C11.6215 31.5825 11.3602 30.2315 11.2091 28.8034C11.2213 28.6838 11.1921 28.3788 11.1215 27.8883C11.0648 27.3528 11.0073 26.78 10.949 26.17C10.9201 25.5444 10.8946 25.0678 10.8723 24.7402C10.8435 24.1146 10.8468 23.2646 10.8825 22.1903C10.9321 21.0709 11.0267 19.9653 11.1663 18.8737C11.3516 17.1548 11.5289 15.7418 11.698 14.6346C11.8515 13.498 12.0457 12.5095 12.2804 11.6693C12.5446 10.8135 12.8608 9.94905 13.229 9.076C13.6267 8.18739 14.1475 7.13946 14.7916 5.93222C15.1909 5.11812 15.8605 4.38745 16.8003 3.74022C17.7697 3.07742 18.8574 2.71019 20.0636 2.63854C21.2542 2.53741 22.3967 2.95177 23.491 3.88164C24.1422 4.32934 24.7021 5.03257 25.1708 5.99131C25.624 6.92058 25.9687 8.00137 26.205 9.2337C26.4256 10.4365 26.5268 11.6272 26.5083 12.8055C26.4899 13.9839 26.3191 15.0166 25.996 15.9035C25.7996 16.4596 25.315 16.791 24.542 16.8977C23.7985 16.9889 23.1192 16.9518 22.5042 16.7866C21.9742 16.4257 21.6712 16.2088 21.595 16.1359C21.5483 16.0475 21.5761 15.9574 21.6784 15.8657C21.7463 15.5659 21.7953 15.0877 21.8253 14.431C21.8554 13.7742 21.8699 13.088 21.8689 12.3723C21.8522 11.6271 21.8094 11.0466 21.7405 10.6306C21.3224 9.26812 21.0564 8.37196 20.9424 7.94209C20.8129 7.48274 20.5454 7.1905 20.14 7.06535C19.9599 7.00973 19.7597 7.05893 19.5394 7.21295C19.3487 7.35141 19.0728 7.6856 18.7119 8.21554C18.1897 8.86836 17.6983 9.90072 17.2378 11.3126C16.7911 12.6795 16.4379 14.2232 16.1781 15.9437C15.8243 18.1286 15.5686 20.0354 15.4111 21.6642C15.2536 23.293 15.3033 24.8501 15.5601 26.3354C15.5634 26.4845 15.577 26.76 15.6009 27.1621C15.6543 27.5486 15.681 27.7418 15.681 27.7418C15.7727 27.8442 15.8842 28.1622 16.0154 28.6961C16.131 29.2005 16.2008 29.6537 16.2247 30.0558C16.6166 31.5828 17.1178 32.9956 17.7284 34.2942C18.3233 35.5632 18.973 36.6148 19.6775 37.449C20.396 38.2382 21.093 38.7371 21.7686 38.9456C22.2919 39.0085 22.825 38.84 23.3677 38.4403C23.9105 38.0405 24.4794 37.4761 25.0745 36.7471C25.6696 36.018 26.308 35.2284 26.9899 34.3782C27.5416 33.7098 28.0187 33.0431 28.4214 32.378C28.824 31.713 29.1027 31.17 29.2573 30.749C29.3997 30.4476 29.601 30.1151 29.8613 29.7514C30.1355 29.3427 30.4052 29.0683 30.6705 28.9282C31.0053 28.5628 31.377 28.5172 31.7857 28.7914C32.1944 29.0656 32.5545 29.4974 32.8659 30.0869C33.0838 30.4996 33.0538 31.1563 32.7756 32.0572C32.4975 32.958 32.1138 33.8016 31.6244 34.5879C31.5131 34.9482 31.3057 35.3405 31.002 35.7648C30.7122 36.1441 30.4 36.5164 30.0652 36.8817C29.6953 37.6802 29.1703 38.5419 28.4901 39.4666C27.81 40.3913 27.0606 41.2207 26.242 41.9547C25.4528 42.6731 24.6361 43.161 23.792 43.4185Z" fill="#333333"/>
</svg>
