<svg width="606" height="607" viewBox="0 0 606 607" fill="none" xmlns="http://www.w3.org/2000/svg">
<path d="M136.704 393.993C136.845 394.267 136.878 394.522 136.802 394.759C136.727 394.996 136.545 395.189 136.259 395.337L124.745 401.282C124.445 401.437 124.184 401.473 123.959 401.391C123.722 401.315 123.533 401.14 123.392 400.867C123.244 400.58 123.211 400.325 123.293 400.101C123.356 399.87 123.537 399.678 123.837 399.523L125.616 398.604L125.375 399.001C124.55 399.163 123.765 399.048 123.019 398.658C122.272 398.267 121.677 397.642 121.233 396.782C120.796 395.935 120.617 395.094 120.698 394.26C120.766 393.433 121.081 392.651 121.642 391.916C122.19 391.187 122.972 390.56 123.989 390.036C124.992 389.517 125.963 389.239 126.9 389.201C127.818 389.156 128.644 389.349 129.378 389.778C130.091 390.202 130.667 390.837 131.105 391.685C131.542 392.532 131.704 393.372 131.59 394.207C131.476 395.042 131.121 395.745 130.525 396.317L130.414 396.102L135.34 393.558C135.627 393.41 135.889 393.374 136.126 393.449C136.363 393.525 136.556 393.706 136.704 393.993ZM129.909 392.822C129.62 392.261 129.231 391.843 128.742 391.568C128.246 391.279 127.677 391.152 127.034 391.186C126.392 391.221 125.686 391.437 124.917 391.834C123.771 392.426 123.029 393.131 122.692 393.949C122.355 394.767 122.408 395.606 122.852 396.466C123.148 397.039 123.544 397.47 124.04 397.759C124.516 398.041 125.075 398.165 125.718 398.131C126.353 398.083 127.056 397.861 127.824 397.464C128.971 396.872 129.72 396.163 130.07 395.339C130.407 394.521 130.353 393.682 129.909 392.822Z" fill="#0EB80E"/>
<path d="M125.744 380.473C126.032 381.147 126.16 381.819 126.126 382.487C126.087 383.142 125.904 383.722 125.578 384.228C125.246 384.721 124.797 385.088 124.231 385.33C123.502 385.641 122.851 385.704 122.278 385.518C121.704 385.333 121.145 384.846 120.601 384.057C120.043 383.275 119.454 382.155 118.831 380.699L118.425 379.748L119.599 379.247L119.988 380.157C120.431 381.195 120.83 381.998 121.183 382.565C121.531 383.118 121.878 383.464 122.225 383.603C122.558 383.748 122.934 383.731 123.352 383.552C123.878 383.328 124.232 382.961 124.413 382.453C124.589 381.931 124.539 381.347 124.262 380.699C124.043 380.187 123.729 379.787 123.319 379.499C122.896 379.218 122.426 379.052 121.91 379.001C121.38 378.956 120.839 379.052 120.286 379.288L117.959 380.282C117.164 380.621 116.66 381.028 116.447 381.502C116.221 381.981 116.272 382.605 116.601 383.374C116.791 383.819 117.048 384.252 117.371 384.672C117.694 385.092 118.093 385.504 118.568 385.907C118.749 386.069 118.857 386.23 118.894 386.39C118.917 386.555 118.888 386.711 118.807 386.857C118.706 386.996 118.585 387.104 118.442 387.18C118.28 387.25 118.111 387.282 117.934 387.278C117.751 387.261 117.585 387.172 117.437 387.012C116.887 386.545 116.427 386.048 116.058 385.519C115.67 384.984 115.366 384.459 115.147 383.947C114.773 383.07 114.606 382.288 114.647 381.601C114.675 380.919 114.919 380.313 115.378 379.782C115.823 379.256 116.491 378.804 117.381 378.423L122.722 376.142C123.033 376.01 123.3 375.983 123.525 376.062C123.751 376.141 123.924 376.323 124.045 376.606C124.16 376.876 124.171 377.126 124.079 377.357C123.98 377.574 123.776 377.749 123.465 377.882L122.029 378.496L121.951 378.313C122.496 378.208 123.014 378.226 123.505 378.367C123.996 378.509 124.438 378.758 124.83 379.117C125.204 379.468 125.508 379.92 125.744 380.473Z" fill="#0EB80E"/>
<path d="M120.366 366.793C120.719 367.819 120.809 368.781 120.637 369.678C120.45 370.579 119.996 371.379 119.275 372.077C118.534 372.765 117.54 373.324 116.292 373.753L114.731 374.29C113.386 374.752 112.201 374.958 111.175 374.908C110.131 374.848 109.205 374.546 108.398 374.001C107.585 373.443 106.836 372.662 106.149 371.657L104.322 368.981C104.158 368.728 104.093 368.494 104.128 368.281C104.158 368.053 104.286 367.862 104.512 367.707C104.757 367.56 104.993 367.526 105.221 367.602C105.444 367.665 105.64 367.83 105.81 368.098L107.75 370.967C108.197 371.635 108.707 372.15 109.281 372.511C109.85 372.858 110.469 373.057 111.137 373.106C111.806 373.155 112.514 373.051 113.263 372.794L114.158 372.486L114.258 372.778C113.595 372.835 112.98 372.759 112.412 372.551C111.831 372.348 111.324 372.026 110.893 371.585C110.458 371.129 110.126 370.569 109.897 369.903C109.596 369.029 109.542 368.195 109.734 367.4C109.921 366.591 110.332 365.869 110.966 365.232C111.6 364.595 112.437 364.098 113.478 363.74C114.546 363.373 115.537 363.257 116.452 363.392C117.367 363.528 118.164 363.882 118.842 364.455C119.519 365.029 120.028 365.808 120.366 366.793ZM118.897 367.391C118.678 366.753 118.353 366.26 117.923 365.911C117.479 365.567 116.946 365.371 116.324 365.321C115.697 365.257 114.989 365.361 114.198 365.633C113.033 366.033 112.224 366.614 111.772 367.374C111.316 368.121 111.247 368.958 111.566 369.888C111.781 370.512 112.112 371.003 112.561 371.36C112.991 371.709 113.51 371.91 114.118 371.965C114.712 372.024 115.377 371.928 116.112 371.675C117.361 371.246 118.222 370.663 118.698 369.925C119.155 369.179 119.221 368.334 118.897 367.391Z" fill="#0EB80E"/>
<path d="M116.114 353.004C116.381 354.025 116.393 354.97 116.149 355.837C115.905 356.704 115.433 357.448 114.731 358.071C114.03 358.694 113.133 359.148 112.04 359.433C111.217 359.648 110.449 359.727 109.737 359.67C109.007 359.603 108.351 359.411 107.768 359.093C107.185 358.775 106.693 358.343 106.292 357.795C105.874 357.238 105.565 356.576 105.365 355.809C105.098 354.788 105.086 353.843 105.33 352.976C105.574 352.109 106.046 351.364 106.748 350.742C107.435 350.123 108.325 349.671 109.418 349.386C110.241 349.171 111.017 349.097 111.747 349.164C112.473 349.217 113.128 349.402 113.711 349.72C114.294 350.038 114.795 350.475 115.214 351.033C115.614 351.58 115.914 352.237 116.114 353.004ZM114.582 353.404C114.419 352.779 114.129 352.279 113.712 351.902C113.292 351.512 112.767 351.27 112.136 351.177C111.502 351.07 110.766 351.125 109.929 351.344C108.68 351.67 107.801 352.195 107.293 352.919C106.785 353.642 106.653 354.473 106.897 355.409C107.056 356.02 107.346 356.52 107.766 356.91C108.169 357.29 108.687 357.534 109.322 357.641C109.956 357.749 110.692 357.693 111.529 357.475C112.778 357.149 113.663 356.622 114.186 355.894C114.691 355.156 114.823 354.326 114.582 353.404Z" fill="#0EB80E"/>
<path d="M113.103 340.161C113.164 340.478 113.124 340.739 112.983 340.945C112.843 341.151 112.608 341.285 112.276 341.348L104.193 342.883L104.775 345.952C104.885 346.529 104.673 346.867 104.14 346.969C103.895 347.015 103.693 346.972 103.533 346.838C103.359 346.707 103.247 346.511 103.198 346.252L101.663 338.168C101.551 337.578 101.754 337.233 102.273 337.134C102.532 337.085 102.749 337.126 102.923 337.257C103.08 337.377 103.186 337.581 103.241 337.869L103.819 340.916L111.903 339.381C112.234 339.318 112.503 339.357 112.709 339.497C112.912 339.623 113.043 339.844 113.103 340.161Z" fill="#0EB80E"/>
<path d="M111.28 328.819C111.371 329.546 111.308 330.227 111.092 330.86C110.873 331.478 110.538 331.986 110.085 332.382C109.63 332.764 109.097 332.993 108.486 333.07C107.7 333.168 107.057 333.049 106.556 332.712C106.056 332.375 105.653 331.753 105.348 330.845C105.028 329.939 104.77 328.701 104.573 327.129L104.445 326.103L105.711 325.945L105.834 326.927C105.974 328.048 106.136 328.929 106.319 329.571C106.501 330.199 106.739 330.627 107.034 330.857C107.314 331.088 107.68 331.175 108.131 331.119C108.699 331.048 109.14 330.793 109.455 330.355C109.768 329.902 109.88 329.326 109.793 328.627C109.724 328.074 109.532 327.603 109.218 327.214C108.888 326.826 108.483 326.537 108.001 326.346C107.504 326.157 106.957 326.099 106.361 326.174L103.85 326.487C102.992 326.595 102.395 326.846 102.06 327.243C101.711 327.641 101.588 328.255 101.691 329.085C101.751 329.565 101.879 330.052 102.073 330.545C102.268 331.038 102.538 331.544 102.884 332.062C103.013 332.268 103.073 332.452 103.064 332.616C103.04 332.782 102.969 332.924 102.851 333.042C102.716 333.147 102.57 333.217 102.411 333.252C102.237 333.274 102.065 333.258 101.896 333.205C101.725 333.138 101.59 333.007 101.492 332.812C101.092 332.212 100.787 331.607 100.578 330.998C100.352 330.375 100.205 329.788 100.136 329.235C100.018 328.289 100.074 327.491 100.303 326.842C100.518 326.194 100.919 325.678 101.506 325.295C102.079 324.913 102.846 324.662 103.807 324.542L109.57 323.822C109.905 323.78 110.169 323.829 110.364 323.967C110.559 324.105 110.675 324.327 110.713 324.633C110.75 324.924 110.691 325.168 110.539 325.364C110.384 325.546 110.139 325.658 109.805 325.7L108.255 325.893L108.23 325.697C108.783 325.746 109.276 325.906 109.709 326.177C110.142 326.448 110.497 326.81 110.776 327.263C111.038 327.704 111.206 328.222 111.28 328.819Z" fill="#0EB80E"/>
<path d="M109.878 313.809C109.94 314.966 109.774 315.974 109.38 316.832C108.97 317.677 108.367 318.348 107.572 318.846C106.761 319.345 105.792 319.625 104.665 319.686C103.552 319.746 102.566 319.579 101.707 319.185C100.848 318.776 100.163 318.196 99.6526 317.445C99.1413 316.679 98.8584 315.791 98.8039 314.781C98.7652 314.063 98.8549 313.412 99.0731 312.827C99.2758 312.229 99.5932 311.712 100.025 311.278C100.457 310.843 100.997 310.506 101.645 310.265C102.277 310.011 103.004 309.861 103.824 309.817C104.058 309.804 104.245 309.868 104.385 310.007C104.509 310.133 104.578 310.327 104.593 310.591L104.998 318.104L103.724 318.173L103.346 311.165L103.673 311.522C102.912 311.563 102.274 311.715 101.759 311.977C101.229 312.226 100.837 312.578 100.582 313.032C100.327 313.472 100.217 314.014 100.251 314.658C100.289 315.361 100.49 315.953 100.854 316.433C101.203 316.913 101.685 317.269 102.299 317.5C102.899 317.732 103.588 317.827 104.364 317.785L104.496 317.778C105.814 317.707 106.793 317.339 107.432 316.673C108.072 316.007 108.36 315.08 108.296 313.894C108.271 313.425 108.186 312.953 108.043 312.476C107.899 311.984 107.661 311.519 107.329 311.082C107.185 310.87 107.116 310.675 107.121 310.498C107.111 310.308 107.161 310.151 107.272 310.028C107.368 309.905 107.496 309.825 107.656 309.787C107.801 309.749 107.963 309.763 108.143 309.826C108.322 309.89 108.484 310.021 108.627 310.219C108.989 310.684 109.284 311.248 109.511 311.912C109.722 312.561 109.844 313.194 109.878 313.809Z" fill="#0EB80E"/>
<path d="M109.466 304.443C109.459 304.721 109.373 304.939 109.208 305.097C109.029 305.24 108.785 305.307 108.477 305.3L99.5039 305.091C99.2693 305.085 99.072 305.051 98.9121 304.989C98.7525 304.912 98.6376 304.807 98.5674 304.673C98.4825 304.539 98.4424 304.369 98.4472 304.164C98.4516 303.973 98.4921 303.813 98.5684 303.683C98.6302 303.552 98.7134 303.444 98.8181 303.358C98.9231 303.258 99.0498 303.173 99.1981 303.103L105.683 299.623L99.3668 295.867C99.2075 295.775 99.0776 295.684 98.977 295.594C98.8764 295.504 98.7984 295.392 98.7428 295.258C98.6872 295.125 98.6616 294.963 98.6661 294.773C98.6733 294.465 98.7739 294.24 98.9679 294.097C99.1473 293.955 99.4129 293.888 99.7648 293.896L108.738 294.105C109.046 294.112 109.286 294.199 109.459 294.364C109.616 294.514 109.692 294.729 109.686 295.007C109.679 295.286 109.593 295.504 109.428 295.662C109.249 295.819 109.005 295.894 108.697 295.887L101.109 295.71L101.121 295.204L107.349 298.958C107.465 299.034 107.572 299.125 107.673 299.23C107.758 299.334 107.799 299.482 107.794 299.673C107.79 299.878 107.742 300.031 107.652 300.131C107.547 300.217 107.435 300.295 107.316 300.366L100.919 303.848L100.931 303.364L108.518 303.541C108.826 303.548 109.067 303.627 109.239 303.777C109.397 303.928 109.473 304.15 109.466 304.443Z" fill="#0EB80E"/>
<path d="M111.425 276.665C111.277 277.74 110.924 278.639 110.366 279.362C109.793 280.083 109.064 280.597 108.178 280.905C107.277 281.21 106.26 281.285 105.127 281.13C104.284 281.014 103.545 280.794 102.908 280.47C102.274 280.131 101.755 279.704 101.352 279.19C100.934 278.674 100.646 278.079 100.486 277.406C100.329 276.718 100.306 275.967 100.418 275.154C100.488 274.645 100.642 274.118 100.879 273.574C101.117 273.029 101.45 272.542 101.879 272.112C102.017 271.968 102.169 271.885 102.335 271.864C102.487 271.84 102.639 271.861 102.793 271.927C102.949 271.978 103.077 272.069 103.177 272.201C103.265 272.317 103.304 272.463 103.295 272.64C103.287 272.801 103.213 272.969 103.07 273.142C102.761 273.455 102.521 273.799 102.351 274.175C102.183 274.537 102.075 274.893 102.027 275.241C101.953 275.779 101.975 276.27 102.091 276.716C102.21 277.147 102.416 277.53 102.71 277.867C102.992 278.187 103.363 278.452 103.822 278.663C104.267 278.872 104.802 279.02 105.427 279.106C106.662 279.275 107.676 279.118 108.467 278.635C109.245 278.149 109.706 277.376 109.852 276.316C109.9 275.967 109.899 275.597 109.849 275.205C109.784 274.811 109.646 274.415 109.435 274.015C109.344 273.811 109.325 273.63 109.376 273.474C109.412 273.317 109.495 273.195 109.626 273.109C109.743 273.007 109.884 272.952 110.048 272.945C110.197 272.936 110.348 272.971 110.5 273.051C110.654 273.117 110.77 273.237 110.85 273.41C111.135 273.923 111.319 274.467 111.403 275.041C111.487 275.615 111.495 276.156 111.425 276.665Z" fill="#0EB80E"/>
<path d="M116.771 262.26C116.707 262.516 116.577 262.702 116.382 262.82C116.186 262.937 115.946 262.96 115.661 262.889L113.036 262.231C112.396 262.071 112.156 261.67 112.317 261.03L112.584 259.963L112.695 261.238C112.297 260.715 111.835 260.267 111.309 259.893C110.768 259.516 110.141 259.185 109.426 258.9C108.7 258.597 107.861 258.326 106.908 258.087L104.966 257.601C104.61 257.512 104.363 257.352 104.224 257.12C104.075 256.871 104.045 256.569 104.134 256.213L105.465 250.899C105.554 250.544 105.722 250.298 105.967 250.163C106.202 250.011 106.497 249.979 106.853 250.068L115.475 252.228L114.354 252.899L114.755 251.299C114.833 250.986 114.977 250.773 115.187 250.659C115.386 250.527 115.643 250.501 115.956 250.579L118.58 251.237C119.178 251.387 119.407 251.739 119.268 252.294C119.197 252.578 119.065 252.772 118.873 252.875C118.681 252.978 118.443 252.994 118.158 252.923L116.131 252.415L114.056 260.695L116.084 261.203C116.681 261.353 116.91 261.705 116.771 262.26ZM112.819 259.024L114.118 253.838L106.799 252.005L105.799 255.995L107.698 256.471C108.723 256.728 109.692 257.084 110.606 257.54C111.509 257.978 112.247 258.473 112.819 259.024Z" fill="#0EB80E"/>
<path d="M119.322 242.576C118.959 243.677 118.438 244.555 117.759 245.211C117.07 245.849 116.265 246.256 115.342 246.43C114.406 246.601 113.401 246.509 112.329 246.156C111.27 245.807 110.413 245.293 109.756 244.614C109.104 243.92 108.677 243.131 108.475 242.246C108.277 241.347 108.336 240.417 108.653 239.455C108.877 238.773 109.198 238.199 109.614 237.734C110.02 237.25 110.503 236.884 111.064 236.636C111.624 236.388 112.25 236.27 112.941 236.282C113.623 236.275 114.354 236.4 115.134 236.657C115.357 236.73 115.508 236.857 115.587 237.038C115.657 237.2 115.651 237.406 115.569 237.657L113.215 244.803L112.003 244.404L114.198 237.738L114.374 238.19C113.649 237.951 113 237.861 112.425 237.918C111.841 237.958 111.347 238.142 110.945 238.473C110.547 238.79 110.247 239.255 110.045 239.868C109.825 240.536 109.797 241.16 109.962 241.74C110.112 242.314 110.432 242.821 110.92 243.26C111.395 243.694 112.001 244.033 112.74 244.276L112.865 244.317C114.119 244.73 115.165 244.743 116.003 244.355C116.841 243.967 117.446 243.209 117.817 242.08C117.964 241.635 118.058 241.164 118.098 240.667C118.142 240.157 118.089 239.638 117.939 239.109C117.883 238.859 117.889 238.653 117.958 238.49C118.017 238.309 118.121 238.181 118.269 238.106C118.404 238.027 118.552 237.999 118.714 238.021C118.863 238.039 119.009 238.111 119.153 238.235C119.298 238.36 119.4 238.541 119.461 238.777C119.63 239.342 119.7 239.975 119.67 240.676C119.631 241.357 119.515 241.991 119.322 242.576Z" fill="#0EB80E"/>
<path d="M123.326 231.413C123.205 231.712 123.03 231.91 122.801 232.008C122.572 232.105 122.301 232.09 121.988 231.964L114.359 228.883L113.189 231.779C112.969 232.323 112.608 232.494 112.104 232.29C111.873 232.197 111.727 232.051 111.665 231.852C111.589 231.647 111.601 231.423 111.7 231.178L114.781 223.549C115.006 222.991 115.364 222.811 115.853 223.009C116.098 223.108 116.258 223.259 116.334 223.464C116.401 223.649 116.38 223.878 116.27 224.15L115.108 227.026L122.738 230.108C123.05 230.234 123.255 230.412 123.353 230.641C123.455 230.856 123.446 231.114 123.326 231.413Z" fill="#0EB80E"/>
<path d="M126.774 222.837C126.629 223.141 126.438 223.335 126.204 223.418C125.969 223.501 125.7 223.469 125.395 223.324L117.437 219.517C117.132 219.372 116.945 219.185 116.876 218.956C116.793 218.722 116.821 218.459 116.96 218.168C117.1 217.877 117.283 217.696 117.512 217.627C117.733 217.537 117.996 217.566 118.3 217.711L120.92 218.964L122.278 216.126C122.873 214.882 123.593 214.073 124.439 213.697C125.272 213.315 126.192 213.365 127.197 213.845C127.832 214.149 128.315 214.567 128.646 215.099C128.983 215.618 129.148 216.225 129.14 216.921C129.126 217.597 128.929 218.332 128.549 219.126L126.774 222.837ZM125.941 221.366L127.194 218.746C127.543 218.018 127.659 217.383 127.545 216.841C127.417 216.292 127.029 215.862 126.381 215.552C125.746 215.249 125.181 215.222 124.687 215.474C124.193 215.725 123.772 216.215 123.424 216.942L122.171 219.562L125.941 221.366Z" fill="#0EB80E"/>
<path d="M132.781 210.991C132.642 211.232 132.462 211.383 132.242 211.442C132.016 211.481 131.77 211.423 131.503 211.269L123.729 206.782C123.526 206.664 123.369 206.54 123.259 206.409C123.156 206.264 123.106 206.117 123.108 205.966C123.098 205.808 123.144 205.64 123.247 205.462C123.342 205.297 123.454 205.175 123.584 205.098C123.701 205.013 123.826 204.958 123.958 204.933C124.099 204.895 124.251 204.881 124.414 204.891L131.774 204.948L128.033 198.622C127.937 198.466 127.867 198.323 127.822 198.196C127.777 198.068 127.762 197.933 127.777 197.789C127.792 197.645 127.848 197.491 127.943 197.326C128.097 197.059 128.293 196.91 128.532 196.878C128.757 196.839 129.023 196.908 129.328 197.084L137.101 201.571C137.368 201.725 137.537 201.916 137.609 202.144C137.676 202.351 137.639 202.576 137.5 202.817C137.36 203.058 137.181 203.209 136.96 203.268C136.727 203.319 136.477 203.268 136.21 203.114L129.637 199.32L129.89 198.882L133.555 205.163C133.62 205.285 133.671 205.416 133.708 205.557C133.733 205.689 133.698 205.838 133.603 206.004C133.5 206.181 133.385 206.293 133.257 206.338C133.125 206.363 132.989 206.378 132.851 206.382L125.568 206.37L125.81 205.95L132.383 209.745C132.65 209.899 132.823 210.083 132.902 210.298C132.968 210.506 132.928 210.737 132.781 210.991Z" fill="#0EB80E"/>
<path d="M141.232 196.861C141.124 197.018 140.998 197.136 140.854 197.215C140.718 197.282 140.563 197.299 140.389 197.268C140.215 197.236 140.025 197.15 139.82 197.008L132.439 191.9C132.185 191.725 132.038 191.525 131.997 191.301C131.944 191.068 132.001 190.831 132.168 190.59C132.327 190.36 132.524 190.23 132.761 190.197C132.985 190.156 133.224 190.223 133.478 190.399L140.009 194.918L139.683 195.388L136.411 185.58C136.345 185.391 136.308 185.187 136.299 184.967C136.291 184.747 136.37 184.517 136.537 184.276C136.654 184.107 136.78 183.989 136.916 183.922C137.051 183.855 137.202 183.844 137.368 183.887C137.53 183.91 137.714 183.993 137.919 184.135L145.318 189.255C145.559 189.422 145.706 189.622 145.759 189.854C145.821 190.075 145.772 190.3 145.613 190.529C145.438 190.782 145.232 190.925 144.996 190.958C144.768 190.978 144.533 190.905 144.292 190.738L137.743 186.207L138.068 185.736L141.358 195.557C141.424 195.746 141.462 195.95 141.47 196.17C141.478 196.389 141.399 196.62 141.232 196.861Z" fill="#0EB80E"/>
<path d="M156.839 176.402C156.144 177.198 155.37 177.738 154.516 178.025C153.662 178.311 152.78 178.339 151.871 178.109C150.962 177.88 150.082 177.393 149.231 176.65C148.59 176.091 148.093 175.501 147.74 174.88C147.385 174.239 147.174 173.588 147.109 172.927C147.044 172.266 147.125 171.616 147.352 170.977C147.578 170.317 147.951 169.689 148.472 169.093C149.167 168.298 149.941 167.757 150.795 167.471C151.649 167.184 152.53 167.156 153.44 167.386C154.338 167.606 155.213 168.087 156.063 168.83C156.704 169.39 157.202 169.991 157.557 170.632C157.921 171.262 158.136 171.908 158.202 172.569C158.267 173.229 158.187 173.89 157.961 174.549C157.734 175.188 157.36 175.806 156.839 176.402ZM155.646 175.36C156.07 174.874 156.321 174.353 156.398 173.797C156.484 173.23 156.389 172.66 156.111 172.086C155.843 171.501 155.383 170.924 154.731 170.355C153.759 169.505 152.831 169.074 151.947 169.061C151.062 169.048 150.302 169.406 149.665 170.135C149.25 170.61 148.999 171.131 148.913 171.698C148.825 172.245 148.915 172.81 149.183 173.395C149.451 173.98 149.911 174.557 150.563 175.126C151.535 175.975 152.468 176.411 153.364 176.434C154.258 176.436 155.019 176.078 155.646 175.36Z" fill="#0EB80E"/>
<path d="M165.789 166.715C165.56 166.942 165.322 167.056 165.073 167.056C164.824 167.056 164.58 166.936 164.342 166.698L158.53 160.873L156.319 163.08C155.903 163.495 155.504 163.51 155.121 163.126C154.945 162.949 154.867 162.757 154.888 162.55C154.899 162.332 154.997 162.13 155.184 161.943L161.008 156.131C161.434 155.707 161.833 155.681 162.206 156.055C162.393 156.242 162.481 156.444 162.47 156.662C162.46 156.859 162.35 157.061 162.143 157.268L159.947 159.459L165.759 165.283C165.997 165.522 166.116 165.766 166.116 166.015C166.126 166.253 166.017 166.487 165.789 166.715Z" fill="#0EB80E"/>
<path d="M178.205 155.017C177.93 155.237 177.673 155.338 177.435 155.322C177.199 155.285 176.99 155.152 176.807 154.922C176.697 154.785 176.622 154.62 176.581 154.427C176.54 154.235 176.533 154.015 176.561 153.768L177.104 146.722C177.192 145.657 177.157 144.766 176.998 144.048C176.838 143.331 176.548 142.709 176.128 142.181C175.597 141.516 174.988 141.177 174.301 141.162C173.616 141.126 172.884 141.42 172.104 142.042C171.623 142.426 171.223 142.876 170.903 143.394C170.587 143.89 170.344 144.468 170.176 145.128C170.107 145.37 169.999 145.541 169.852 145.639C169.706 145.737 169.544 145.782 169.368 145.772C169.194 145.742 169.033 145.683 168.887 145.593C168.743 145.483 168.634 145.335 168.561 145.149C168.488 144.964 168.485 144.76 168.552 144.538C168.729 143.796 169.045 143.075 169.5 142.375C169.954 141.674 170.508 141.064 171.162 140.542C171.987 139.884 172.786 139.462 173.558 139.278C174.333 139.073 175.066 139.098 175.757 139.353C176.439 139.597 177.059 140.069 177.617 140.768C178.001 141.25 178.301 141.789 178.515 142.388C178.721 142.974 178.855 143.636 178.918 144.374C178.992 145.103 178.989 145.921 178.907 146.831L178.334 153.451L177.964 152.986L183.605 148.487C183.834 148.304 184.052 148.224 184.258 148.247C184.476 148.261 184.672 148.377 184.845 148.595C185.019 148.813 185.093 149.035 185.068 149.262C185.045 149.468 184.918 149.662 184.689 149.845L178.205 155.017Z" fill="#0EB80E"/>
<path d="M197.233 141.082C196.996 141.228 196.766 141.274 196.544 141.221C196.327 141.147 196.138 140.979 195.977 140.717L191.286 133.064C191.164 132.864 191.085 132.68 191.051 132.512C191.029 132.336 191.055 132.182 191.129 132.05C191.196 131.906 191.317 131.781 191.492 131.673C191.654 131.574 191.811 131.521 191.962 131.514C192.105 131.495 192.241 131.507 192.37 131.548C192.511 131.582 192.651 131.642 192.79 131.729L199.231 135.29L198.961 127.946C198.952 127.763 198.958 127.604 198.979 127.471C199.001 127.337 199.052 127.211 199.134 127.092C199.216 126.973 199.338 126.864 199.501 126.764C199.763 126.603 200.007 126.566 200.232 126.651C200.449 126.725 200.649 126.912 200.833 127.212L205.524 134.864C205.685 135.127 205.743 135.375 205.697 135.61C205.657 135.824 205.517 136.004 205.28 136.15C205.042 136.295 204.813 136.341 204.591 136.288C204.361 136.222 204.166 136.058 204.005 135.796L200.038 129.325L200.47 129.06L200.693 136.329C200.692 136.467 200.675 136.607 200.641 136.748C200.599 136.877 200.497 136.991 200.335 137.091C200.16 137.198 200.005 137.241 199.872 137.22C199.743 137.178 199.617 137.126 199.493 137.065L193.098 133.579L193.511 133.326L197.478 139.797C197.639 140.059 197.703 140.304 197.67 140.531C197.629 140.745 197.483 140.929 197.233 141.082Z" fill="#0EB80E"/>
<path d="M214.999 130.913C213.968 131.441 212.98 131.699 212.035 131.688C211.097 131.657 210.238 131.38 209.459 130.856C208.674 130.319 208.024 129.547 207.51 128.542C207.002 127.549 206.754 126.581 206.765 125.636C206.789 124.685 207.04 123.823 207.518 123.052C208.01 122.273 208.706 121.653 209.607 121.192C210.247 120.865 210.878 120.682 211.501 120.644C212.13 120.586 212.731 120.665 213.304 120.883C213.876 121.101 214.404 121.457 214.888 121.951C215.377 122.425 215.809 123.028 216.183 123.759C216.29 123.968 216.308 124.165 216.238 124.349C216.174 124.514 216.024 124.656 215.789 124.776L209.091 128.203L208.509 127.067L214.758 123.871L214.565 124.315C214.218 123.636 213.819 123.115 213.37 122.752C212.927 122.369 212.446 122.154 211.927 122.106C211.422 122.052 210.882 122.171 210.307 122.465C209.681 122.786 209.222 123.21 208.932 123.737C208.635 124.251 208.505 124.836 208.544 125.492C208.576 126.135 208.769 126.802 209.123 127.494L209.184 127.611C209.785 128.787 210.52 129.531 211.388 129.844C212.257 130.158 213.22 130.044 214.278 129.503C214.696 129.289 215.093 129.02 215.471 128.695C215.861 128.364 216.189 127.957 216.453 127.476C216.589 127.258 216.739 127.116 216.902 127.049C217.072 126.962 217.236 126.944 217.394 126.995C217.545 127.033 217.67 127.117 217.77 127.247C217.863 127.365 217.917 127.518 217.931 127.708C217.946 127.899 217.892 128.099 217.77 128.31C217.492 128.831 217.097 129.33 216.583 129.807C216.076 130.264 215.548 130.633 214.999 130.913Z" fill="#0EB80E"/>
<path d="M226.929 125.307C225.932 125.738 224.98 125.901 224.073 125.797C223.16 125.68 222.342 125.322 221.62 124.723C220.893 124.111 220.302 123.279 219.849 122.229C219.512 121.448 219.317 120.701 219.265 119.989C219.227 119.271 219.323 118.606 219.555 117.995C219.78 117.37 220.14 116.816 220.634 116.331C221.141 115.841 221.771 115.433 222.525 115.107C222.997 114.904 223.527 114.763 224.116 114.684C224.705 114.606 225.295 114.639 225.884 114.783C226.079 114.827 226.228 114.915 226.333 115.045C226.431 115.162 226.492 115.304 226.516 115.469C226.553 115.629 226.541 115.786 226.479 115.94C226.426 116.075 226.321 116.184 226.165 116.268C226.023 116.345 225.841 116.368 225.62 116.335C225.192 116.233 224.773 116.206 224.363 116.255C223.966 116.298 223.606 116.39 223.283 116.529C222.785 116.744 222.375 117.017 222.055 117.347C221.747 117.671 221.526 118.047 221.39 118.473C221.262 118.879 221.227 119.334 221.284 119.836C221.335 120.325 221.486 120.859 221.736 121.438C222.23 122.583 222.889 123.369 223.712 123.796C224.53 124.21 225.43 124.205 226.413 123.781C226.736 123.641 227.053 123.449 227.362 123.203C227.666 122.944 227.934 122.621 228.166 122.233C228.294 122.05 228.438 121.94 228.598 121.903C228.752 121.852 228.899 121.861 229.04 121.928C229.189 121.976 229.308 122.068 229.399 122.204C229.484 122.327 229.532 122.474 229.542 122.646C229.565 122.811 229.523 122.973 229.416 123.131C229.125 123.641 228.755 124.08 228.307 124.449C227.859 124.818 227.4 125.104 226.929 125.307Z" fill="#0EB80E"/>
<path d="M241.305 119.745C241.028 119.842 240.787 119.841 240.581 119.743C240.37 119.631 240.214 119.429 240.112 119.139L239.052 116.13L237.661 116.62C237.15 116.8 236.753 117.087 236.472 117.482C236.191 117.876 236.011 118.313 235.931 118.792L235.491 121.186C235.436 121.47 235.324 121.681 235.154 121.818C235.004 121.964 234.822 122.044 234.609 122.057C234.414 122.079 234.223 122.045 234.036 121.955C233.849 121.866 233.701 121.731 233.591 121.552C233.495 121.368 233.48 121.148 233.545 120.892L233.889 119.022C233.988 118.551 234.182 118.11 234.472 117.697C234.762 117.284 235.114 117.004 235.529 116.858L235.82 116.755L235.886 116.942C234.751 117.342 233.773 117.391 232.952 117.089C232.13 116.788 231.554 116.167 231.222 115.226C231.003 114.604 230.951 114.015 231.067 113.461C231.192 112.889 231.487 112.38 231.953 111.936C232.418 111.492 233.066 111.124 233.896 110.832L237.61 109.523C237.915 109.416 238.179 109.416 238.404 109.524C238.642 109.626 238.817 109.837 238.929 110.155L241.875 118.517C241.978 118.808 241.975 119.065 241.868 119.29C241.769 119.495 241.581 119.647 241.305 119.745ZM236.039 115.722L238.591 114.823L237.283 111.108L234.73 112.008C233.942 112.285 233.419 112.656 233.163 113.12C232.901 113.569 232.873 114.085 233.078 114.666C233.282 115.247 233.63 115.637 234.12 115.838C234.611 116.038 235.25 116 236.039 115.722Z" fill="#0EB80E"/>
<path d="M257.351 118.024C257.082 118.096 256.857 118.081 256.678 117.977C256.498 117.874 256.37 117.68 256.294 117.397L255.739 115.336L247.794 117.474C247.468 117.562 247.197 117.544 246.982 117.419C246.766 117.295 246.614 117.07 246.527 116.745L244.234 108.226C244.147 107.9 244.167 107.636 244.295 107.435C244.419 107.219 244.637 107.069 244.949 106.985C245.26 106.902 245.517 106.924 245.718 107.052C245.93 107.162 246.08 107.38 246.168 107.705L248.311 115.672L253.389 114.306L251.245 106.339C251.157 106.013 251.178 105.75 251.306 105.548C251.43 105.332 251.648 105.183 251.959 105.099C252.271 105.015 252.527 105.037 252.729 105.165C252.941 105.275 253.091 105.493 253.178 105.819L255.568 114.699L254.43 114.026L256.044 113.591C256.342 113.511 256.591 113.535 256.793 113.663C257.005 113.773 257.15 113.977 257.231 114.274L257.951 116.951C258.103 117.518 257.903 117.875 257.351 118.024Z" fill="#0EB80E"/>
<path d="M266.639 113.158C265.501 113.374 264.48 113.344 263.577 113.067C262.685 112.774 261.939 112.266 261.339 111.544C260.737 110.808 260.33 109.885 260.119 108.775C259.911 107.68 259.946 106.681 260.222 105.777C260.513 104.871 260.996 104.115 261.672 103.509C262.363 102.9 263.205 102.501 264.199 102.312C264.905 102.178 265.563 102.18 266.171 102.319C266.791 102.44 267.345 102.685 267.834 103.056C268.322 103.426 268.729 103.916 269.053 104.526C269.39 105.119 269.635 105.819 269.788 106.626C269.832 106.856 269.794 107.05 269.674 107.207C269.567 107.347 269.383 107.441 269.124 107.491L261.732 108.894L261.494 107.641L268.389 106.332L268.079 106.704C267.936 105.955 267.701 105.342 267.372 104.868C267.054 104.375 266.653 104.034 266.169 103.842C265.699 103.647 265.147 103.61 264.513 103.731C263.822 103.862 263.262 104.14 262.835 104.564C262.406 104.974 262.117 105.499 261.97 106.14C261.82 106.765 261.818 107.46 261.963 108.223L261.987 108.353C262.234 109.65 262.729 110.571 263.475 111.116C264.22 111.661 265.177 111.823 266.344 111.601C266.805 111.514 267.262 111.367 267.716 111.162C268.184 110.954 268.613 110.656 269.002 110.268C269.193 110.098 269.377 110.003 269.552 109.985C269.74 109.949 269.902 109.978 270.039 110.071C270.174 110.15 270.27 110.266 270.329 110.419C270.385 110.558 270.394 110.72 270.355 110.907C270.315 111.094 270.207 111.271 270.03 111.439C269.618 111.861 269.098 112.228 268.47 112.541C267.855 112.837 267.244 113.043 266.639 113.158Z" fill="#0EB80E"/>
<path d="M276.03 111.36C275.695 111.399 275.43 111.342 275.235 111.187C275.039 111.033 274.922 110.788 274.883 110.453L273.875 101.866C273.836 101.531 273.893 101.266 274.048 101.071C274.202 100.875 274.447 100.758 274.782 100.719L279.064 100.216C279.924 100.115 280.636 100.143 281.2 100.298C281.779 100.452 282.224 100.717 282.534 101.094C282.844 101.471 283.035 101.966 283.107 102.577C283.186 103.247 283.019 103.843 282.608 104.364C282.196 104.884 281.617 105.233 280.87 105.409L280.836 105.125C281.743 105.048 282.48 105.228 283.048 105.663C283.614 106.084 283.942 106.673 284.031 107.431C284.137 108.334 283.886 109.094 283.279 109.712C282.671 110.315 281.74 110.69 280.488 110.837L276.03 111.36ZM276.728 109.949L280.225 109.539C280.924 109.457 281.438 109.249 281.768 108.914C282.111 108.564 282.25 108.112 282.185 107.559C282.118 106.991 281.879 106.583 281.466 106.336C281.067 106.088 280.519 106.004 279.819 106.086L276.323 106.497L276.728 109.949ZM276.17 105.185L279.491 104.796C280.117 104.722 280.581 104.52 280.882 104.19C281.197 103.857 281.325 103.436 281.265 102.926C281.204 102.402 280.982 102.022 280.6 101.786C280.232 101.549 279.735 101.467 279.109 101.54L275.788 101.93L276.17 105.185Z" fill="#0EB80E"/>
<path d="M297.072 101.581C296.865 101.452 296.745 101.292 296.713 101.102C296.681 100.897 296.744 100.676 296.903 100.44L298.367 98.0437L298.658 98.4579L295.844 98.5836C295.565 98.602 295.337 98.5537 295.16 98.4387C294.997 98.3235 294.914 98.1413 294.91 97.892C294.907 97.672 294.986 97.5023 295.145 97.3828C295.32 97.2484 295.546 97.1941 295.825 97.2197L298.643 97.292L298.384 97.6915L296.856 95.3357C296.692 95.0886 296.623 94.8621 296.649 94.6564C296.676 94.4507 296.791 94.2952 296.995 94.1898C297.184 94.0552 297.374 94.038 297.566 94.1381C297.773 94.238 297.937 94.4118 298.057 94.6596L299.299 96.9972L299.057 97.0004L300.213 94.6307C300.342 94.3797 300.501 94.2015 300.69 94.0963C300.894 93.9909 301.099 94.0028 301.307 94.1321C301.513 94.2466 301.626 94.4065 301.643 94.6116C301.675 94.8165 301.612 95.0374 301.454 95.2742L299.989 97.648L299.72 97.2776L302.535 97.1299C302.813 97.0968 303.034 97.1452 303.197 97.275C303.36 97.3902 303.443 97.5578 303.446 97.7778C303.449 98.0271 303.371 98.2115 303.211 98.3309C303.051 98.4504 302.832 98.5047 302.553 98.4938L299.736 98.4435L299.994 98.022L301.522 100.378C301.687 100.61 301.755 100.822 301.729 101.013C301.717 101.204 301.609 101.367 301.405 101.501C301.187 101.622 300.982 101.639 300.79 101.554C300.598 101.468 300.434 101.302 300.299 101.054L299.08 98.7163L299.322 98.713L298.143 101.083C298.015 101.334 297.856 101.512 297.666 101.617C297.477 101.708 297.279 101.696 297.072 101.581Z" fill="#0EB80E"/>
<path d="M315.864 114.071C315.558 114.043 315.325 113.933 315.166 113.741C315.007 113.549 314.942 113.293 314.972 112.972L316.172 100.069C316.203 99.7336 316.314 99.4935 316.504 99.3491C316.696 99.1902 316.945 99.125 317.252 99.1535C317.573 99.1834 317.806 99.2934 317.95 99.4836C318.11 99.6605 318.175 99.9169 318.144 100.253L317.958 102.246L317.754 101.83C318.062 101.048 318.582 100.448 319.313 100.03C320.045 99.6121 320.892 99.4478 321.856 99.5375C322.805 99.6258 323.609 99.9288 324.268 100.447C324.928 100.95 325.417 101.636 325.734 102.505C326.052 103.36 326.158 104.357 326.052 105.496C325.948 106.62 325.659 107.588 325.186 108.398C324.729 109.195 324.121 109.787 323.364 110.173C322.622 110.546 321.776 110.688 320.827 110.6C319.878 110.511 319.083 110.194 318.441 109.649C317.799 109.103 317.398 108.425 317.238 107.615L317.479 107.637L316.966 113.157C316.936 113.478 316.825 113.719 316.634 113.878C316.442 114.036 316.186 114.101 315.864 114.071ZM320.514 108.98C321.142 109.038 321.704 108.936 322.2 108.673C322.71 108.411 323.124 108 323.441 107.44C323.758 106.881 323.957 106.17 324.037 105.308C324.156 104.023 323.963 103.018 323.456 102.293C322.949 101.569 322.213 101.162 321.249 101.072C320.607 101.012 320.03 101.113 319.52 101.375C319.025 101.624 318.619 102.028 318.302 102.588C318 103.149 317.808 103.86 317.728 104.722C317.609 106.007 317.802 107.019 318.307 107.758C318.815 108.483 319.55 108.89 320.514 108.98Z" fill="#0EB80E"/>
<path d="M333.004 112.123C332.281 112.002 331.647 111.748 331.102 111.359C330.572 110.973 330.181 110.506 329.931 109.959C329.695 109.414 329.627 108.838 329.729 108.23C329.859 107.449 330.157 106.867 330.623 106.484C331.088 106.1 331.8 105.892 332.757 105.859C333.717 105.811 334.978 105.917 336.54 106.178L337.56 106.349L337.35 107.607L336.373 107.444C335.259 107.258 334.368 107.161 333.701 107.154C333.047 107.149 332.568 107.255 332.265 107.472C331.963 107.674 331.775 107.999 331.7 108.448C331.606 109.012 331.724 109.508 332.054 109.935C332.398 110.364 332.918 110.636 333.612 110.752C334.162 110.844 334.668 110.795 335.131 110.605C335.597 110.4 335.99 110.094 336.311 109.687C336.634 109.265 336.845 108.757 336.944 108.164L337.361 105.669C337.504 104.815 337.433 104.171 337.149 103.737C336.867 103.289 336.313 102.996 335.489 102.858C335.012 102.778 334.509 102.761 333.981 102.807C333.453 102.852 332.891 102.966 332.295 103.15C332.061 103.215 331.867 103.219 331.713 103.164C331.561 103.094 331.445 102.985 331.366 102.838C331.303 102.679 331.278 102.519 331.29 102.357C331.319 102.183 331.383 102.023 331.482 101.876C331.595 101.731 331.759 101.64 331.974 101.601C332.664 101.389 333.33 101.27 333.974 101.244C334.635 101.206 335.24 101.233 335.79 101.324C336.73 101.481 337.479 101.763 338.035 102.168C338.595 102.559 338.974 103.091 339.174 103.763C339.376 104.422 339.398 105.228 339.238 106.183L338.281 111.912C338.226 112.244 338.104 112.484 337.916 112.631C337.727 112.778 337.482 112.826 337.178 112.776C336.888 112.727 336.671 112.602 336.527 112.399C336.397 112.199 336.359 111.933 336.415 111.6L336.672 110.059L336.868 110.092C336.663 110.608 336.368 111.034 335.985 111.372C335.601 111.709 335.153 111.947 334.639 112.084C334.142 112.209 333.597 112.222 333.004 112.123Z" fill="#0EB80E"/>
<path d="M347.445 114.972C346.391 114.716 345.532 114.274 344.87 113.645C344.211 113.002 343.782 112.188 343.583 111.204C343.402 110.21 343.468 109.071 343.779 107.788L344.168 106.185C344.504 104.802 344.97 103.693 345.565 102.856C346.178 102.009 346.932 101.392 347.826 101.006C348.734 100.622 349.796 100.412 351.012 100.376L354.251 100.279C354.553 100.277 354.785 100.348 354.946 100.493C355.121 100.641 355.213 100.852 355.222 101.126C355.213 101.411 355.115 101.628 354.928 101.779C354.755 101.933 354.51 102.01 354.193 102.008L350.731 102.096C349.927 102.112 349.218 102.264 348.605 102.553C348.005 102.845 347.505 103.259 347.103 103.796C346.701 104.332 346.407 104.985 346.22 105.755L345.997 106.674L345.697 106.601C346.006 106.012 346.402 105.535 346.883 105.169C347.368 104.788 347.912 104.536 348.516 104.41C349.134 104.289 349.785 104.311 350.469 104.477C351.367 104.695 352.099 105.099 352.665 105.69C353.245 106.283 353.633 107.019 353.827 107.896C354.022 108.774 353.989 109.747 353.73 110.816C353.463 111.913 353.026 112.811 352.419 113.508C351.812 114.206 351.084 114.686 350.236 114.948C349.388 115.21 348.457 115.218 347.445 114.972ZM347.734 113.412C348.389 113.571 348.98 113.564 349.505 113.389C350.034 113.201 350.487 112.858 350.864 112.361C351.256 111.868 351.55 111.215 351.747 110.402C352.038 109.205 351.985 108.211 351.588 107.42C351.206 106.633 350.537 106.124 349.582 105.892C348.941 105.736 348.349 105.751 347.806 105.936C347.281 106.11 346.831 106.439 346.457 106.922C346.087 107.39 345.81 108.002 345.627 108.757C345.315 110.04 345.342 111.081 345.706 111.878C346.089 112.666 346.765 113.177 347.734 113.412Z" fill="#0EB80E"/>
<path d="M361.175 118.758C360.17 118.434 359.366 117.938 358.765 117.267C358.165 116.596 357.789 115.798 357.64 114.872C357.491 113.946 357.589 112.945 357.935 111.87C358.195 111.06 358.54 110.37 358.97 109.799C359.418 109.219 359.933 108.769 360.514 108.447C361.095 108.125 361.724 107.942 362.4 107.898C363.095 107.844 363.82 107.938 364.574 108.18C365.579 108.503 366.383 109 366.983 109.671C367.584 110.342 367.96 111.14 368.109 112.066C368.262 112.978 368.166 113.972 367.821 115.047C367.561 115.857 367.206 116.552 366.758 117.132C366.324 117.716 365.816 118.169 365.235 118.491C364.654 118.813 364.016 119 363.321 119.054C362.644 119.099 361.929 119 361.175 118.758ZM361.66 117.249C362.274 117.447 362.852 117.471 363.393 117.321C363.948 117.176 364.434 116.862 364.851 116.38C365.281 115.902 365.629 115.251 365.894 114.428C366.289 113.199 366.317 112.176 365.979 111.358C365.641 110.541 365.011 109.984 364.089 109.688C363.489 109.495 362.911 109.471 362.356 109.617C361.82 109.752 361.336 110.059 360.905 110.537C360.474 111.015 360.127 111.665 359.862 112.489C359.467 113.718 359.436 114.748 359.77 115.579C360.122 116.401 360.752 116.958 361.66 117.249Z" fill="#0EB80E"/>
<path d="M373.52 123.07C373.22 122.951 373.02 122.778 372.921 122.549C372.822 122.321 372.835 122.05 372.959 121.736L375.984 114.085L373.079 112.936C372.534 112.72 372.361 112.36 372.56 111.855C372.652 111.623 372.797 111.476 372.996 111.412C373.2 111.335 373.424 111.345 373.67 111.442L381.321 114.468C381.881 114.689 382.063 115.045 381.869 115.536C381.772 115.782 381.621 115.943 381.417 116.02C381.232 116.089 381.004 116.069 380.731 115.961L377.846 114.821L374.821 122.472C374.696 122.786 374.52 122.992 374.292 123.091C374.077 123.196 373.82 123.188 373.52 123.07Z" fill="#0EB80E"/>
<path d="M384.307 127.712C383.644 127.398 383.104 126.98 382.686 126.457C382.281 125.941 382.033 125.385 381.942 124.79C381.864 124.201 381.957 123.628 382.22 123.072C382.56 122.356 383.005 121.877 383.558 121.636C384.11 121.395 384.852 121.389 385.782 121.619C386.718 121.835 387.902 122.282 389.333 122.96L390.268 123.403L389.721 124.556L388.827 124.132C387.806 123.649 386.975 123.312 386.335 123.122C385.708 122.939 385.219 122.91 384.867 123.035C384.522 123.148 384.252 123.409 384.057 123.82C383.812 124.337 383.79 124.846 383.991 125.347C384.205 125.854 384.63 126.258 385.266 126.56C385.77 126.798 386.271 126.889 386.768 126.833C387.272 126.763 387.734 126.576 388.154 126.272C388.58 125.955 388.922 125.524 389.179 124.981L390.262 122.695C390.633 121.913 390.741 121.274 390.586 120.779C390.437 120.27 389.985 119.837 389.23 119.479C388.792 119.272 388.313 119.118 387.793 119.017C387.273 118.917 386.701 118.873 386.078 118.886C385.835 118.885 385.647 118.836 385.514 118.741C385.387 118.632 385.305 118.496 385.269 118.333C385.252 118.162 385.272 118.001 385.328 117.849C385.403 117.69 385.508 117.553 385.644 117.439C385.792 117.331 385.975 117.288 386.192 117.309C386.913 117.294 387.587 117.362 388.214 117.513C388.86 117.656 389.435 117.847 389.938 118.086C390.8 118.494 391.443 118.969 391.868 119.511C392.299 120.04 392.519 120.656 392.527 121.357C392.542 122.046 392.342 122.828 391.927 123.702L389.44 128.951C389.296 129.256 389.113 129.453 388.892 129.543C388.671 129.633 388.421 129.612 388.143 129.481C387.878 129.355 387.703 129.175 387.62 128.941C387.549 128.712 387.586 128.446 387.731 128.141L388.399 126.73L388.578 126.814C388.24 127.254 387.84 127.584 387.379 127.804C386.918 128.024 386.422 128.129 385.89 128.121C385.378 128.106 384.85 127.969 384.307 127.712Z" fill="#0EB80E"/>
<path d="M397.668 134.548C396.658 133.98 395.897 133.299 395.384 132.505C394.891 131.706 394.648 130.838 394.654 129.899C394.668 128.947 394.952 127.979 395.505 126.995C396.052 126.024 396.722 125.281 397.515 124.769C398.321 124.263 399.178 123.996 400.086 123.968C401.006 123.947 401.907 124.185 402.789 124.681C403.416 125.034 403.917 125.459 404.293 125.956C404.69 126.449 404.955 126.993 405.09 127.591C405.225 128.189 405.22 128.825 405.076 129.501C404.951 130.172 404.687 130.865 404.285 131.581C404.17 131.785 404.016 131.909 403.823 131.952C403.651 131.99 403.449 131.944 403.219 131.814L396.662 128.125L397.287 127.013L403.404 130.454L402.927 130.539C403.301 129.874 403.515 129.254 403.569 128.679C403.644 128.098 403.557 127.579 403.311 127.12C403.077 126.669 402.678 126.285 402.116 125.968C401.502 125.623 400.895 125.475 400.295 125.525C399.703 125.562 399.144 125.777 398.619 126.172C398.101 126.554 397.652 127.084 397.271 127.761L397.206 127.876C396.559 129.026 396.345 130.05 396.563 130.948C396.782 131.845 397.409 132.585 398.445 133.167C398.854 133.397 399.298 133.58 399.777 133.715C400.27 133.857 400.789 133.905 401.337 133.86C401.593 133.853 401.794 133.899 401.941 133.998C402.107 134.091 402.212 134.218 402.257 134.378C402.309 134.525 402.308 134.676 402.255 134.831C402.208 134.973 402.11 135.103 401.96 135.22C401.81 135.338 401.613 135.403 401.369 135.418C400.782 135.475 400.147 135.421 399.466 135.256C398.804 135.086 398.205 134.85 397.668 134.548Z" fill="#0EB80E"/>
<path d="M405.803 139.22C405.571 139.065 405.433 138.875 405.389 138.652C405.365 138.424 405.439 138.182 405.61 137.926L410.607 130.469C410.738 130.274 410.872 130.126 411.011 130.025C411.162 129.932 411.312 129.891 411.463 129.904C411.621 129.904 411.786 129.962 411.956 130.076C412.115 130.182 412.228 130.302 412.297 130.437C412.374 130.559 412.421 130.687 412.437 130.821C412.465 130.964 412.469 131.116 412.448 131.279L411.9 138.618L418.461 135.308C418.624 135.223 418.77 135.163 418.9 135.126C419.031 135.09 419.167 135.084 419.309 135.109C419.452 135.134 419.602 135.199 419.76 135.305C420.016 135.477 420.152 135.682 420.168 135.922C420.192 136.15 420.106 136.41 419.91 136.703L414.913 144.16C414.741 144.415 414.54 144.572 414.308 144.628C414.096 144.68 413.875 144.629 413.643 144.474C413.412 144.319 413.274 144.129 413.229 143.905C413.193 143.669 413.261 143.423 413.433 143.168L417.658 136.862L418.078 137.144L411.566 140.381C411.44 140.437 411.305 140.48 411.163 140.508C411.029 140.524 410.882 140.479 410.724 140.373C410.553 140.258 410.45 140.136 410.414 140.006C410.398 139.872 410.392 139.735 410.396 139.597L410.895 132.331L411.298 132.6L407.072 138.906C406.901 139.162 406.705 139.322 406.486 139.386C406.274 139.439 406.046 139.383 405.803 139.22Z" fill="#0EB80E"/>
<path d="M427.912 155.558C427.084 154.856 426.515 154.076 426.205 153.217C425.904 152.347 425.861 151.455 426.077 150.543C426.303 149.619 426.785 148.72 427.525 147.847C428.075 147.198 428.657 146.692 429.272 146.329C429.899 145.976 430.537 145.767 431.187 145.703C431.847 145.628 432.504 145.703 433.157 145.93C433.822 146.167 434.468 146.55 435.094 147.081C435.486 147.413 435.848 147.826 436.18 148.319C436.512 148.811 436.744 149.354 436.876 149.947C436.924 150.141 436.912 150.313 436.841 150.465C436.78 150.605 436.68 150.723 436.543 150.817C436.416 150.921 436.27 150.98 436.105 150.994C435.96 151.006 435.816 150.961 435.672 150.858C435.539 150.765 435.438 150.612 435.369 150.399C435.271 149.97 435.109 149.583 434.882 149.237C434.667 148.901 434.425 148.62 434.157 148.392C433.743 148.041 433.317 147.795 432.878 147.655C432.451 147.524 432.017 147.492 431.575 147.56C431.154 147.626 430.731 147.796 430.306 148.07C429.891 148.334 429.479 148.706 429.071 149.187C428.266 150.138 427.854 151.077 427.837 152.005C427.83 152.921 428.234 153.726 429.051 154.418C429.32 154.645 429.633 154.843 429.99 155.011C430.357 155.168 430.765 155.265 431.216 155.3C431.437 155.334 431.6 155.414 431.704 155.541C431.817 155.656 431.875 155.792 431.878 155.948C431.901 156.102 431.872 156.25 431.79 156.392C431.717 156.523 431.607 156.631 431.458 156.716C431.32 156.811 431.156 156.845 430.967 156.819C430.381 156.785 429.823 156.649 429.294 156.411C428.764 156.174 428.304 155.89 427.912 155.558Z" fill="#0EB80E"/>
<path d="M437.104 167.688C436.922 167.496 436.835 167.286 436.841 167.058C436.847 166.83 436.957 166.615 437.17 166.414L439.136 164.554C439.615 164.101 440.082 164.114 440.535 164.593L441.291 165.392L440.156 164.8C440.811 164.746 441.438 164.597 442.036 164.355C442.645 164.102 443.261 163.75 443.886 163.301C444.531 162.852 445.211 162.29 445.925 161.615L447.379 160.239C447.646 159.987 447.914 159.865 448.183 159.872C448.473 159.88 448.744 160.017 448.996 160.284L452.761 164.263C453.013 164.53 453.13 164.803 453.112 165.082C453.114 165.362 452.983 165.628 452.716 165.88L446.259 171.988L446.296 170.682L447.43 171.881C447.651 172.115 447.754 172.351 447.737 172.59C447.74 172.828 447.625 173.059 447.391 173.28L445.425 175.14C444.977 175.563 444.557 175.567 444.164 175.152C443.963 174.939 443.87 174.723 443.886 174.506C443.903 174.288 444.018 174.079 444.231 173.877L445.749 172.441L439.883 166.24L438.365 167.676C437.917 168.1 437.497 168.104 437.104 167.688ZM441.957 166.095L445.63 169.979L451.112 164.793L448.285 161.805L446.863 163.15C446.096 163.876 445.274 164.501 444.398 165.027C443.543 165.553 442.73 165.909 441.957 166.095Z" fill="#0EB80E"/>
<path d="M452.321 180.393C451.589 179.496 451.128 178.584 450.94 177.659C450.773 176.735 450.863 175.837 451.212 174.965C451.572 174.085 452.189 173.287 453.064 172.573C453.927 171.867 454.822 171.421 455.748 171.233C456.683 171.056 457.578 171.121 458.433 171.426C459.297 171.742 460.05 172.292 460.69 173.076C461.144 173.633 461.456 174.212 461.625 174.812C461.814 175.415 461.863 176.019 461.77 176.625C461.678 177.231 461.441 177.822 461.06 178.398C460.699 178.977 460.201 179.526 459.564 180.046C459.383 180.194 459.194 180.253 458.999 180.223C458.825 180.195 458.654 180.079 458.487 179.874L453.728 174.047L454.716 173.24L459.156 178.675L458.68 178.58C459.271 178.098 459.697 177.599 459.957 177.083C460.238 176.57 460.348 176.054 460.285 175.537C460.232 175.031 460.001 174.529 459.593 174.029C459.148 173.484 458.637 173.124 458.06 172.952C457.495 172.769 456.896 172.766 456.263 172.942C455.642 173.109 455.03 173.438 454.428 173.93L454.326 174.013C453.303 174.848 452.73 175.723 452.607 176.638C452.483 177.554 452.797 178.471 453.548 179.392C453.845 179.755 454.192 180.087 454.589 180.388C454.995 180.7 455.462 180.934 455.988 181.092C456.229 181.179 456.4 181.295 456.5 181.441C456.62 181.588 456.672 181.745 456.656 181.91C456.651 182.066 456.595 182.206 456.488 182.331C456.393 182.446 456.254 182.531 456.072 182.586C455.889 182.64 455.682 182.63 455.449 182.554C454.882 182.393 454.311 182.111 453.737 181.709C453.183 181.309 452.711 180.871 452.321 180.393Z" fill="#0EB80E"/>
<path d="M459.663 189.868C459.476 189.606 459.403 189.351 459.444 189.106C459.485 188.86 459.643 188.64 459.917 188.444L466.617 183.667L464.803 181.124C464.463 180.646 464.514 180.25 464.955 179.935C465.158 179.79 465.36 179.745 465.562 179.8C465.775 179.846 465.958 179.976 466.111 180.191L470.888 186.891C471.237 187.381 471.196 187.779 470.766 188.085C470.551 188.238 470.337 188.292 470.124 188.246C469.932 188.203 469.75 188.062 469.58 187.823L467.779 185.297L461.08 190.074C460.805 190.27 460.545 190.347 460.299 190.306C460.062 190.277 459.85 190.131 459.663 189.868Z" fill="#0EB80E"/>
<path d="M465.284 197.736C465.106 197.449 465.046 197.185 465.103 196.942C465.16 196.7 465.332 196.49 465.619 196.313L473.123 191.673C473.41 191.496 473.668 191.44 473.898 191.504C474.14 191.562 474.346 191.727 474.516 192.002C474.686 192.276 474.738 192.528 474.673 192.758C474.628 192.993 474.463 193.199 474.176 193.376L471.706 194.903L473.36 197.579C474.085 198.752 474.377 199.796 474.236 200.711C474.107 201.618 473.569 202.365 472.621 202.951C472.022 203.321 471.409 203.502 470.783 203.492C470.164 203.496 469.564 203.306 468.983 202.924C468.422 202.547 467.91 201.984 467.447 201.235L465.284 197.736ZM466.972 197.831L468.499 200.3C468.923 200.987 469.394 201.428 469.913 201.625C470.443 201.814 471.014 201.72 471.626 201.342C472.225 200.971 472.552 200.51 472.607 199.959C472.663 199.407 472.478 198.788 472.054 198.102L470.527 195.632L466.972 197.831Z" fill="#0EB80E"/>
<path d="M472.099 209.283C471.971 209.035 471.942 208.803 472.011 208.585C472.1 208.374 472.282 208.198 472.555 208.057L480.531 203.939C480.739 203.831 480.929 203.766 481.099 203.744C481.276 203.735 481.427 203.773 481.553 203.856C481.692 203.933 481.808 204.063 481.902 204.245C481.99 204.415 482.031 204.575 482.027 204.726C482.035 204.87 482.014 205.005 481.963 205.13C481.919 205.269 481.849 205.404 481.752 205.536L477.729 211.699L485.073 211.968C485.256 211.972 485.414 211.989 485.546 212.02C485.677 212.052 485.799 212.112 485.912 212.203C486.025 212.293 486.125 212.423 486.212 212.592C486.354 212.866 486.373 213.112 486.271 213.33C486.182 213.541 485.981 213.727 485.668 213.888L477.693 218.007C477.419 218.148 477.167 218.187 476.937 218.125C476.726 218.068 476.557 217.917 476.429 217.669C476.301 217.421 476.272 217.189 476.341 216.971C476.424 216.747 476.602 216.565 476.875 216.423L483.619 212.941L483.851 213.391L476.586 213.082C476.448 213.07 476.31 213.043 476.172 212.998C476.046 212.948 475.94 212.838 475.852 212.668C475.758 212.486 475.727 212.329 475.758 212.197C475.809 212.072 475.869 211.95 475.94 211.831L479.885 205.708L480.107 206.138L473.363 209.621C473.089 209.762 472.84 209.808 472.617 209.758C472.406 209.702 472.233 209.544 472.099 209.283Z" fill="#0EB80E"/>
<path d="M479.527 224.175C479.454 223.999 479.422 223.829 479.433 223.665C479.45 223.515 479.519 223.375 479.639 223.246C479.76 223.116 479.935 223.003 480.165 222.906L488.447 219.444C488.731 219.325 488.978 219.309 489.189 219.396C489.414 219.477 489.583 219.652 489.696 219.923C489.804 220.18 489.807 220.417 489.707 220.634C489.621 220.845 489.435 221.01 489.151 221.129L481.824 224.192L481.603 223.665L491.628 226.198C491.822 226.244 492.014 226.322 492.204 226.434C492.393 226.545 492.545 226.736 492.658 227.007C492.737 227.196 492.768 227.366 492.752 227.516C492.735 227.666 492.663 227.799 492.537 227.916C492.43 228.04 492.262 228.15 492.032 228.246L483.73 231.717C483.459 231.83 483.212 231.847 482.987 231.766C482.768 231.698 482.605 231.536 482.497 231.279C482.379 230.995 482.369 230.744 482.469 230.527C482.575 230.324 482.763 230.166 483.034 230.053L490.382 226.981L490.602 227.509L480.557 224.984C480.363 224.938 480.171 224.859 479.981 224.748C479.792 224.636 479.64 224.445 479.527 224.175Z" fill="#0EB80E"/>
<path d="M488.292 248.09C487.998 247.076 487.962 246.132 488.182 245.259C488.403 244.386 488.856 243.629 489.54 242.988C490.225 242.347 491.11 241.87 492.195 241.556C493.012 241.319 493.777 241.22 494.49 241.257C495.222 241.305 495.883 241.48 496.475 241.782C497.066 242.085 497.569 242.504 497.984 243.04C498.417 243.587 498.744 244.241 498.964 245.001C499.257 246.016 499.294 246.959 499.073 247.832C498.853 248.706 498.4 249.463 497.715 250.104C497.045 250.741 496.167 251.216 495.082 251.53C494.265 251.767 493.491 251.861 492.759 251.813C492.032 251.779 491.372 251.611 490.781 251.309C490.19 251.007 489.678 250.583 489.245 250.036C488.83 249.5 488.512 248.851 488.292 248.09ZM489.813 247.65C489.993 248.27 490.296 248.762 490.722 249.128C491.153 249.507 491.684 249.735 492.317 249.811C492.954 249.902 493.688 249.826 494.519 249.586C495.759 249.227 496.623 248.679 497.112 247.942C497.601 247.205 497.711 246.372 497.442 245.442C497.267 244.836 496.964 244.343 496.534 243.964C496.121 243.595 495.597 243.365 494.96 243.275C494.323 243.184 493.589 243.259 492.758 243.5C491.518 243.859 490.646 244.409 490.143 245.15C489.658 245.901 489.548 246.734 489.813 247.65Z" fill="#0EB80E"/>
<path d="M491.655 260.851C491.587 260.536 491.62 260.273 491.754 260.064C491.889 259.854 492.121 259.714 492.451 259.642L500.491 257.896L499.828 254.843C499.704 254.27 499.906 253.926 500.437 253.81C500.68 253.757 500.884 253.796 501.047 253.925C501.225 254.052 501.341 254.244 501.398 254.502L503.144 262.543C503.272 263.13 503.078 263.48 502.562 263.592C502.304 263.648 502.086 263.613 501.908 263.486C501.748 263.371 501.637 263.17 501.575 262.884L500.916 259.852L492.876 261.599C492.546 261.67 492.277 261.639 492.067 261.504C491.861 261.384 491.724 261.166 491.655 260.851Z" fill="#0EB80E"/>
<path d="M494.913 278.076C494.878 277.726 494.931 277.455 495.074 277.264C495.232 277.085 495.457 276.981 495.749 276.951C495.924 276.934 496.104 276.959 496.288 277.029C496.472 277.099 496.661 277.212 496.854 277.369L502.487 281.636C503.335 282.286 504.104 282.739 504.793 282.992C505.482 283.246 506.163 283.339 506.834 283.27C507.68 283.183 508.295 282.855 508.679 282.285C509.079 281.728 509.229 280.954 509.127 279.961C509.064 279.349 508.902 278.768 508.639 278.22C508.393 277.685 508.038 277.169 507.574 276.67C507.407 276.481 507.322 276.298 507.319 276.122C507.316 275.945 507.366 275.785 507.469 275.642C507.588 275.512 507.725 275.409 507.88 275.334C508.05 275.273 508.233 275.261 508.429 275.3C508.625 275.339 508.798 275.447 508.949 275.623C509.477 276.174 509.912 276.829 510.256 277.59C510.599 278.351 510.813 279.148 510.898 279.979C511.006 281.03 510.928 281.93 510.666 282.679C510.419 283.441 510.002 284.044 509.413 284.488C508.839 284.93 508.107 285.196 507.217 285.288C506.604 285.35 505.988 285.31 505.369 285.167C504.765 285.022 504.135 284.777 503.481 284.431C502.828 284.1 502.141 283.654 501.42 283.094L496.161 279.032L496.752 278.972L497.487 286.15C497.516 286.442 497.466 286.669 497.335 286.829C497.205 287.005 497.002 287.107 496.725 287.135C496.448 287.163 496.221 287.106 496.044 286.961C495.883 286.83 495.787 286.619 495.758 286.327L494.913 278.076Z" fill="#0EB80E"/>
<path d="M496.369 300.696C496.374 300.418 496.459 300.199 496.624 300.041C496.803 299.898 497.046 299.829 497.354 299.835L506.328 300.012C506.563 300.016 506.76 300.049 506.92 300.111C507.08 300.188 507.196 300.293 507.266 300.426C507.352 300.56 507.392 300.729 507.388 300.935C507.385 301.125 507.345 301.286 507.269 301.416C507.208 301.547 507.125 301.656 507.02 301.742C506.916 301.842 506.789 301.928 506.641 301.998L500.169 305.502L506.499 309.235C506.659 309.326 506.789 309.416 506.89 309.506C506.991 309.596 507.069 309.708 507.125 309.841C507.181 309.974 507.208 310.136 507.204 310.327C507.198 310.635 507.098 310.86 506.905 311.003C506.726 311.146 506.46 311.214 506.108 311.207L497.134 311.031C496.826 311.025 496.586 310.94 496.413 310.775C496.255 310.625 496.178 310.411 496.184 310.132C496.189 309.854 496.274 309.635 496.438 309.477C496.618 309.319 496.861 309.243 497.169 309.249L504.758 309.399L504.748 309.904L498.506 306.173C498.39 306.098 498.282 306.007 498.181 305.903C498.095 305.798 498.054 305.651 498.058 305.46C498.062 305.255 498.109 305.102 498.199 305.001C498.303 304.915 498.415 304.836 498.533 304.765L504.917 301.26L504.908 301.744L497.319 301.595C497.011 301.589 496.771 301.511 496.598 301.361C496.439 301.211 496.363 300.989 496.369 300.696Z" fill="#0EB80E"/>
<path d="M495.389 321.09C495.5 319.936 495.815 318.965 496.333 318.175C496.865 317.401 497.561 316.828 498.423 316.454C499.299 316.082 500.299 315.95 501.423 316.059C502.532 316.166 503.482 316.479 504.272 316.998C505.06 317.531 505.65 318.206 506.043 319.025C506.434 319.859 506.58 320.779 506.483 321.787C506.414 322.502 506.228 323.132 505.924 323.678C505.634 324.239 505.243 324.702 504.751 325.067C504.259 325.432 503.675 325.685 502.998 325.826C502.335 325.983 501.594 326.022 500.777 325.943C500.543 325.92 500.368 325.829 500.25 325.671C500.146 325.528 500.107 325.325 500.132 325.063L500.856 317.574L502.126 317.696L501.451 324.682L501.18 324.28C501.94 324.353 502.593 324.299 503.141 324.116C503.703 323.949 504.143 323.66 504.463 323.249C504.781 322.852 504.971 322.333 505.034 321.691C505.101 320.99 504.991 320.375 504.703 319.846C504.43 319.319 504.007 318.895 503.434 318.574C502.875 318.255 502.209 318.058 501.436 317.983L501.304 317.97C499.99 317.843 498.967 318.061 498.235 318.624C497.503 319.187 497.08 320.06 496.965 321.242C496.92 321.709 496.933 322.189 497.003 322.682C497.072 323.19 497.237 323.685 497.5 324.167C497.61 324.399 497.65 324.602 497.618 324.775C497.6 324.965 497.527 325.113 497.399 325.218C497.285 325.325 497.147 325.385 496.983 325.399C496.834 325.414 496.676 325.377 496.508 325.287C496.34 325.197 496.2 325.043 496.088 324.826C495.799 324.312 495.592 323.71 495.467 323.02C495.355 322.346 495.329 321.703 495.389 321.09Z" fill="#0EB80E"/>
<path d="M493.777 333.727C493.952 332.656 494.328 331.766 494.904 331.058C495.495 330.352 496.238 329.856 497.131 329.571C498.039 329.288 499.058 329.239 500.187 329.424C501.026 329.561 501.76 329.8 502.388 330.14C503.014 330.495 503.522 330.934 503.912 331.459C504.316 331.985 504.589 332.587 504.731 333.264C504.871 333.956 504.875 334.707 504.742 335.518C504.659 336.024 504.492 336.547 504.241 337.085C503.989 337.624 503.644 338.102 503.204 338.521C503.062 338.661 502.908 338.74 502.742 338.758C502.59 338.777 502.438 338.753 502.286 338.683C502.131 338.628 502.006 338.533 501.909 338.399C501.824 338.281 501.789 338.134 501.802 337.958C501.814 337.796 501.893 337.631 502.04 337.461C502.357 337.157 502.605 336.818 502.785 336.446C502.962 336.089 503.079 335.736 503.136 335.389C503.223 334.853 503.215 334.362 503.109 333.913C503.002 333.48 502.805 333.091 502.52 332.747C502.246 332.42 501.882 332.145 501.428 331.922C500.989 331.702 500.458 331.541 499.835 331.439C498.605 331.238 497.588 331.37 496.784 331.833C495.995 332.298 495.514 333.059 495.341 334.116C495.284 334.463 495.276 334.833 495.316 335.226C495.37 335.622 495.498 336.021 495.7 336.426C495.785 336.633 495.8 336.814 495.745 336.968C495.704 337.125 495.618 337.245 495.485 337.327C495.365 337.426 495.223 337.478 495.059 337.48C494.91 337.486 494.76 337.446 494.61 337.363C494.458 337.293 494.344 337.171 494.269 336.995C493.997 336.475 493.827 335.927 493.757 335.351C493.688 334.775 493.695 334.233 493.777 333.727Z" fill="#0EB80E"/>
<path d="M490.885 348.401C490.952 348.115 491.081 347.912 491.275 347.791C491.483 347.674 491.737 347.65 492.037 347.719L495.145 348.438L495.477 347.002C495.599 346.473 495.569 345.985 495.387 345.536C495.205 345.087 494.933 344.701 494.571 344.376L492.786 342.721C492.576 342.522 492.459 342.315 492.434 342.098C492.391 341.892 492.421 341.696 492.525 341.509C492.611 341.333 492.741 341.191 492.917 341.081C493.093 340.971 493.286 340.918 493.496 340.921C493.703 340.939 493.897 341.044 494.078 341.236L495.473 342.53C495.817 342.865 496.085 343.266 496.278 343.732C496.472 344.199 496.519 344.646 496.419 345.075L496.35 345.375L496.157 345.33C496.428 344.158 496.911 343.307 497.606 342.775C498.301 342.243 499.135 342.09 500.106 342.315C500.749 342.463 501.274 342.735 501.679 343.13C502.095 343.542 502.366 344.064 502.491 344.695C502.616 345.326 502.58 346.071 502.381 346.928L501.494 350.765C501.421 351.079 501.279 351.302 501.068 351.434C500.854 351.58 500.582 351.615 500.253 351.539L491.615 349.541C491.315 349.472 491.099 349.331 490.968 349.12C490.847 348.927 490.819 348.687 490.885 348.401ZM497.105 346.114L496.495 348.75L500.332 349.638L500.942 347.001C501.13 346.187 501.097 345.547 500.844 345.082C500.604 344.62 500.184 344.32 499.584 344.181C498.984 344.042 498.468 344.126 498.036 344.432C497.604 344.739 497.293 345.299 497.105 346.114Z" fill="#0EB80E"/>
<path d="M483.583 363.579C483.666 363.313 483.8 363.132 483.984 363.036C484.167 362.94 484.399 362.936 484.679 363.024L486.716 363.662L489.176 355.81C489.277 355.488 489.437 355.27 489.658 355.154C489.879 355.039 490.15 355.032 490.472 355.133L498.89 357.77C499.212 357.871 499.424 358.03 499.525 358.246C499.64 358.466 499.65 358.731 499.553 359.039C499.457 359.347 499.3 359.551 499.084 359.652C498.878 359.772 498.613 359.782 498.291 359.681L490.419 357.214L488.847 362.231L496.719 364.698C497.041 364.799 497.253 364.958 497.354 365.174C497.469 365.394 497.479 365.659 497.382 365.966C497.286 366.274 497.13 366.479 496.913 366.58C496.707 366.7 496.443 366.709 496.121 366.609L487.345 363.859L488.524 363.26L488.024 364.856C487.932 365.15 487.778 365.347 487.562 365.448C487.355 365.568 487.105 365.582 486.811 365.49L484.166 364.661C483.606 364.486 483.412 364.125 483.583 363.579Z" fill="#0EB80E"/>
<path d="M482.924 373.574C483.35 372.497 483.921 371.65 484.638 371.035C485.362 370.438 486.19 370.079 487.121 369.959C488.066 369.843 489.063 369.993 490.113 370.408C491.15 370.818 491.976 371.382 492.592 372.098C493.202 372.828 493.582 373.641 493.733 374.537C493.878 375.446 493.765 376.371 493.393 377.312C493.128 377.98 492.775 378.535 492.333 378.975C491.899 379.434 491.395 379.771 490.821 379.986C490.248 380.2 489.616 380.282 488.927 380.23C488.246 380.197 487.523 380.03 486.76 379.728C486.541 379.642 486.398 379.506 486.329 379.321C486.268 379.155 486.287 378.95 486.384 378.704L489.15 371.707L490.337 372.176L487.756 378.703L487.607 378.242C488.317 378.522 488.96 378.65 489.537 378.626C490.123 378.621 490.626 378.465 491.047 378.159C491.463 377.866 491.789 377.419 492.026 376.819C492.285 376.164 492.349 375.543 492.219 374.955C492.102 374.373 491.813 373.848 491.351 373.382C490.902 372.921 490.317 372.547 489.594 372.261L489.471 372.213C488.244 371.727 487.2 371.654 486.341 371.992C485.482 372.331 484.833 373.052 484.397 374.157C484.224 374.593 484.103 375.058 484.034 375.551C483.96 376.058 483.983 376.58 484.102 377.116C484.144 377.369 484.126 377.575 484.047 377.733C483.977 377.91 483.866 378.032 483.714 378.098C483.575 378.169 483.425 378.189 483.264 378.157C483.117 378.13 482.975 378.05 482.839 377.917C482.702 377.785 482.61 377.598 482.563 377.359C482.427 376.785 482.395 376.149 482.465 375.451C482.544 374.773 482.697 374.147 482.924 373.574Z" fill="#0EB80E"/>
<path d="M479.461 382.487C479.607 382.183 479.797 381.989 480.032 381.907C480.266 381.824 480.536 381.855 480.84 382.001L488.64 385.731C488.944 385.877 489.138 386.067 489.221 386.301C489.303 386.536 489.272 386.806 489.127 387.11L487.266 391C486.893 391.781 486.49 392.368 486.057 392.763C485.618 393.171 485.156 393.405 484.672 393.466C484.188 393.527 483.668 393.425 483.112 393.159C482.503 392.868 482.089 392.409 481.868 391.783C481.647 391.158 481.661 390.482 481.911 389.756L482.169 389.879C481.75 390.687 481.205 391.214 480.534 391.462C479.876 391.717 479.202 391.679 478.514 391.35C477.694 390.958 477.185 390.34 476.986 389.497C476.801 388.661 476.981 387.674 477.525 386.536L479.461 382.487ZM480.282 383.831L478.763 387.006C478.459 387.641 478.361 388.188 478.467 388.645C478.58 389.122 478.888 389.481 479.391 389.721C479.907 389.968 480.38 389.983 480.809 389.765C481.232 389.561 481.595 389.141 481.899 388.506L483.418 385.331L480.282 383.831ZM484.608 385.9L483.166 388.917C482.893 389.486 482.817 389.986 482.936 390.417C483.049 390.861 483.337 391.193 483.8 391.415C484.276 391.643 484.716 391.658 485.119 391.461C485.516 391.277 485.851 390.9 486.123 390.331L487.566 387.314L484.608 385.9Z" fill="#0EB80E"/>
<path d="M476.079 406.314C476.3 406.209 476.499 406.194 476.676 406.269C476.866 406.352 477.019 406.523 477.134 406.784L478.369 409.305L477.864 409.329L479.268 406.887C479.402 406.642 479.565 406.475 479.757 406.387C479.942 406.312 480.14 406.339 480.353 406.47C480.54 406.586 480.641 406.743 480.656 406.942C480.676 407.161 480.6 407.382 480.429 407.603L478.856 409.942L478.657 409.509L481.465 409.484C481.762 409.478 481.99 409.541 482.149 409.674C482.309 409.807 482.378 409.988 482.357 410.216C482.37 410.448 482.282 410.618 482.094 410.726C481.899 410.847 481.665 410.892 481.391 410.861L478.752 410.653L478.879 410.448L480.258 412.695C480.401 412.938 480.466 413.168 480.453 413.384C480.433 413.613 480.312 413.78 480.092 413.885C479.884 413.998 479.689 414.007 479.507 413.912C479.317 413.829 479.164 413.657 479.049 413.397L477.832 410.887L478.289 410.859L476.903 413.313C476.782 413.565 476.623 413.725 476.426 413.793C476.241 413.869 476.055 413.849 475.868 413.733C475.656 413.602 475.542 413.437 475.527 413.238C475.512 413.04 475.584 412.825 475.743 412.596L477.297 410.246L477.514 410.69L474.706 410.715C474.422 410.729 474.206 410.673 474.06 410.548C473.905 410.436 473.826 410.257 473.821 410.013C473.837 409.764 473.932 409.582 474.107 409.466C474.282 409.35 474.511 409.301 474.792 409.32L477.419 409.546L477.292 409.752L475.925 407.486C475.782 407.242 475.717 407.013 475.73 406.796C475.755 406.588 475.872 406.427 476.079 406.314Z" fill="#0EB80E"/>
<path d="M456.16 414.589C456.348 414.346 456.566 414.208 456.812 414.176C457.059 414.144 457.31 414.227 457.566 414.425L467.82 422.346C468.087 422.552 468.231 422.774 468.251 423.012C468.283 423.259 468.204 423.505 468.016 423.748C467.819 424.004 467.601 424.141 467.363 424.161C467.128 424.202 466.877 424.119 466.61 423.913L465.026 422.689L465.487 422.74C465.982 423.419 466.21 424.179 466.172 425.02C466.133 425.862 465.818 426.665 465.227 427.431C464.644 428.186 463.957 428.703 463.167 428.982C462.389 429.27 461.547 429.315 460.644 429.117C459.752 428.929 458.853 428.485 457.948 427.785C457.054 427.095 456.391 426.333 455.96 425.5C455.532 424.687 455.357 423.857 455.437 423.01C455.519 422.184 455.852 421.394 456.434 420.639C457.017 419.885 457.711 419.383 458.515 419.133C459.32 418.884 460.107 418.908 460.877 419.207L460.729 419.398L456.342 416.009C456.087 415.812 455.943 415.59 455.911 415.343C455.88 415.096 455.962 414.845 456.16 414.589ZM457.97 421.242C457.585 421.741 457.371 422.271 457.327 422.83C457.275 423.402 457.401 423.971 457.703 424.539C458.006 425.106 458.5 425.655 459.185 426.184C460.206 426.973 461.159 427.347 462.042 427.307C462.926 427.267 463.664 426.863 464.256 426.097C464.65 425.587 464.873 425.046 464.925 424.474C464.98 423.924 464.856 423.364 464.553 422.797C464.241 422.241 463.743 421.698 463.058 421.169C462.037 420.38 461.079 420.001 460.183 420.033C459.3 420.073 458.562 420.476 457.97 421.242Z" fill="#0EB80E"/>
<path d="M448.004 430.907C448.494 430.362 449.05 429.965 449.67 429.714C450.281 429.475 450.884 429.396 451.481 429.479C452.067 429.573 452.589 429.826 453.047 430.239C453.635 430.769 453.966 431.333 454.039 431.932C454.112 432.53 453.905 433.242 453.418 434.067C452.943 434.902 452.175 435.908 451.115 437.085L450.423 437.853L449.474 436.999L450.137 436.263C450.893 435.424 451.453 434.725 451.819 434.166C452.174 433.618 452.343 433.157 452.323 432.785C452.315 432.422 452.141 432.088 451.803 431.784C451.378 431.401 450.897 431.234 450.36 431.283C449.812 431.342 449.303 431.634 448.832 432.157C448.459 432.571 448.228 433.024 448.14 433.517C448.062 434.02 448.109 434.516 448.28 435.005C448.462 435.505 448.776 435.955 449.223 436.358L451.103 438.051C451.746 438.63 452.327 438.917 452.846 438.91C453.375 438.914 453.92 438.605 454.48 437.984C454.803 437.624 455.088 437.21 455.334 436.74C455.579 436.27 455.785 435.735 455.951 435.134C456.022 434.902 456.122 434.736 456.252 434.636C456.392 434.545 456.546 434.506 456.713 434.518C456.881 434.551 457.03 434.616 457.159 434.713C457.29 434.831 457.391 434.971 457.462 435.133C457.523 435.307 457.512 435.494 457.429 435.696C457.237 436.391 456.979 437.017 456.655 437.574C456.332 438.152 455.984 438.648 455.611 439.062C454.973 439.77 454.333 440.25 453.692 440.502C453.062 440.763 452.409 440.797 451.735 440.604C451.071 440.421 450.379 440.005 449.66 439.357L445.344 435.47C445.094 435.244 444.957 435.013 444.934 434.775C444.911 434.537 445.003 434.304 445.209 434.075C445.406 433.857 445.628 433.742 445.877 433.729C446.115 433.727 446.36 433.839 446.611 434.064L447.771 435.11L447.639 435.257C447.314 434.806 447.113 434.329 447.034 433.824C446.956 433.319 446.997 432.813 447.158 432.307C447.319 431.82 447.601 431.354 448.004 430.907Z" fill="#0EB80E"/>
<path d="M437.98 441.432C438.763 440.68 439.597 440.194 440.483 439.973C441.38 439.763 442.296 439.838 443.233 440.199C444.169 440.581 445.094 441.248 446.009 442.2L447.152 443.39C448.137 444.416 448.823 445.405 449.208 446.357C449.593 447.329 449.709 448.296 449.555 449.258C449.39 450.229 448.996 451.238 448.373 452.284L446.715 455.066C446.554 455.323 446.369 455.48 446.161 455.538C445.942 455.606 445.714 455.57 445.478 455.431C445.243 455.27 445.112 455.071 445.086 454.831C445.049 454.603 445.116 454.355 445.287 454.089L447.074 451.122C447.493 450.435 447.745 449.755 447.831 449.083C447.906 448.421 447.826 447.776 447.59 447.149C447.353 446.522 446.961 445.922 446.412 445.351L445.757 444.669L445.979 444.456C446.31 445.033 446.5 445.623 446.55 446.225C446.611 446.839 446.531 447.433 446.312 448.01C446.082 448.597 445.714 449.134 445.206 449.621C444.54 450.262 443.806 450.662 443.004 450.822C442.191 450.992 441.363 450.924 440.518 450.616C439.674 450.309 438.871 449.759 438.109 448.965C437.326 448.151 436.804 447.3 436.542 446.413C436.28 445.526 436.266 444.655 436.501 443.798C436.736 442.942 437.229 442.153 437.98 441.432ZM439.141 442.513C438.654 442.981 438.343 443.483 438.208 444.019C438.083 444.567 438.129 445.133 438.345 445.718C438.551 446.313 438.943 446.913 439.523 447.516C440.376 448.404 441.243 448.893 442.123 448.984C442.992 449.084 443.781 448.794 444.49 448.113C444.966 447.656 445.271 447.149 445.407 446.591C445.542 446.055 445.507 445.499 445.301 444.924C445.104 444.36 444.737 443.798 444.199 443.237C443.284 442.285 442.393 441.749 441.524 441.628C440.654 441.527 439.86 441.822 439.141 442.513Z" fill="#0EB80E"/>
<path d="M427.968 450.529C428.781 449.854 429.631 449.444 430.52 449.298C431.409 449.151 432.283 449.264 433.145 449.636C434.006 450.008 434.797 450.628 435.518 451.497C436.061 452.152 436.458 452.814 436.708 453.483C436.956 454.173 437.06 454.849 437.019 455.512C436.978 456.175 436.794 456.803 436.468 457.398C436.14 458.013 435.671 458.574 435.062 459.079C434.249 459.754 433.398 460.164 432.51 460.31C431.621 460.457 430.746 460.344 429.885 459.972C429.033 459.611 428.247 458.997 427.526 458.127C426.983 457.473 426.587 456.8 426.339 456.111C426.079 455.43 425.97 454.759 426.011 454.096C426.052 453.433 426.236 452.794 426.564 452.179C426.891 451.584 427.359 451.034 427.968 450.529ZM428.979 451.748C428.483 452.16 428.152 452.634 427.988 453.171C427.812 453.717 427.815 454.295 427.998 454.906C428.169 455.526 428.531 456.169 429.084 456.835C429.908 457.828 430.755 458.402 431.626 458.556C432.497 458.71 433.305 458.478 434.05 457.86C434.536 457.458 434.866 456.983 435.042 456.437C435.216 455.912 435.217 455.339 435.046 454.719C434.875 454.099 434.513 453.456 433.96 452.79C433.136 451.796 432.284 451.217 431.403 451.052C430.521 450.907 429.713 451.139 428.979 451.748Z" fill="#0EB80E"/>
<path d="M416.857 459.299C417.119 459.11 417.373 459.036 417.619 459.077C417.864 459.117 418.086 459.274 418.283 459.548L423.085 466.229L425.622 464.405C426.098 464.063 426.495 464.112 426.811 464.553C426.957 464.755 427.003 464.957 426.949 465.159C426.903 465.372 426.773 465.555 426.559 465.71L419.878 470.512C419.39 470.863 418.991 470.824 418.683 470.395C418.529 470.181 418.475 469.967 418.52 469.754C418.562 469.561 418.702 469.379 418.941 469.208L421.459 467.397L416.657 460.716C416.46 460.442 416.382 460.183 416.422 459.937C416.45 459.7 416.595 459.487 416.857 459.299Z" fill="#0EB80E"/>
<path d="M407.213 465.85C407.835 465.461 408.479 465.233 409.144 465.163C409.797 465.102 410.399 465.193 410.949 465.438C411.487 465.69 411.919 466.078 412.245 466.601C412.664 467.273 412.826 467.906 412.73 468.502C412.635 469.097 412.239 469.724 411.544 470.382C410.856 471.053 409.84 471.808 408.496 472.646L407.619 473.193L406.943 472.111L407.783 471.587C408.742 470.989 409.474 470.472 409.979 470.036C410.472 469.607 410.761 469.211 410.846 468.847C410.938 468.496 410.863 468.128 410.623 467.742C410.32 467.256 409.904 466.963 409.374 466.861C408.831 466.768 408.261 466.907 407.664 467.28C407.191 467.574 406.844 467.946 406.623 468.396C406.409 468.857 406.317 469.347 406.346 469.864C406.383 470.395 406.56 470.915 406.879 471.425L408.217 473.572C408.675 474.306 409.155 474.742 409.655 474.879C410.163 475.029 410.772 474.882 411.481 474.44C411.892 474.184 412.28 473.864 412.646 473.48C413.012 473.097 413.357 472.639 413.683 472.108C413.815 471.904 413.957 471.772 414.11 471.712C414.27 471.664 414.429 471.669 414.586 471.726C414.738 471.804 414.863 471.908 414.961 472.037C415.054 472.186 415.112 472.349 415.135 472.524C415.146 472.708 415.084 472.885 414.948 473.056C414.571 473.671 414.15 474.202 413.685 474.647C413.215 475.113 412.744 475.494 412.271 475.789C411.462 476.293 410.714 476.578 410.029 476.642C409.351 476.72 408.714 476.572 408.119 476.2C407.532 475.84 406.982 475.25 406.47 474.428L403.397 469.5C403.218 469.214 403.151 468.953 403.194 468.719C403.238 468.484 403.391 468.285 403.652 468.122C403.901 467.967 404.147 467.917 404.389 467.974C404.619 468.038 404.823 468.213 405.002 468.499L405.828 469.824L405.66 469.929C405.473 469.407 405.411 468.892 405.475 468.385C405.54 467.878 405.719 467.404 406.013 466.961C406.303 466.538 406.703 466.168 407.213 465.85Z" fill="#0EB80E"/>
<path d="M394.028 473.575C395.051 473.032 396.035 472.758 396.98 472.755C397.919 472.771 398.781 473.035 399.568 473.547C400.362 474.072 401.023 474.834 401.553 475.831C402.076 476.816 402.339 477.78 402.343 478.725C402.333 479.676 402.095 480.542 401.629 481.321C401.15 482.107 400.463 482.737 399.569 483.212C398.935 483.549 398.306 483.742 397.684 483.79C397.056 483.858 396.454 483.787 395.878 483.578C395.302 483.369 394.768 483.021 394.277 482.535C393.78 482.068 393.339 481.472 392.954 480.747C392.844 480.539 392.823 480.343 392.89 480.158C392.952 479.992 393.099 479.847 393.333 479.724L399.978 476.195L400.576 477.321L394.378 480.613L394.564 480.166C394.921 480.839 395.328 481.354 395.783 481.711C396.232 482.087 396.716 482.294 397.235 482.334C397.741 482.381 398.279 482.253 398.849 481.95C399.471 481.62 399.923 481.189 400.205 480.657C400.494 480.138 400.614 479.551 400.565 478.896C400.523 478.254 400.32 477.59 399.956 476.904L399.894 476.787C399.275 475.621 398.528 474.888 397.655 474.588C396.781 474.288 395.82 474.417 394.771 474.974C394.356 475.194 393.963 475.47 393.59 475.8C393.205 476.138 392.884 476.549 392.627 477.035C392.494 477.254 392.347 477.399 392.185 477.469C392.016 477.558 391.853 477.578 391.694 477.53C391.542 477.494 391.416 477.412 391.314 477.283C391.219 477.168 391.163 477.015 391.145 476.825C391.128 476.635 391.178 476.434 391.298 476.221C391.567 475.696 391.955 475.191 392.461 474.706C392.962 474.241 393.484 473.864 394.028 473.575Z" fill="#0EB80E"/>
<path d="M385.778 477.906C386.033 477.795 386.267 477.781 386.48 477.864C386.685 477.967 386.849 478.159 386.972 478.442L390.561 486.669C390.654 486.884 390.707 487.077 390.717 487.249C390.715 487.426 390.668 487.574 390.576 487.694C390.49 487.828 390.353 487.936 390.165 488.018C389.99 488.094 389.828 488.125 389.677 488.11C389.533 488.109 389.4 488.08 389.278 488.021C389.143 487.968 389.012 487.888 388.886 487.783L383 483.367L382.252 490.677C382.236 490.86 382.208 491.017 382.169 491.146C382.129 491.275 382.06 491.393 381.963 491.5C381.865 491.606 381.729 491.698 381.554 491.774C381.272 491.897 381.026 491.9 380.815 491.784C380.61 491.682 380.437 491.469 380.297 491.146L376.708 482.919C376.585 482.637 376.562 482.383 376.639 482.157C376.709 481.95 376.872 481.791 377.127 481.68C377.383 481.569 377.617 481.555 377.829 481.638C378.047 481.735 378.218 481.924 378.341 482.207L381.376 489.163L380.912 489.366L381.695 482.136C381.715 481.999 381.752 481.863 381.805 481.728C381.863 481.606 381.98 481.507 382.155 481.431C382.343 481.349 382.502 481.328 382.631 481.367C382.753 481.426 382.871 481.495 382.985 481.573L388.837 485.909L388.393 486.102L385.358 479.145C385.235 478.863 385.206 478.612 385.27 478.392C385.34 478.186 385.509 478.024 385.778 477.906Z" fill="#0EB80E"/>
<path d="M360 487.815C361.038 487.498 362.002 487.441 362.893 487.644C363.787 487.861 364.56 488.307 365.212 488.982C365.867 489.671 366.362 490.562 366.697 491.656C366.946 492.47 367.057 493.233 367.03 493.947C366.989 494.665 366.82 495.315 366.522 495.897C366.229 496.493 365.81 497.004 365.266 497.432C364.708 497.863 364.036 498.199 363.251 498.439C362.76 498.59 362.217 498.671 361.623 498.684C361.029 498.697 360.447 498.599 359.877 498.39C359.688 498.325 359.549 498.222 359.46 498.081C359.375 497.953 359.33 497.806 359.325 497.639C359.306 497.476 359.335 497.321 359.413 497.175C359.481 497.047 359.597 496.95 359.761 496.884C359.911 496.823 360.094 496.821 360.311 496.877C360.725 497.027 361.138 497.099 361.551 497.096C361.95 497.096 362.318 497.045 362.655 496.942C363.174 496.783 363.611 496.558 363.966 496.265C364.307 495.976 364.569 495.628 364.75 495.22C364.923 494.83 365.008 494.382 365.007 493.876C365.009 493.384 364.919 492.837 364.734 492.234C364.369 491.042 363.801 490.188 363.03 489.672C362.263 489.171 361.368 489.077 360.344 489.39C360.007 489.493 359.672 489.649 359.337 489.859C359.007 490.083 358.705 490.374 358.432 490.734C358.284 490.902 358.128 490.996 357.965 491.015C357.807 491.048 357.661 491.024 357.529 490.941C357.386 490.878 357.278 490.773 357.202 490.627C357.132 490.495 357.1 490.344 357.109 490.172C357.104 490.005 357.164 489.849 357.288 489.704C357.634 489.23 358.05 488.834 358.535 488.517C359.021 488.199 359.509 487.966 360 487.815Z" fill="#0EB80E"/>
<path d="M345.129 489.009C345.388 488.96 345.612 489 345.801 489.128C345.989 489.256 346.111 489.465 346.166 489.753L346.67 492.411C346.794 493.06 346.531 493.446 345.883 493.569L344.802 493.774L345.913 493.138C345.605 493.719 345.392 494.326 345.274 494.961C345.158 495.61 345.121 496.318 345.162 497.087C345.192 497.872 345.298 498.748 345.482 499.713L345.855 501.68C345.924 502.04 345.882 502.332 345.73 502.555C345.567 502.795 345.305 502.949 344.945 503.018L339.563 504.039C339.203 504.108 338.91 504.059 338.684 503.893C338.447 503.744 338.294 503.489 338.226 503.129L336.568 494.397L337.648 495.132L336.027 495.44C335.71 495.5 335.455 495.459 335.264 495.316C335.061 495.191 334.93 494.969 334.869 494.652L334.365 491.994C334.25 491.389 334.473 491.033 335.035 490.926C335.323 490.871 335.554 490.909 335.729 491.041C335.903 491.172 336.017 491.381 336.072 491.67L336.462 493.723L344.848 492.13L344.458 490.077C344.343 489.472 344.567 489.116 345.129 489.009ZM343.851 493.955L338.599 494.952L340.006 502.365L344.048 501.598L343.683 499.674C343.486 498.637 343.402 497.608 343.433 496.587C343.451 495.583 343.59 494.706 343.851 493.955Z" fill="#0EB80E"/>
<path d="M325.506 495.105C326.657 494.975 327.673 495.081 328.553 495.423C329.42 495.783 330.126 496.345 330.671 497.109C331.217 497.889 331.554 498.839 331.681 499.961C331.807 501.069 331.698 502.063 331.356 502.943C330.998 503.825 330.46 504.543 329.74 505.097C329.006 505.653 328.137 505.988 327.131 506.102C326.417 506.183 325.762 506.132 325.165 505.949C324.556 505.782 324.021 505.496 323.562 505.09C323.103 504.685 322.734 504.166 322.455 503.533C322.164 502.917 321.972 502.201 321.879 501.385C321.853 501.152 321.905 500.961 322.036 500.813C322.154 500.682 322.344 500.601 322.606 500.571L330.082 499.722L330.226 500.99L323.253 501.782L323.59 501.434C323.676 502.192 323.865 502.82 324.158 503.318C324.438 503.832 324.812 504.203 325.281 504.43C325.735 504.659 326.282 504.737 326.923 504.664C327.623 504.585 328.201 504.35 328.659 503.958C329.118 503.581 329.445 503.079 329.639 502.452C329.835 501.839 329.889 501.147 329.802 500.374L329.787 500.243C329.638 498.931 329.212 497.976 328.509 497.377C327.806 496.778 326.865 496.545 325.684 496.679C325.218 496.732 324.751 496.844 324.283 497.015C323.801 497.188 323.352 497.453 322.935 497.811C322.731 497.967 322.541 498.047 322.364 498.053C322.175 498.074 322.015 498.033 321.885 497.93C321.757 497.841 321.669 497.718 321.622 497.561C321.576 497.419 321.58 497.256 321.633 497.073C321.686 496.89 321.807 496.721 321.996 496.567C322.439 496.177 322.985 495.849 323.634 495.584C324.27 495.334 324.894 495.175 325.506 495.105Z" fill="#0EB80E"/>
<path d="M314.459 496.125C314.782 496.109 315.035 496.185 315.22 496.352C315.404 496.519 315.505 496.77 315.522 497.107L315.935 505.325L319.055 505.168C319.641 505.139 319.947 505.395 319.975 505.937C319.987 506.186 319.916 506.381 319.762 506.521C319.608 506.675 319.399 506.759 319.135 506.772L310.918 507.185C310.317 507.215 310.004 506.967 309.977 506.439C309.964 506.176 310.034 505.967 310.188 505.812C310.328 505.673 310.544 505.596 310.837 505.581L313.935 505.425L313.523 497.208C313.506 496.871 313.581 496.61 313.748 496.426C313.9 496.242 314.137 496.142 314.459 496.125Z" fill="#0EB80E"/>
<path d="M304.615 496.655C304.953 496.66 305.208 496.752 305.381 496.931C305.554 497.11 305.638 497.368 305.633 497.705L305.492 506.526C305.486 506.863 305.394 507.111 305.216 507.27C305.037 507.443 304.786 507.527 304.464 507.522C304.141 507.517 303.901 507.425 303.742 507.246C303.569 507.082 303.485 506.831 303.49 506.494L303.536 503.59L300.391 503.54C299.012 503.518 297.976 503.201 297.282 502.588C296.587 501.99 296.249 501.134 296.267 500.02C296.278 499.316 296.456 498.703 296.802 498.18C297.133 497.657 297.616 497.254 298.252 496.971C298.872 496.702 299.622 496.575 300.502 496.589L304.615 496.655ZM303.625 498.025L300.722 497.979C299.915 497.966 299.289 498.124 298.844 498.455C298.398 498.8 298.17 499.331 298.158 500.05C298.147 500.754 298.359 501.278 298.793 501.622C299.228 501.967 299.848 502.145 300.655 502.158L303.559 502.205L303.625 498.025Z" fill="#0EB80E"/>
<path d="M291.388 496.197C291.666 496.223 291.877 496.324 292.023 496.5C292.153 496.688 292.203 496.936 292.175 497.243L291.344 506.18C291.322 506.414 291.274 506.608 291.201 506.764C291.113 506.917 291 507.025 290.862 507.086C290.722 507.161 290.55 507.189 290.346 507.17C290.156 507.152 289.999 507.101 289.874 507.016C289.748 506.945 289.646 506.855 289.568 506.744C289.475 506.632 289.399 506.5 289.34 506.347L286.318 499.637L282.133 505.677C282.03 505.83 281.93 505.953 281.833 506.047C281.736 506.141 281.619 506.211 281.482 506.257C281.345 506.304 281.182 506.318 280.992 506.3C280.685 506.272 280.468 506.156 280.339 505.952C280.21 505.763 280.161 505.494 280.194 505.143L281.025 496.206C281.053 495.899 281.156 495.666 281.333 495.505C281.494 495.358 281.713 495.298 281.991 495.324C282.268 495.349 282.48 495.45 282.626 495.626C282.77 495.816 282.828 496.064 282.799 496.371L282.096 503.928L281.593 503.881L285.77 497.929C285.854 497.819 285.951 497.717 286.063 497.625C286.174 497.546 286.324 497.516 286.514 497.534C286.718 497.553 286.867 497.611 286.961 497.708C287.039 497.818 287.11 497.935 287.172 498.059L290.201 504.682L289.72 504.637L290.422 497.08C290.451 496.773 290.546 496.539 290.709 496.377C290.87 496.23 291.096 496.17 291.388 496.197Z" fill="#0EB80E"/>
<path d="M274.715 494.428C274.903 494.461 275.062 494.526 275.194 494.623C275.312 494.718 275.393 494.852 275.437 495.023C275.482 495.195 275.482 495.403 275.44 495.649L273.896 504.491C273.843 504.795 273.723 505.012 273.537 505.143C273.348 505.289 273.109 505.336 272.82 505.286C272.545 505.238 272.343 505.113 272.215 504.912C272.084 504.726 272.044 504.481 272.097 504.177L273.463 496.354L274.026 496.452L266.493 503.534C266.349 503.673 266.18 503.792 265.983 503.892C265.787 503.991 265.545 504.016 265.256 503.966C265.054 503.93 264.894 503.865 264.776 503.77C264.659 503.675 264.585 503.543 264.555 503.374C264.508 503.217 264.506 503.016 264.549 502.77L266.096 493.906C266.146 493.617 266.266 493.4 266.455 493.254C266.63 493.106 266.855 493.056 267.129 493.104C267.433 493.157 267.649 493.284 267.778 493.485C267.892 493.684 267.924 493.928 267.873 494.217L266.504 502.062L265.94 501.964L273.478 494.86C273.621 494.721 273.791 494.602 273.987 494.502C274.183 494.402 274.426 494.378 274.715 494.428Z" fill="#0EB80E"/>
<path d="M249.895 488.976C250.908 489.274 251.724 489.75 252.341 490.405C252.959 491.06 253.355 491.849 253.527 492.771C253.7 493.693 253.627 494.696 253.309 495.779C253.07 496.595 252.742 497.294 252.327 497.876C251.894 498.467 251.391 498.931 250.818 499.267C250.246 499.603 249.622 499.802 248.946 499.864C248.253 499.936 247.526 499.86 246.766 499.637C245.753 499.339 244.937 498.863 244.32 498.208C243.702 497.553 243.306 496.764 243.134 495.842C242.957 494.935 243.027 493.939 243.346 492.855C243.585 492.039 243.922 491.335 244.355 490.744C244.774 490.149 245.27 489.683 245.843 489.346C246.415 489.01 247.048 488.806 247.742 488.734C248.417 488.673 249.135 488.753 249.895 488.976ZM249.449 490.496C248.83 490.315 248.251 490.305 247.714 490.469C247.163 490.628 246.685 490.954 246.281 491.447C245.862 491.935 245.531 492.595 245.288 493.425C244.924 494.664 244.922 495.687 245.281 496.495C245.64 497.304 246.283 497.844 247.212 498.117C247.817 498.295 248.396 498.304 248.947 498.144C249.48 497.995 249.955 497.676 250.374 497.188C250.792 496.699 251.124 496.04 251.367 495.209C251.731 493.971 251.735 492.94 251.38 492.118C251.007 491.305 250.363 490.765 249.449 490.496Z" fill="#0EB80E"/>
<path d="M236.603 484.711C236.905 484.823 237.109 484.992 237.213 485.218C237.316 485.444 237.31 485.716 237.193 486.032L234.335 493.748L237.265 494.833C237.815 495.036 237.996 495.393 237.808 495.902C237.721 496.136 237.579 496.286 237.382 496.354C237.18 496.436 236.955 496.431 236.707 496.339L228.991 493.482C228.427 493.273 228.237 492.921 228.421 492.426C228.512 492.178 228.659 492.014 228.861 491.932C229.045 491.859 229.274 491.874 229.549 491.976L232.458 493.053L235.315 485.337C235.432 485.02 235.604 484.81 235.83 484.706C236.043 484.597 236.3 484.599 236.603 484.711Z" fill="#0EB80E"/>
<path d="M221.582 478.767C221.897 478.924 222.098 479.114 222.184 479.336C222.25 479.566 222.218 479.812 222.088 480.075C222.009 480.232 221.892 480.37 221.735 480.489C221.577 480.607 221.381 480.706 221.145 480.786L214.531 483.274C213.528 483.644 212.736 484.053 212.153 484.501C211.571 484.948 211.129 485.474 210.829 486.079C210.451 486.84 210.401 487.536 210.678 488.165C210.935 488.8 211.511 489.34 212.404 489.783C212.956 490.057 213.534 490.229 214.137 490.3C214.721 490.377 215.348 490.352 216.016 490.226C216.265 490.186 216.466 490.211 216.617 490.303C216.768 490.394 216.876 490.522 216.942 490.685C216.989 490.856 217.002 491.026 216.983 491.197C216.944 491.374 216.856 491.535 216.719 491.68C216.582 491.824 216.398 491.914 216.169 491.947C215.421 492.1 214.634 492.119 213.808 492.003C212.981 491.887 212.193 491.643 211.444 491.272C210.498 490.802 209.779 490.256 209.285 489.635C208.772 489.02 208.484 488.345 208.423 487.61C208.356 486.889 208.521 486.128 208.919 485.326C209.192 484.775 209.555 484.275 210.006 483.828C210.451 483.394 210.994 482.992 211.636 482.623C212.265 482.247 213.008 481.904 213.867 481.593L220.108 479.313L219.844 479.845L213.38 476.636C213.118 476.506 212.953 476.342 212.887 476.145C212.808 475.942 212.83 475.716 212.954 475.466C213.078 475.217 213.248 475.056 213.464 474.983C213.661 474.917 213.891 474.949 214.153 475.079L221.582 478.767Z" fill="#0EB80E"/>
<path d="M201.516 467.872C201.749 468.025 201.888 468.214 201.934 468.437C201.959 468.665 201.887 468.907 201.718 469.164L196.777 476.658C196.648 476.854 196.514 477.003 196.377 477.106C196.227 477.2 196.076 477.241 195.926 477.23C195.767 477.231 195.602 477.175 195.431 477.062C195.271 476.957 195.157 476.837 195.087 476.703C195.009 476.582 194.962 476.454 194.945 476.32C194.916 476.177 194.911 476.025 194.93 475.862L195.424 468.519L188.887 471.878C188.725 471.964 188.579 472.026 188.449 472.063C188.319 472.1 188.183 472.107 188.04 472.083C187.898 472.06 187.747 471.995 187.588 471.89C187.331 471.721 187.193 471.516 187.176 471.276C187.15 471.049 187.234 470.788 187.428 470.494L192.369 463C192.539 462.743 192.739 462.586 192.971 462.527C193.182 462.473 193.404 462.523 193.637 462.677C193.869 462.83 194.009 463.018 194.055 463.242C194.092 463.478 194.026 463.724 193.857 463.981L189.679 470.318L189.256 470.039L195.744 466.754C195.87 466.696 196.004 466.653 196.146 466.624C196.28 466.607 196.427 466.651 196.586 466.756C196.758 466.869 196.862 466.99 196.899 467.12C196.916 467.255 196.923 467.391 196.92 467.529L196.475 474.799L196.071 474.532L200.249 468.196C200.418 467.938 200.613 467.777 200.832 467.711C201.043 467.657 201.271 467.71 201.516 467.872Z" fill="#0EB80E"/>
<path d="M184.52 455.949C185.434 456.661 186.086 457.447 186.475 458.308C186.844 459.171 186.956 460.066 186.81 460.994C186.655 461.933 186.231 462.848 185.537 463.739C184.852 464.618 184.08 465.253 183.219 465.642C182.347 466.022 181.46 466.159 180.558 466.052C179.645 465.936 178.789 465.567 177.99 464.945C177.423 464.504 176.991 464.009 176.692 463.461C176.374 462.915 176.192 462.337 176.147 461.726C176.102 461.115 176.202 460.486 176.445 459.839C176.668 459.195 177.032 458.548 177.536 457.9C177.68 457.715 177.851 457.615 178.048 457.601C178.224 457.59 178.416 457.665 178.624 457.827L184.561 462.449L183.778 463.456L178.24 459.145L178.724 459.132C178.256 459.734 177.952 460.315 177.813 460.876C177.653 461.439 177.661 461.966 177.837 462.456C178.001 462.937 178.338 463.376 178.847 463.772C179.403 464.205 179.981 464.441 180.582 464.481C181.173 464.533 181.758 464.403 182.336 464.09C182.905 463.79 183.428 463.333 183.905 462.719L183.986 462.615C184.797 461.573 185.161 460.593 185.078 459.673C184.995 458.753 184.484 457.928 183.547 457.199C183.177 456.91 182.764 456.664 182.31 456.459C181.845 456.245 181.338 456.12 180.79 456.084C180.535 456.053 180.343 455.978 180.213 455.858C180.063 455.741 179.977 455.6 179.957 455.435C179.927 455.282 179.951 455.133 180.027 454.988C180.093 454.854 180.21 454.74 180.376 454.646C180.542 454.553 180.746 454.517 180.99 454.539C181.579 454.57 182.198 454.717 182.848 454.981C183.476 455.248 184.034 455.57 184.52 455.949Z" fill="#0EB80E"/>
<path d="M174.325 447.475C175.134 448.198 175.683 448.993 175.97 449.86C176.248 450.738 176.267 451.63 176.027 452.537C175.777 453.454 175.271 454.34 174.508 455.193C173.941 455.827 173.346 456.317 172.721 456.664C172.086 457.001 171.442 457.193 170.79 457.239C170.129 457.297 169.474 457.204 168.827 456.96C168.169 456.706 167.533 456.305 166.921 455.758C166.538 455.416 166.187 454.994 165.869 454.493C165.55 453.991 165.332 453.442 165.215 452.846C165.173 452.651 165.19 452.479 165.264 452.33C165.329 452.191 165.432 452.076 165.572 451.985C165.702 451.884 165.849 451.829 166.015 451.82C166.16 451.812 166.303 451.861 166.444 451.967C166.574 452.064 166.671 452.22 166.735 452.434C166.821 452.866 166.973 453.257 167.19 453.608C167.396 453.95 167.631 454.238 167.893 454.473C168.298 454.834 168.717 455.091 169.151 455.243C169.575 455.386 170.008 455.429 170.452 455.373C170.875 455.318 171.302 455.159 171.734 454.896C172.156 454.644 172.577 454.283 172.998 453.813C173.828 452.883 174.265 451.955 174.306 451.028C174.338 450.112 173.955 449.298 173.157 448.584C172.894 448.35 172.587 448.144 172.234 447.966C171.871 447.799 171.465 447.692 171.016 447.645C170.796 447.605 170.635 447.521 170.534 447.391C170.424 447.273 170.369 447.136 170.371 446.98C170.352 446.825 170.385 446.678 170.471 446.538C170.547 446.409 170.66 446.304 170.812 446.223C170.952 446.132 171.117 446.102 171.305 446.133C171.89 446.183 172.444 446.334 172.967 446.585C173.49 446.836 173.943 447.133 174.325 447.475Z" fill="#0EB80E"/>
<path d="M163.045 436.64C163.25 436.85 163.351 437.069 163.348 437.297C163.335 437.536 163.218 437.762 162.997 437.977L160.714 440.205L161.743 441.26C162.122 441.648 162.549 441.887 163.025 441.976C163.501 442.065 163.973 442.045 164.442 441.916L166.798 441.307C167.079 441.238 167.318 441.252 167.514 441.347C167.71 441.423 167.858 441.554 167.96 441.742C168.061 441.909 168.111 442.097 168.108 442.304C168.106 442.511 168.046 442.702 167.93 442.877C167.804 443.042 167.61 443.148 167.35 443.197L165.509 443.672C165.041 443.78 164.558 443.789 164.062 443.7C163.565 443.611 163.163 443.409 162.856 443.094L162.641 442.874L162.782 442.735C163.622 443.596 164.078 444.463 164.15 445.335C164.222 446.207 163.901 446.991 163.187 447.688C162.715 448.149 162.203 448.443 161.652 448.571C161.08 448.699 160.494 448.645 159.896 448.409C159.297 448.173 158.69 447.74 158.076 447.111L155.326 444.291C155.101 444.06 154.99 443.82 154.993 443.572C154.986 443.312 155.103 443.065 155.345 442.829L161.692 436.639C161.912 436.424 162.147 436.318 162.396 436.321C162.624 436.324 162.84 436.43 163.045 436.64ZM161.611 443.11L159.721 441.172L156.902 443.922L158.792 445.859C159.375 446.458 159.932 446.776 160.46 446.814C160.978 446.861 161.457 446.67 161.898 446.24C162.339 445.81 162.548 445.331 162.523 444.801C162.499 444.272 162.195 443.708 161.611 443.11Z" fill="#0EB80E"/>
<path d="M154.982 423.168C155.161 423.381 155.242 423.591 155.225 423.798C155.207 424.005 155.086 424.202 154.862 424.391L153.23 425.766L158.532 432.059C158.749 432.317 158.847 432.569 158.826 432.817C158.805 433.065 158.665 433.298 158.407 433.516L151.661 439.2C151.403 439.418 151.155 439.511 150.919 439.48C150.671 439.459 150.443 439.325 150.235 439.078C150.027 438.832 149.938 438.59 149.969 438.353C149.979 438.114 150.113 437.887 150.371 437.669L156.68 432.353L153.292 428.332L146.983 433.648C146.725 433.866 146.477 433.959 146.241 433.928C145.993 433.907 145.765 433.773 145.557 433.526C145.349 433.28 145.26 433.038 145.291 432.801C145.301 432.563 145.435 432.335 145.693 432.117L152.725 426.192L152.597 427.508L151.52 426.229C151.321 425.994 151.237 425.758 151.268 425.521C151.278 425.282 151.401 425.064 151.636 424.865L153.756 423.079C154.204 422.701 154.613 422.731 154.982 423.168Z" fill="#0EB80E"/>
<path d="M146.258 416.334C146.935 417.274 147.338 418.213 147.469 419.148C147.579 420.081 147.433 420.971 147.032 421.82C146.618 422.677 145.953 423.435 145.036 424.094C144.131 424.745 143.211 425.135 142.275 425.266C141.331 425.385 140.441 425.265 139.606 424.908C138.763 424.539 138.046 423.943 137.455 423.122C137.036 422.538 136.761 421.941 136.629 421.331C136.477 420.718 136.466 420.112 136.596 419.513C136.725 418.914 136.998 418.339 137.414 417.787C137.81 417.232 138.341 416.714 139.008 416.235C139.198 416.098 139.39 416.051 139.583 416.093C139.755 416.131 139.918 416.258 140.072 416.472L144.464 422.582L143.428 423.326L139.332 417.628L139.8 417.752C139.181 418.197 138.725 418.669 138.433 419.168C138.121 419.663 137.98 420.171 138.011 420.69C138.033 421.198 138.232 421.715 138.609 422.239C139.02 422.81 139.508 423.2 140.073 423.408C140.626 423.625 141.223 423.665 141.866 423.528C142.496 423.4 143.127 423.109 143.758 422.655L143.865 422.578C144.937 421.808 145.563 420.97 145.743 420.064C145.922 419.158 145.666 418.223 144.972 417.258C144.698 416.877 144.372 416.524 143.995 416.2C143.608 415.863 143.157 415.6 142.642 415.411C142.406 415.309 142.243 415.183 142.152 415.031C142.041 414.876 141.999 414.717 142.026 414.553C142.041 414.398 142.105 414.262 142.219 414.144C142.321 414.034 142.465 413.958 142.65 413.915C142.836 413.872 143.042 413.895 143.269 413.984C143.826 414.181 144.378 414.497 144.927 414.933C145.455 415.367 145.899 415.833 146.258 416.334Z" fill="#0EB80E"/>
</svg>
