<svg width="46" height="47" viewBox="0 0 46 47" fill="none" xmlns="http://www.w3.org/2000/svg">
<path d="M19.1302 45.6109C18.6225 45.5775 18.1131 45.4696 17.6021 45.2871C17.1066 45.1342 16.7838 44.7015 16.6337 43.9891C16.4174 43.651 16.2531 43.3043 16.1408 42.9489C16.058 42.578 16.0002 42.3258 15.9674 42.1924C16.1148 42.1145 16.1643 41.9941 16.1159 41.8312C16.0519 41.6388 15.9888 41.4836 15.9266 41.3657C15.802 41.1299 15.6803 40.6853 15.5613 40.0319C15.4423 39.3785 15.3078 38.6956 15.1577 37.9832C15.1288 37.3576 15.0697 36.7103 14.9802 36.0413C14.9202 35.3567 14.859 34.9555 14.7967 34.8376C14.6722 34.6018 14.6066 34.3349 14.5999 34.0368C14.5777 33.7093 14.578 33.3887 14.6008 33.0751C14.5614 32.6435 14.4621 32.2059 14.3031 31.7621C14.158 31.2733 14.0232 30.911 13.8986 30.6752C13.8731 30.1986 13.8467 29.6848 13.8195 29.1337C13.7923 28.5826 13.7131 28.0401 13.5819 27.5062C13.4941 26.9118 13.3701 26.0348 13.21 24.8753C13.0344 23.6864 12.8735 22.4896 12.7273 21.2851C12.6968 20.585 12.6437 19.8779 12.5681 19.1639C12.5064 18.4048 12.4698 17.7645 12.4581 17.2428C12.4309 16.6918 12.4615 16.3929 12.55 16.3462C12.55 16.3462 12.5266 16.3019 12.4799 16.2135C12.4176 16.0956 12.3554 15.9777 12.2931 15.8598C12.2152 15.7125 12.1852 15.3702 12.2031 14.833C12.2053 14.2663 12.1851 13.6927 12.1423 13.1121C12.2035 12.5143 12.1918 11.9927 12.1074 11.5473C12.0073 11.0724 11.9573 10.8349 11.9573 10.8349C11.9573 10.8349 11.9695 10.7154 11.994 10.4762C12.0029 10.2076 12.0352 9.98326 12.0908 9.80309C12.6392 8.98566 13.1786 8.43683 13.7091 8.1566C14.2691 7.86079 14.8391 8.01209 15.4191 8.61049C15.9974 9.13437 16.3419 9.53673 16.4525 9.81756C16.5476 10.0689 16.6001 10.4182 16.6101 10.8653C16.6546 11.5203 16.7032 12.3617 16.7559 13.3894C16.7931 14.3876 16.8467 15.4525 16.9167 16.5842C16.9867 17.7158 17.0558 18.8102 17.1242 19.8674C17.2064 20.8795 17.2853 21.7426 17.3609 22.4566C17.466 23.155 17.5574 23.578 17.6352 23.7253L18.1837 29.2599C18.1748 29.5285 18.2635 30.1602 18.4497 31.1551C18.6204 32.1205 18.8402 33.2861 19.1093 34.6519C19.3628 35.9882 19.6171 37.3618 19.8722 38.7726C20.1413 40.1384 20.3559 41.401 20.5159 42.5605C20.6038 43.155 20.6596 43.6533 20.6835 44.0553C20.723 44.4869 20.7157 44.83 20.6618 45.0847C20.6078 45.3393 20.4777 45.5212 20.2713 45.6302C20.1534 45.6924 19.9975 45.7183 19.8034 45.7077C19.6093 45.6971 19.3849 45.6649 19.1302 45.6109ZM34.7343 37.2555C34.4846 37.4251 34.0461 37.4871 33.4188 37.4414C32.8366 37.4097 32.1712 37.3276 31.4227 37.1952C30.7037 37.0472 29.9917 36.8767 29.2865 36.6837C28.6109 36.4751 28.0548 36.2788 27.6183 36.0947C26.7886 35.6659 25.7018 35.0714 24.3577 34.3111C23.0432 33.5352 21.8743 32.607 20.8512 31.5265C20.1467 30.6923 19.5286 30.0575 18.997 29.622C18.4793 29.1415 18.1037 28.6802 17.8702 28.2381L16.4665 25.4736L19.5771 23.5478C20.5652 25.0616 21.5016 26.2633 22.3863 27.1532C23.2554 28.0135 24.129 28.7395 25.007 29.3313C25.7655 29.9108 26.5457 30.46 27.3475 30.9789C28.1789 31.4822 28.9921 31.8443 29.7873 32.0651C30.8545 32.4439 31.7467 32.67 32.4641 32.7434C33.1814 32.8169 33.6727 32.7836 33.938 32.6434C34.6381 32.6129 35.1831 32.6455 35.5729 32.7411C35.9627 32.8368 36.2486 32.9497 36.4304 33.0799C36.6122 33.21 36.7273 33.3565 36.7757 33.5195C36.8519 33.5923 36.9383 33.7917 37.0351 34.1176C37.1474 34.4729 37.2224 34.8291 37.2602 35.1861C37.3136 35.5726 37.2605 35.8646 37.1009 36.062C37.0035 36.3773 36.8005 36.6353 36.4919 36.836C36.1988 37.0662 35.6129 37.206 34.7343 37.2555ZM15.5564 25.7847L17.5228 21.6925C17.5645 21.5574 17.6905 21.1893 17.9007 20.5881C18.1249 19.942 18.6068 18.8204 19.3465 17.2233L22.6836 9.41009C23.2181 8.6377 23.6702 7.85225 24.0401 7.05372C24.41 6.25519 24.7311 5.61431 25.0037 5.13108C25.3179 4.51272 25.6391 3.87184 25.9672 3.20844C26.2954 2.54504 26.5262 2.19694 26.6596 2.16414C26.8332 1.92169 27.1754 1.89169 27.6865 2.07412C28.182 2.22708 28.6574 2.48486 29.1128 2.84747C29.5821 3.16503 29.8643 3.44949 29.9594 3.70085C30.174 3.96446 30.2622 4.23834 30.2238 4.52251C30.1854 4.80667 29.9501 5.28907 29.518 5.9697C28.9524 6.68313 28.5264 7.30399 28.24 7.83226C27.983 8.34496 27.864 8.69057 27.8829 8.86908C27.8829 8.86908 27.698 9.26834 27.3281 10.0669C26.9582 10.8654 26.5016 11.7852 25.9582 12.8261C25.1996 14.2447 24.6006 15.4658 24.1612 16.4896C23.7358 17.4683 23.4985 18.1967 23.4496 18.675C23.3317 18.7373 23.2371 18.8437 23.1659 18.9944C23.1242 19.1296 23.0366 19.2135 22.9032 19.2463C22.9032 19.2463 22.832 19.397 22.6896 19.6984C22.5316 19.9703 22.4404 20.2259 22.4159 20.465C22.4348 20.6435 22.4034 20.9051 22.3216 21.2499C22.2693 21.5791 22.1028 21.799 21.8219 21.9097C21.6779 22.1366 21.4418 22.5817 21.1137 23.2451C20.77 23.879 20.4201 24.5727 20.0642 25.3262C19.7377 26.0641 19.4615 26.7189 19.2357 27.2906C19.0099 27.8622 18.8978 28.1853 18.8995 28.2598L15.5564 25.7847Z" fill="#333333"/>
</svg>
