<svg width="24" height="25" viewBox="0 0 24 25" fill="none" xmlns="http://www.w3.org/2000/svg">
<path d="M12.597 22.9517C12.2139 23.1541 11.8655 23.2439 11.5518 23.2211C11.2677 23.1827 10.8934 23.1165 10.4291 23.0225C9.5577 22.7288 8.76612 22.3364 8.05435 21.8453C7.37206 21.3387 6.94279 20.8115 6.76654 20.2637C6.73041 19.9812 6.64312 19.7446 6.50467 19.5538C6.38012 19.318 6.31784 19.2001 6.31784 19.2001C6.09263 19.1306 6.00171 19.0655 6.04509 19.0049C6.0729 18.9148 6.08514 18.7953 6.08182 18.6462C6.25866 18.5528 6.23198 18.3596 6.00178 18.0665C5.81828 17.8618 5.64203 17.3141 5.47304 16.4232C5.31795 15.4873 5.27464 14.5489 5.3431 13.608C5.36426 13.2198 5.42713 12.6965 5.53173 12.0381C5.62075 11.3502 5.74703 10.6615 5.91057 9.97195C6.08801 9.23736 6.27573 8.62928 6.47374 8.14772C6.88365 7.13954 7.29689 6.2804 7.71345 5.57029C8.15949 4.84462 8.6678 4.23684 9.23839 3.74696C9.80898 3.25707 10.4332 2.83309 11.1111 2.47501C11.8185 2.10136 12.5178 2.03357 13.209 2.27162C14.0426 2.20828 14.7244 2.35708 15.2543 2.71803C15.8137 3.0634 16.3478 3.61063 16.8566 4.35973C17.4121 5.19725 17.8997 6.3345 18.3195 7.77148C18.7236 9.17899 18.78 11.0341 18.4884 13.3369C18.312 14.7872 18.0258 15.9939 17.6298 16.957C17.2338 17.9202 16.7408 18.878 16.1507 19.8306C15.7497 20.5701 15.2189 21.171 14.5582 21.633C13.8975 22.0951 13.2438 22.5347 12.597 22.9517ZM14.2575 15.1759C14.6101 14.2734 14.74 13.4131 14.6472 12.5951C14.5839 11.7615 14.473 10.8022 14.3146 9.71727C14.3391 9.47815 14.2571 9.14449 14.0686 8.71628C13.9096 8.27251 13.7141 7.86682 13.4823 7.49922C13.2348 7.10215 13.0071 6.92085 12.7991 6.95532C12.4249 6.88912 12.1363 6.98502 11.9333 7.24304C11.7147 7.47158 11.477 7.8422 11.22 8.3549C10.725 9.55882 10.3512 10.8495 10.0987 12.2269C9.86 13.5593 9.95917 14.996 10.3962 16.537C10.6969 17.3205 11.0664 17.8416 11.5046 18.1002C11.9567 18.3138 12.4238 18.199 12.906 17.7558C13.4021 17.2676 13.8526 16.4076 14.2575 15.1759Z" fill="#333333"/>
</svg>
