<svg width="98" height="99" viewBox="0 0 98 99" fill="none" xmlns="http://www.w3.org/2000/svg">
<circle cx="49" cy="49.8413" r="48" stroke="#0EB80E" stroke-width="2"/>
<circle cx="49" cy="50" r="45" fill="#0EB80E"/>
<path d="M50.1524 60.9048C37.5109 60.9048 30.3004 52.3069 30 38H36.3323C36.5403 48.5009 41.2086 52.9489 44.9063 53.866V38H50.8688V47.0564C54.5203 46.6667 58.3567 42.5397 59.6508 38H65.6134C65.1257 40.3544 64.1536 42.5837 62.7578 44.5483C61.362 46.513 59.5726 48.1708 57.5016 49.418C59.8134 50.5576 61.8553 52.1707 63.4926 54.1507C65.1299 56.1307 66.3253 58.4327 67 60.9048H60.4366C59.8309 58.7576 58.6 56.8356 56.898 55.3795C55.196 53.9235 53.0986 52.9982 50.8688 52.7196V60.9048H50.1524V60.9048Z" fill="white"/>
</svg>
