<svg width="92" height="95" viewBox="0 0 92 95" fill="none" xmlns="http://www.w3.org/2000/svg">
<path d="M48.4993 47.6352L48.2258 48.0537L48.4993 47.6352ZM41.2429 75.2707L40.7833 75.4677L41.2429 75.2707ZM3.64145 94.3485C3.83391 94.5465 4.15046 94.551 4.34848 94.3586L7.57546 91.2222C7.77348 91.0298 7.77799 90.7132 7.58553 90.5152C7.39307 90.3172 7.07652 90.3127 6.8785 90.5051L4.01007 93.293L1.22222 90.4245C1.02975 90.2265 0.713204 90.222 0.51518 90.4145C0.317157 90.6069 0.312648 90.9235 0.505109 91.1215L3.64145 94.3485ZM19.82 56.6165L20.3199 56.6088L19.82 56.6165ZM43.5455 19.387L43.1547 19.0751L43.5455 19.387ZM55.4098 46.9443L55.8493 47.1827L55.4098 46.9443ZM23.7727 71.5599L23.5943 71.0928L23.7727 71.5599ZM37.0965 76.307L37.3328 75.8664L37.0965 76.307ZM48.7729 47.2167C44.3771 44.3433 41.1512 39.9825 40.0312 35.0922C38.9141 30.2151 39.8826 24.7764 43.9362 19.699L43.1547 19.0751C38.9161 24.3842 37.8695 30.1333 39.0564 35.3155C40.2403 40.4845 43.6374 45.0545 48.2258 48.0537L48.7729 47.2167ZM43.9362 19.699C46.4817 16.5106 50.6744 13.7628 55.5887 11.4365C60.4933 9.11475 66.0689 7.23484 71.3317 5.75985C76.5925 4.28542 81.5292 3.2188 85.1513 2.52077C86.9621 2.17183 88.4434 1.91516 89.4714 1.74583C89.9854 1.66116 90.386 1.59834 90.6577 1.55674C90.7936 1.53594 90.8972 1.52044 90.9667 1.51017C91.0014 1.50504 91.0276 1.50121 91.045 1.49869C91.0537 1.49742 91.0602 1.49648 91.0645 1.49586C91.0667 1.49556 91.0682 1.49533 91.0693 1.49518C91.0698 1.49511 91.0701 1.49506 91.0704 1.49502C91.0706 1.49499 91.0707 1.49498 91 1C90.9294 0.505017 90.9291 0.505048 90.9288 0.505099C90.9285 0.505143 90.928 0.505214 90.9274 0.505302C90.9261 0.505477 90.9243 0.505734 90.922 0.506071C90.9173 0.506746 90.9104 0.507744 90.9013 0.509068C90.8831 0.511715 90.856 0.515662 90.8205 0.520919C90.7493 0.531433 90.644 0.547186 90.5064 0.568257C90.2311 0.610399 89.8268 0.673814 89.3089 0.759126C88.2731 0.929744 86.7828 1.18798 84.9621 1.53884C81.3215 2.24042 76.3566 3.31301 71.0618 4.79696C65.769 6.28036 60.1349 8.17803 55.1608 10.5326C50.1963 12.8827 45.8412 15.71 43.1547 19.0751L43.9362 19.699ZM48.2258 48.0537C49.4377 48.8459 50.9446 49.3052 52.3445 49.2395C53.7557 49.1731 55.0997 48.5647 55.8493 47.1827L54.9702 46.7059C54.4271 47.7074 53.4508 48.1864 52.2975 48.2406C51.1329 48.2953 49.831 47.9083 48.7729 47.2167L48.2258 48.0537ZM41.7024 75.0737C41.2934 74.1198 40.3897 73.2336 39.2199 72.487C38.0393 71.7336 36.5389 71.0909 34.861 70.6464C31.5086 69.7583 27.3838 69.6455 23.5943 71.0928L23.9511 72.027C27.5058 70.6693 31.4108 70.7669 34.6049 71.613C36.2002 72.0356 37.6021 72.6409 38.6819 73.33C39.7724 74.0259 40.487 74.7767 40.7833 75.4677L41.7024 75.0737ZM23.5943 71.0928C18.0267 73.2193 13.0409 77.204 9.43513 81.5005C5.84448 85.7789 3.55045 90.4544 3.50005 93.9929L4.49995 94.0071C4.54548 90.8107 6.66553 86.3562 10.2011 82.1433C13.7216 77.9485 18.5742 74.0807 23.9511 72.027L23.5943 71.0928ZM19.3201 56.6242C19.4021 61.9464 22.6973 66.3748 26.4601 69.7448C30.2324 73.1232 34.5574 75.5122 36.8601 76.7476L37.3328 75.8664C35.0391 74.6358 30.8047 72.2933 27.1273 68.9998C23.4404 65.6979 20.3956 61.5141 20.3199 56.6088L19.3201 56.6242ZM36.8601 76.7476C37.2264 76.9441 37.7531 77.1277 38.308 77.2573C38.8653 77.3873 39.4885 77.4718 40.0514 77.4487C40.5869 77.4268 41.1953 77.3028 41.5779 76.8859C42.0104 76.4147 41.9986 75.7644 41.7024 75.0737L40.7833 75.4677C41.0055 75.986 40.892 76.1543 40.8412 76.2097C40.7404 76.3195 40.4837 76.4302 40.0105 76.4496C39.5647 76.4678 39.0357 76.4002 38.5354 76.2834C38.0327 76.1661 37.5966 76.0079 37.3328 75.8664L36.8601 76.7476ZM55.8493 47.1827C56.6734 45.6633 56.6971 44.2122 56.0443 42.9286C55.4066 41.6748 54.1575 40.6472 52.5659 39.8544C49.3789 38.2672 44.6092 37.5158 39.6992 37.8889C34.7843 38.2623 29.6544 39.768 25.7644 42.7736C21.8553 45.7941 19.2228 50.3138 19.3201 56.6242L20.3199 56.6088C20.2277 50.6284 22.704 46.4021 26.3758 43.565C30.0669 40.713 34.9903 39.2495 39.775 38.886C44.5646 38.522 49.1408 39.2658 52.1201 40.7496C53.6115 41.4924 54.6506 42.3942 55.153 43.3819C55.6401 44.3398 55.6558 45.442 54.9702 46.7059L55.8493 47.1827Z" fill="#FB974E"/>
</svg>
