<svg width="97" height="4" viewBox="0 0 97 4" fill="none" xmlns="http://www.w3.org/2000/svg">
<path opacity="0.5" d="M0.994141 2.98438L3.49414 1.98438C5.09899 1.34243 6.88929 1.34243 8.49414 1.98438V1.98438C10.099 2.62632 11.8893 2.62632 13.4941 1.98438V1.98438C15.099 1.34243 16.8893 1.34243 18.4941 1.98438V1.98438C20.099 2.62632 21.8893 2.62632 23.4941 1.98438V1.98438C25.099 1.34243 26.8893 1.34243 28.4941 1.98438V1.98438C30.099 2.62632 31.8893 2.62632 33.4941 1.98438V1.98438C35.099 1.34243 36.8893 1.34243 38.4941 1.98438V1.98438C40.099 2.62632 41.8893 2.62632 43.4941 1.98438V1.98438C45.099 1.34243 46.8893 1.34243 48.4941 1.98438V1.98438C50.099 2.62632 51.8893 2.62632 53.4941 1.98438V1.98438C55.099 1.34243 56.8893 1.34243 58.4941 1.98438V1.98438C60.099 2.62632 61.8893 2.62632 63.4941 1.98438V1.98438C65.099 1.34243 66.8893 1.34243 68.4941 1.98438V1.98438C70.099 2.62632 71.8893 2.62632 73.4941 1.98438V1.98438C75.099 1.34243 76.8893 1.34243 78.4941 1.98438V1.98438C80.099 2.62632 81.8893 2.62632 83.4941 1.98438V1.98438C85.099 1.34243 86.8893 1.34243 88.4941 1.98438V1.98438C90.099 2.62632 91.8893 2.62632 93.4941 1.98438L95.9941 0.984375" stroke="#FB974E" stroke-linecap="round" stroke-linejoin="round"/>
</svg>
